G04 #@! TF.GenerationSoftware,KiCad,Pcbnew,5.1.5-52549c5~84~ubuntu18.04.1*
G04 #@! TF.CreationDate,2020-05-16T16:19:51-04:00*
G04 #@! TF.ProjectId,PWR_SUPPLY,5057525f-5355-4505-904c-592e6b696361,rev?*
G04 #@! TF.SameCoordinates,Original*
G04 #@! TF.FileFunction,Copper,L1,Top*
G04 #@! TF.FilePolarity,Positive*
%FSLAX46Y46*%
G04 Gerber Fmt 4.6, Leading zero omitted, Abs format (unit mm)*
G04 Created by KiCad (PCBNEW 5.1.5-52549c5~84~ubuntu18.04.1) date 2020-05-16 16:19:51*
%MOMM*%
%LPD*%
G04 APERTURE LIST*
%ADD10R,3.000000X3.000000*%
%ADD11C,3.000000*%
%ADD12R,6.400000X5.800000*%
%ADD13R,2.200000X1.200000*%
%ADD14C,2.010000*%
%ADD15R,1.200000X0.900000*%
%ADD16C,0.100000*%
%ADD17C,0.800000*%
%ADD18C,1.000000*%
%ADD19C,0.254000*%
G04 APERTURE END LIST*
D10*
X125476000Y-115316000D03*
D11*
X138276000Y-70316000D03*
X146276000Y-115316000D03*
X146276000Y-70316000D03*
X164592000Y-94996000D03*
D10*
X164592000Y-100076000D03*
D11*
X164592000Y-84328000D03*
D10*
X164592000Y-89408000D03*
D11*
X115316000Y-83820000D03*
D10*
X115316000Y-78740000D03*
D11*
X115316000Y-104140000D03*
D10*
X115316000Y-99060000D03*
D12*
X159258000Y-77470000D03*
D13*
X152958000Y-79750000D03*
X152958000Y-77470000D03*
X152958000Y-75190000D03*
D12*
X159580000Y-106934000D03*
D13*
X153280000Y-109214000D03*
X153280000Y-106934000D03*
X153280000Y-104654000D03*
D14*
X114026000Y-91440000D03*
X119126000Y-92640000D03*
D15*
X156464000Y-96776000D03*
X156464000Y-100076000D03*
X156464000Y-88644000D03*
X156464000Y-85344000D03*
G04 #@! TA.AperFunction,SMDPad,CuDef*
D16*
G36*
X153642142Y-97557674D02*
G01*
X153665803Y-97561184D01*
X153689007Y-97566996D01*
X153711529Y-97575054D01*
X153733153Y-97585282D01*
X153753670Y-97597579D01*
X153772883Y-97611829D01*
X153790607Y-97627893D01*
X153806671Y-97645617D01*
X153820921Y-97664830D01*
X153833218Y-97685347D01*
X153843446Y-97706971D01*
X153851504Y-97729493D01*
X153857316Y-97752697D01*
X153860826Y-97776358D01*
X153862000Y-97800250D01*
X153862000Y-98287750D01*
X153860826Y-98311642D01*
X153857316Y-98335303D01*
X153851504Y-98358507D01*
X153843446Y-98381029D01*
X153833218Y-98402653D01*
X153820921Y-98423170D01*
X153806671Y-98442383D01*
X153790607Y-98460107D01*
X153772883Y-98476171D01*
X153753670Y-98490421D01*
X153733153Y-98502718D01*
X153711529Y-98512946D01*
X153689007Y-98521004D01*
X153665803Y-98526816D01*
X153642142Y-98530326D01*
X153618250Y-98531500D01*
X152705750Y-98531500D01*
X152681858Y-98530326D01*
X152658197Y-98526816D01*
X152634993Y-98521004D01*
X152612471Y-98512946D01*
X152590847Y-98502718D01*
X152570330Y-98490421D01*
X152551117Y-98476171D01*
X152533393Y-98460107D01*
X152517329Y-98442383D01*
X152503079Y-98423170D01*
X152490782Y-98402653D01*
X152480554Y-98381029D01*
X152472496Y-98358507D01*
X152466684Y-98335303D01*
X152463174Y-98311642D01*
X152462000Y-98287750D01*
X152462000Y-97800250D01*
X152463174Y-97776358D01*
X152466684Y-97752697D01*
X152472496Y-97729493D01*
X152480554Y-97706971D01*
X152490782Y-97685347D01*
X152503079Y-97664830D01*
X152517329Y-97645617D01*
X152533393Y-97627893D01*
X152551117Y-97611829D01*
X152570330Y-97597579D01*
X152590847Y-97585282D01*
X152612471Y-97575054D01*
X152634993Y-97566996D01*
X152658197Y-97561184D01*
X152681858Y-97557674D01*
X152705750Y-97556500D01*
X153618250Y-97556500D01*
X153642142Y-97557674D01*
G37*
G04 #@! TD.AperFunction*
G04 #@! TA.AperFunction,SMDPad,CuDef*
G36*
X153642142Y-99432674D02*
G01*
X153665803Y-99436184D01*
X153689007Y-99441996D01*
X153711529Y-99450054D01*
X153733153Y-99460282D01*
X153753670Y-99472579D01*
X153772883Y-99486829D01*
X153790607Y-99502893D01*
X153806671Y-99520617D01*
X153820921Y-99539830D01*
X153833218Y-99560347D01*
X153843446Y-99581971D01*
X153851504Y-99604493D01*
X153857316Y-99627697D01*
X153860826Y-99651358D01*
X153862000Y-99675250D01*
X153862000Y-100162750D01*
X153860826Y-100186642D01*
X153857316Y-100210303D01*
X153851504Y-100233507D01*
X153843446Y-100256029D01*
X153833218Y-100277653D01*
X153820921Y-100298170D01*
X153806671Y-100317383D01*
X153790607Y-100335107D01*
X153772883Y-100351171D01*
X153753670Y-100365421D01*
X153733153Y-100377718D01*
X153711529Y-100387946D01*
X153689007Y-100396004D01*
X153665803Y-100401816D01*
X153642142Y-100405326D01*
X153618250Y-100406500D01*
X152705750Y-100406500D01*
X152681858Y-100405326D01*
X152658197Y-100401816D01*
X152634993Y-100396004D01*
X152612471Y-100387946D01*
X152590847Y-100377718D01*
X152570330Y-100365421D01*
X152551117Y-100351171D01*
X152533393Y-100335107D01*
X152517329Y-100317383D01*
X152503079Y-100298170D01*
X152490782Y-100277653D01*
X152480554Y-100256029D01*
X152472496Y-100233507D01*
X152466684Y-100210303D01*
X152463174Y-100186642D01*
X152462000Y-100162750D01*
X152462000Y-99675250D01*
X152463174Y-99651358D01*
X152466684Y-99627697D01*
X152472496Y-99604493D01*
X152480554Y-99581971D01*
X152490782Y-99560347D01*
X152503079Y-99539830D01*
X152517329Y-99520617D01*
X152533393Y-99502893D01*
X152551117Y-99486829D01*
X152570330Y-99472579D01*
X152590847Y-99460282D01*
X152612471Y-99450054D01*
X152634993Y-99441996D01*
X152658197Y-99436184D01*
X152681858Y-99432674D01*
X152705750Y-99431500D01*
X153618250Y-99431500D01*
X153642142Y-99432674D01*
G37*
G04 #@! TD.AperFunction*
G04 #@! TA.AperFunction,SMDPad,CuDef*
G36*
X153642142Y-86732674D02*
G01*
X153665803Y-86736184D01*
X153689007Y-86741996D01*
X153711529Y-86750054D01*
X153733153Y-86760282D01*
X153753670Y-86772579D01*
X153772883Y-86786829D01*
X153790607Y-86802893D01*
X153806671Y-86820617D01*
X153820921Y-86839830D01*
X153833218Y-86860347D01*
X153843446Y-86881971D01*
X153851504Y-86904493D01*
X153857316Y-86927697D01*
X153860826Y-86951358D01*
X153862000Y-86975250D01*
X153862000Y-87462750D01*
X153860826Y-87486642D01*
X153857316Y-87510303D01*
X153851504Y-87533507D01*
X153843446Y-87556029D01*
X153833218Y-87577653D01*
X153820921Y-87598170D01*
X153806671Y-87617383D01*
X153790607Y-87635107D01*
X153772883Y-87651171D01*
X153753670Y-87665421D01*
X153733153Y-87677718D01*
X153711529Y-87687946D01*
X153689007Y-87696004D01*
X153665803Y-87701816D01*
X153642142Y-87705326D01*
X153618250Y-87706500D01*
X152705750Y-87706500D01*
X152681858Y-87705326D01*
X152658197Y-87701816D01*
X152634993Y-87696004D01*
X152612471Y-87687946D01*
X152590847Y-87677718D01*
X152570330Y-87665421D01*
X152551117Y-87651171D01*
X152533393Y-87635107D01*
X152517329Y-87617383D01*
X152503079Y-87598170D01*
X152490782Y-87577653D01*
X152480554Y-87556029D01*
X152472496Y-87533507D01*
X152466684Y-87510303D01*
X152463174Y-87486642D01*
X152462000Y-87462750D01*
X152462000Y-86975250D01*
X152463174Y-86951358D01*
X152466684Y-86927697D01*
X152472496Y-86904493D01*
X152480554Y-86881971D01*
X152490782Y-86860347D01*
X152503079Y-86839830D01*
X152517329Y-86820617D01*
X152533393Y-86802893D01*
X152551117Y-86786829D01*
X152570330Y-86772579D01*
X152590847Y-86760282D01*
X152612471Y-86750054D01*
X152634993Y-86741996D01*
X152658197Y-86736184D01*
X152681858Y-86732674D01*
X152705750Y-86731500D01*
X153618250Y-86731500D01*
X153642142Y-86732674D01*
G37*
G04 #@! TD.AperFunction*
G04 #@! TA.AperFunction,SMDPad,CuDef*
G36*
X153642142Y-84857674D02*
G01*
X153665803Y-84861184D01*
X153689007Y-84866996D01*
X153711529Y-84875054D01*
X153733153Y-84885282D01*
X153753670Y-84897579D01*
X153772883Y-84911829D01*
X153790607Y-84927893D01*
X153806671Y-84945617D01*
X153820921Y-84964830D01*
X153833218Y-84985347D01*
X153843446Y-85006971D01*
X153851504Y-85029493D01*
X153857316Y-85052697D01*
X153860826Y-85076358D01*
X153862000Y-85100250D01*
X153862000Y-85587750D01*
X153860826Y-85611642D01*
X153857316Y-85635303D01*
X153851504Y-85658507D01*
X153843446Y-85681029D01*
X153833218Y-85702653D01*
X153820921Y-85723170D01*
X153806671Y-85742383D01*
X153790607Y-85760107D01*
X153772883Y-85776171D01*
X153753670Y-85790421D01*
X153733153Y-85802718D01*
X153711529Y-85812946D01*
X153689007Y-85821004D01*
X153665803Y-85826816D01*
X153642142Y-85830326D01*
X153618250Y-85831500D01*
X152705750Y-85831500D01*
X152681858Y-85830326D01*
X152658197Y-85826816D01*
X152634993Y-85821004D01*
X152612471Y-85812946D01*
X152590847Y-85802718D01*
X152570330Y-85790421D01*
X152551117Y-85776171D01*
X152533393Y-85760107D01*
X152517329Y-85742383D01*
X152503079Y-85723170D01*
X152490782Y-85702653D01*
X152480554Y-85681029D01*
X152472496Y-85658507D01*
X152466684Y-85635303D01*
X152463174Y-85611642D01*
X152462000Y-85587750D01*
X152462000Y-85100250D01*
X152463174Y-85076358D01*
X152466684Y-85052697D01*
X152472496Y-85029493D01*
X152480554Y-85006971D01*
X152490782Y-84985347D01*
X152503079Y-84964830D01*
X152517329Y-84945617D01*
X152533393Y-84927893D01*
X152551117Y-84911829D01*
X152570330Y-84897579D01*
X152590847Y-84885282D01*
X152612471Y-84875054D01*
X152634993Y-84866996D01*
X152658197Y-84861184D01*
X152681858Y-84857674D01*
X152705750Y-84856500D01*
X153618250Y-84856500D01*
X153642142Y-84857674D01*
G37*
G04 #@! TD.AperFunction*
G04 #@! TA.AperFunction,SMDPad,CuDef*
G36*
X157452142Y-115688674D02*
G01*
X157475803Y-115692184D01*
X157499007Y-115697996D01*
X157521529Y-115706054D01*
X157543153Y-115716282D01*
X157563670Y-115728579D01*
X157582883Y-115742829D01*
X157600607Y-115758893D01*
X157616671Y-115776617D01*
X157630921Y-115795830D01*
X157643218Y-115816347D01*
X157653446Y-115837971D01*
X157661504Y-115860493D01*
X157667316Y-115883697D01*
X157670826Y-115907358D01*
X157672000Y-115931250D01*
X157672000Y-116418750D01*
X157670826Y-116442642D01*
X157667316Y-116466303D01*
X157661504Y-116489507D01*
X157653446Y-116512029D01*
X157643218Y-116533653D01*
X157630921Y-116554170D01*
X157616671Y-116573383D01*
X157600607Y-116591107D01*
X157582883Y-116607171D01*
X157563670Y-116621421D01*
X157543153Y-116633718D01*
X157521529Y-116643946D01*
X157499007Y-116652004D01*
X157475803Y-116657816D01*
X157452142Y-116661326D01*
X157428250Y-116662500D01*
X156515750Y-116662500D01*
X156491858Y-116661326D01*
X156468197Y-116657816D01*
X156444993Y-116652004D01*
X156422471Y-116643946D01*
X156400847Y-116633718D01*
X156380330Y-116621421D01*
X156361117Y-116607171D01*
X156343393Y-116591107D01*
X156327329Y-116573383D01*
X156313079Y-116554170D01*
X156300782Y-116533653D01*
X156290554Y-116512029D01*
X156282496Y-116489507D01*
X156276684Y-116466303D01*
X156273174Y-116442642D01*
X156272000Y-116418750D01*
X156272000Y-115931250D01*
X156273174Y-115907358D01*
X156276684Y-115883697D01*
X156282496Y-115860493D01*
X156290554Y-115837971D01*
X156300782Y-115816347D01*
X156313079Y-115795830D01*
X156327329Y-115776617D01*
X156343393Y-115758893D01*
X156361117Y-115742829D01*
X156380330Y-115728579D01*
X156400847Y-115716282D01*
X156422471Y-115706054D01*
X156444993Y-115697996D01*
X156468197Y-115692184D01*
X156491858Y-115688674D01*
X156515750Y-115687500D01*
X157428250Y-115687500D01*
X157452142Y-115688674D01*
G37*
G04 #@! TD.AperFunction*
G04 #@! TA.AperFunction,SMDPad,CuDef*
G36*
X157452142Y-113813674D02*
G01*
X157475803Y-113817184D01*
X157499007Y-113822996D01*
X157521529Y-113831054D01*
X157543153Y-113841282D01*
X157563670Y-113853579D01*
X157582883Y-113867829D01*
X157600607Y-113883893D01*
X157616671Y-113901617D01*
X157630921Y-113920830D01*
X157643218Y-113941347D01*
X157653446Y-113962971D01*
X157661504Y-113985493D01*
X157667316Y-114008697D01*
X157670826Y-114032358D01*
X157672000Y-114056250D01*
X157672000Y-114543750D01*
X157670826Y-114567642D01*
X157667316Y-114591303D01*
X157661504Y-114614507D01*
X157653446Y-114637029D01*
X157643218Y-114658653D01*
X157630921Y-114679170D01*
X157616671Y-114698383D01*
X157600607Y-114716107D01*
X157582883Y-114732171D01*
X157563670Y-114746421D01*
X157543153Y-114758718D01*
X157521529Y-114768946D01*
X157499007Y-114777004D01*
X157475803Y-114782816D01*
X157452142Y-114786326D01*
X157428250Y-114787500D01*
X156515750Y-114787500D01*
X156491858Y-114786326D01*
X156468197Y-114782816D01*
X156444993Y-114777004D01*
X156422471Y-114768946D01*
X156400847Y-114758718D01*
X156380330Y-114746421D01*
X156361117Y-114732171D01*
X156343393Y-114716107D01*
X156327329Y-114698383D01*
X156313079Y-114679170D01*
X156300782Y-114658653D01*
X156290554Y-114637029D01*
X156282496Y-114614507D01*
X156276684Y-114591303D01*
X156273174Y-114567642D01*
X156272000Y-114543750D01*
X156272000Y-114056250D01*
X156273174Y-114032358D01*
X156276684Y-114008697D01*
X156282496Y-113985493D01*
X156290554Y-113962971D01*
X156300782Y-113941347D01*
X156313079Y-113920830D01*
X156327329Y-113901617D01*
X156343393Y-113883893D01*
X156361117Y-113867829D01*
X156380330Y-113853579D01*
X156400847Y-113841282D01*
X156422471Y-113831054D01*
X156444993Y-113822996D01*
X156468197Y-113817184D01*
X156491858Y-113813674D01*
X156515750Y-113812500D01*
X157428250Y-113812500D01*
X157452142Y-113813674D01*
G37*
G04 #@! TD.AperFunction*
G04 #@! TA.AperFunction,SMDPad,CuDef*
G36*
X157960142Y-68758674D02*
G01*
X157983803Y-68762184D01*
X158007007Y-68767996D01*
X158029529Y-68776054D01*
X158051153Y-68786282D01*
X158071670Y-68798579D01*
X158090883Y-68812829D01*
X158108607Y-68828893D01*
X158124671Y-68846617D01*
X158138921Y-68865830D01*
X158151218Y-68886347D01*
X158161446Y-68907971D01*
X158169504Y-68930493D01*
X158175316Y-68953697D01*
X158178826Y-68977358D01*
X158180000Y-69001250D01*
X158180000Y-69488750D01*
X158178826Y-69512642D01*
X158175316Y-69536303D01*
X158169504Y-69559507D01*
X158161446Y-69582029D01*
X158151218Y-69603653D01*
X158138921Y-69624170D01*
X158124671Y-69643383D01*
X158108607Y-69661107D01*
X158090883Y-69677171D01*
X158071670Y-69691421D01*
X158051153Y-69703718D01*
X158029529Y-69713946D01*
X158007007Y-69722004D01*
X157983803Y-69727816D01*
X157960142Y-69731326D01*
X157936250Y-69732500D01*
X157023750Y-69732500D01*
X156999858Y-69731326D01*
X156976197Y-69727816D01*
X156952993Y-69722004D01*
X156930471Y-69713946D01*
X156908847Y-69703718D01*
X156888330Y-69691421D01*
X156869117Y-69677171D01*
X156851393Y-69661107D01*
X156835329Y-69643383D01*
X156821079Y-69624170D01*
X156808782Y-69603653D01*
X156798554Y-69582029D01*
X156790496Y-69559507D01*
X156784684Y-69536303D01*
X156781174Y-69512642D01*
X156780000Y-69488750D01*
X156780000Y-69001250D01*
X156781174Y-68977358D01*
X156784684Y-68953697D01*
X156790496Y-68930493D01*
X156798554Y-68907971D01*
X156808782Y-68886347D01*
X156821079Y-68865830D01*
X156835329Y-68846617D01*
X156851393Y-68828893D01*
X156869117Y-68812829D01*
X156888330Y-68798579D01*
X156908847Y-68786282D01*
X156930471Y-68776054D01*
X156952993Y-68767996D01*
X156976197Y-68762184D01*
X156999858Y-68758674D01*
X157023750Y-68757500D01*
X157936250Y-68757500D01*
X157960142Y-68758674D01*
G37*
G04 #@! TD.AperFunction*
G04 #@! TA.AperFunction,SMDPad,CuDef*
G36*
X157960142Y-70633674D02*
G01*
X157983803Y-70637184D01*
X158007007Y-70642996D01*
X158029529Y-70651054D01*
X158051153Y-70661282D01*
X158071670Y-70673579D01*
X158090883Y-70687829D01*
X158108607Y-70703893D01*
X158124671Y-70721617D01*
X158138921Y-70740830D01*
X158151218Y-70761347D01*
X158161446Y-70782971D01*
X158169504Y-70805493D01*
X158175316Y-70828697D01*
X158178826Y-70852358D01*
X158180000Y-70876250D01*
X158180000Y-71363750D01*
X158178826Y-71387642D01*
X158175316Y-71411303D01*
X158169504Y-71434507D01*
X158161446Y-71457029D01*
X158151218Y-71478653D01*
X158138921Y-71499170D01*
X158124671Y-71518383D01*
X158108607Y-71536107D01*
X158090883Y-71552171D01*
X158071670Y-71566421D01*
X158051153Y-71578718D01*
X158029529Y-71588946D01*
X158007007Y-71597004D01*
X157983803Y-71602816D01*
X157960142Y-71606326D01*
X157936250Y-71607500D01*
X157023750Y-71607500D01*
X156999858Y-71606326D01*
X156976197Y-71602816D01*
X156952993Y-71597004D01*
X156930471Y-71588946D01*
X156908847Y-71578718D01*
X156888330Y-71566421D01*
X156869117Y-71552171D01*
X156851393Y-71536107D01*
X156835329Y-71518383D01*
X156821079Y-71499170D01*
X156808782Y-71478653D01*
X156798554Y-71457029D01*
X156790496Y-71434507D01*
X156784684Y-71411303D01*
X156781174Y-71387642D01*
X156780000Y-71363750D01*
X156780000Y-70876250D01*
X156781174Y-70852358D01*
X156784684Y-70828697D01*
X156790496Y-70805493D01*
X156798554Y-70782971D01*
X156808782Y-70761347D01*
X156821079Y-70740830D01*
X156835329Y-70721617D01*
X156851393Y-70703893D01*
X156869117Y-70687829D01*
X156888330Y-70673579D01*
X156908847Y-70661282D01*
X156930471Y-70651054D01*
X156952993Y-70642996D01*
X156976197Y-70637184D01*
X156999858Y-70633674D01*
X157023750Y-70632500D01*
X157936250Y-70632500D01*
X157960142Y-70633674D01*
G37*
G04 #@! TD.AperFunction*
G04 #@! TA.AperFunction,SMDPad,CuDef*
G36*
X153758504Y-115309204D02*
G01*
X153782773Y-115312804D01*
X153806571Y-115318765D01*
X153829671Y-115327030D01*
X153851849Y-115337520D01*
X153872893Y-115350133D01*
X153892598Y-115364747D01*
X153910777Y-115381223D01*
X153927253Y-115399402D01*
X153941867Y-115419107D01*
X153954480Y-115440151D01*
X153964970Y-115462329D01*
X153973235Y-115485429D01*
X153979196Y-115509227D01*
X153982796Y-115533496D01*
X153984000Y-115558000D01*
X153984000Y-117658000D01*
X153982796Y-117682504D01*
X153979196Y-117706773D01*
X153973235Y-117730571D01*
X153964970Y-117753671D01*
X153954480Y-117775849D01*
X153941867Y-117796893D01*
X153927253Y-117816598D01*
X153910777Y-117834777D01*
X153892598Y-117851253D01*
X153872893Y-117865867D01*
X153851849Y-117878480D01*
X153829671Y-117888970D01*
X153806571Y-117897235D01*
X153782773Y-117903196D01*
X153758504Y-117906796D01*
X153734000Y-117908000D01*
X152634000Y-117908000D01*
X152609496Y-117906796D01*
X152585227Y-117903196D01*
X152561429Y-117897235D01*
X152538329Y-117888970D01*
X152516151Y-117878480D01*
X152495107Y-117865867D01*
X152475402Y-117851253D01*
X152457223Y-117834777D01*
X152440747Y-117816598D01*
X152426133Y-117796893D01*
X152413520Y-117775849D01*
X152403030Y-117753671D01*
X152394765Y-117730571D01*
X152388804Y-117706773D01*
X152385204Y-117682504D01*
X152384000Y-117658000D01*
X152384000Y-115558000D01*
X152385204Y-115533496D01*
X152388804Y-115509227D01*
X152394765Y-115485429D01*
X152403030Y-115462329D01*
X152413520Y-115440151D01*
X152426133Y-115419107D01*
X152440747Y-115399402D01*
X152457223Y-115381223D01*
X152475402Y-115364747D01*
X152495107Y-115350133D01*
X152516151Y-115337520D01*
X152538329Y-115327030D01*
X152561429Y-115318765D01*
X152585227Y-115312804D01*
X152609496Y-115309204D01*
X152634000Y-115308000D01*
X153734000Y-115308000D01*
X153758504Y-115309204D01*
G37*
G04 #@! TD.AperFunction*
G04 #@! TA.AperFunction,SMDPad,CuDef*
G36*
X153758504Y-111709204D02*
G01*
X153782773Y-111712804D01*
X153806571Y-111718765D01*
X153829671Y-111727030D01*
X153851849Y-111737520D01*
X153872893Y-111750133D01*
X153892598Y-111764747D01*
X153910777Y-111781223D01*
X153927253Y-111799402D01*
X153941867Y-111819107D01*
X153954480Y-111840151D01*
X153964970Y-111862329D01*
X153973235Y-111885429D01*
X153979196Y-111909227D01*
X153982796Y-111933496D01*
X153984000Y-111958000D01*
X153984000Y-114058000D01*
X153982796Y-114082504D01*
X153979196Y-114106773D01*
X153973235Y-114130571D01*
X153964970Y-114153671D01*
X153954480Y-114175849D01*
X153941867Y-114196893D01*
X153927253Y-114216598D01*
X153910777Y-114234777D01*
X153892598Y-114251253D01*
X153872893Y-114265867D01*
X153851849Y-114278480D01*
X153829671Y-114288970D01*
X153806571Y-114297235D01*
X153782773Y-114303196D01*
X153758504Y-114306796D01*
X153734000Y-114308000D01*
X152634000Y-114308000D01*
X152609496Y-114306796D01*
X152585227Y-114303196D01*
X152561429Y-114297235D01*
X152538329Y-114288970D01*
X152516151Y-114278480D01*
X152495107Y-114265867D01*
X152475402Y-114251253D01*
X152457223Y-114234777D01*
X152440747Y-114216598D01*
X152426133Y-114196893D01*
X152413520Y-114175849D01*
X152403030Y-114153671D01*
X152394765Y-114130571D01*
X152388804Y-114106773D01*
X152385204Y-114082504D01*
X152384000Y-114058000D01*
X152384000Y-111958000D01*
X152385204Y-111933496D01*
X152388804Y-111909227D01*
X152394765Y-111885429D01*
X152403030Y-111862329D01*
X152413520Y-111840151D01*
X152426133Y-111819107D01*
X152440747Y-111799402D01*
X152457223Y-111781223D01*
X152475402Y-111764747D01*
X152495107Y-111750133D01*
X152516151Y-111737520D01*
X152538329Y-111727030D01*
X152561429Y-111718765D01*
X152585227Y-111712804D01*
X152609496Y-111709204D01*
X152634000Y-111708000D01*
X153734000Y-111708000D01*
X153758504Y-111709204D01*
G37*
G04 #@! TD.AperFunction*
G04 #@! TA.AperFunction,SMDPad,CuDef*
G36*
X153736504Y-67237204D02*
G01*
X153760773Y-67240804D01*
X153784571Y-67246765D01*
X153807671Y-67255030D01*
X153829849Y-67265520D01*
X153850893Y-67278133D01*
X153870598Y-67292747D01*
X153888777Y-67309223D01*
X153905253Y-67327402D01*
X153919867Y-67347107D01*
X153932480Y-67368151D01*
X153942970Y-67390329D01*
X153951235Y-67413429D01*
X153957196Y-67437227D01*
X153960796Y-67461496D01*
X153962000Y-67486000D01*
X153962000Y-69586000D01*
X153960796Y-69610504D01*
X153957196Y-69634773D01*
X153951235Y-69658571D01*
X153942970Y-69681671D01*
X153932480Y-69703849D01*
X153919867Y-69724893D01*
X153905253Y-69744598D01*
X153888777Y-69762777D01*
X153870598Y-69779253D01*
X153850893Y-69793867D01*
X153829849Y-69806480D01*
X153807671Y-69816970D01*
X153784571Y-69825235D01*
X153760773Y-69831196D01*
X153736504Y-69834796D01*
X153712000Y-69836000D01*
X152612000Y-69836000D01*
X152587496Y-69834796D01*
X152563227Y-69831196D01*
X152539429Y-69825235D01*
X152516329Y-69816970D01*
X152494151Y-69806480D01*
X152473107Y-69793867D01*
X152453402Y-69779253D01*
X152435223Y-69762777D01*
X152418747Y-69744598D01*
X152404133Y-69724893D01*
X152391520Y-69703849D01*
X152381030Y-69681671D01*
X152372765Y-69658571D01*
X152366804Y-69634773D01*
X152363204Y-69610504D01*
X152362000Y-69586000D01*
X152362000Y-67486000D01*
X152363204Y-67461496D01*
X152366804Y-67437227D01*
X152372765Y-67413429D01*
X152381030Y-67390329D01*
X152391520Y-67368151D01*
X152404133Y-67347107D01*
X152418747Y-67327402D01*
X152435223Y-67309223D01*
X152453402Y-67292747D01*
X152473107Y-67278133D01*
X152494151Y-67265520D01*
X152516329Y-67255030D01*
X152539429Y-67246765D01*
X152563227Y-67240804D01*
X152587496Y-67237204D01*
X152612000Y-67236000D01*
X153712000Y-67236000D01*
X153736504Y-67237204D01*
G37*
G04 #@! TD.AperFunction*
G04 #@! TA.AperFunction,SMDPad,CuDef*
G36*
X153736504Y-70837204D02*
G01*
X153760773Y-70840804D01*
X153784571Y-70846765D01*
X153807671Y-70855030D01*
X153829849Y-70865520D01*
X153850893Y-70878133D01*
X153870598Y-70892747D01*
X153888777Y-70909223D01*
X153905253Y-70927402D01*
X153919867Y-70947107D01*
X153932480Y-70968151D01*
X153942970Y-70990329D01*
X153951235Y-71013429D01*
X153957196Y-71037227D01*
X153960796Y-71061496D01*
X153962000Y-71086000D01*
X153962000Y-73186000D01*
X153960796Y-73210504D01*
X153957196Y-73234773D01*
X153951235Y-73258571D01*
X153942970Y-73281671D01*
X153932480Y-73303849D01*
X153919867Y-73324893D01*
X153905253Y-73344598D01*
X153888777Y-73362777D01*
X153870598Y-73379253D01*
X153850893Y-73393867D01*
X153829849Y-73406480D01*
X153807671Y-73416970D01*
X153784571Y-73425235D01*
X153760773Y-73431196D01*
X153736504Y-73434796D01*
X153712000Y-73436000D01*
X152612000Y-73436000D01*
X152587496Y-73434796D01*
X152563227Y-73431196D01*
X152539429Y-73425235D01*
X152516329Y-73416970D01*
X152494151Y-73406480D01*
X152473107Y-73393867D01*
X152453402Y-73379253D01*
X152435223Y-73362777D01*
X152418747Y-73344598D01*
X152404133Y-73324893D01*
X152391520Y-73303849D01*
X152381030Y-73281671D01*
X152372765Y-73258571D01*
X152366804Y-73234773D01*
X152363204Y-73210504D01*
X152362000Y-73186000D01*
X152362000Y-71086000D01*
X152363204Y-71061496D01*
X152366804Y-71037227D01*
X152372765Y-71013429D01*
X152381030Y-70990329D01*
X152391520Y-70968151D01*
X152404133Y-70947107D01*
X152418747Y-70927402D01*
X152435223Y-70909223D01*
X152453402Y-70892747D01*
X152473107Y-70878133D01*
X152494151Y-70865520D01*
X152516329Y-70855030D01*
X152539429Y-70846765D01*
X152563227Y-70840804D01*
X152587496Y-70837204D01*
X152612000Y-70836000D01*
X153712000Y-70836000D01*
X153736504Y-70837204D01*
G37*
G04 #@! TD.AperFunction*
D17*
X128016000Y-69850000D03*
X128016000Y-76708000D03*
X128016000Y-85852000D03*
X132080000Y-97790000D03*
X138176000Y-97790000D03*
X143510000Y-97790000D03*
X145796000Y-77470000D03*
X145796000Y-82550000D03*
X145796000Y-87630000D03*
X165100000Y-74930000D03*
X166370000Y-108204000D03*
X159512000Y-112268000D03*
X151130000Y-111760000D03*
X150368000Y-72390000D03*
X150368000Y-67310000D03*
X158750000Y-90678000D03*
X158750000Y-93980000D03*
X151892000Y-93980000D03*
X151892000Y-90678000D03*
X153416000Y-102362000D03*
X156464000Y-82550000D03*
X120396000Y-69850000D03*
X120396000Y-76708000D03*
X120396000Y-81026000D03*
X120396000Y-85852000D03*
D18*
X124772000Y-83820000D02*
X138276000Y-70316000D01*
X115316000Y-83820000D02*
X124772000Y-83820000D01*
X138276000Y-70316000D02*
X138276000Y-92048000D01*
X138276000Y-92048000D02*
X138684000Y-92456000D01*
X156464000Y-92456000D02*
X156464000Y-88644000D01*
X156464000Y-92456000D02*
X156464000Y-96776000D01*
X143150000Y-75190000D02*
X138276000Y-70316000D01*
X152958000Y-75190000D02*
X143150000Y-75190000D01*
X153184000Y-109310000D02*
X153280000Y-109214000D01*
X153184000Y-113008000D02*
X153184000Y-109310000D01*
X151180000Y-109214000D02*
X147320000Y-105354000D01*
X153280000Y-109214000D02*
X151180000Y-109214000D01*
X138684000Y-92456000D02*
X147320000Y-92456000D01*
X147320000Y-105354000D02*
X147320000Y-92456000D01*
X147320000Y-92456000D02*
X156464000Y-92456000D01*
X154476000Y-114300000D02*
X153184000Y-113008000D01*
X156972000Y-114300000D02*
X154476000Y-114300000D01*
X152958000Y-75190000D02*
X152958000Y-72130000D01*
X154178000Y-71120000D02*
X153162000Y-72136000D01*
X157480000Y-71120000D02*
X154178000Y-71120000D01*
X162092000Y-89408000D02*
X159258000Y-86574000D01*
X164592000Y-89408000D02*
X162092000Y-89408000D01*
X159258000Y-86538000D02*
X158064000Y-85344000D01*
X158064000Y-85344000D02*
X156464000Y-85344000D01*
X156464000Y-85344000D02*
X153162000Y-85344000D01*
X153162000Y-79954000D02*
X152958000Y-79750000D01*
X153162000Y-85344000D02*
X153162000Y-79954000D01*
X153280000Y-106934000D02*
X159580000Y-106934000D01*
X151180000Y-106934000D02*
X150114000Y-105868000D01*
X153280000Y-106934000D02*
X151180000Y-106934000D01*
X150114000Y-105868000D02*
X150114000Y-100838000D01*
X150876000Y-100076000D02*
X153416000Y-100076000D01*
X150114000Y-100838000D02*
X150876000Y-100076000D01*
X153416000Y-100076000D02*
X156464000Y-100076000D01*
X164592000Y-100076000D02*
X156464000Y-100076000D01*
X115316000Y-99060000D02*
X115316000Y-92456000D01*
X115316000Y-92456000D02*
X114300000Y-91440000D01*
X144776001Y-113816001D02*
X146276000Y-115316000D01*
X136599999Y-105639999D02*
X144776001Y-113816001D01*
X116815999Y-105639999D02*
X136599999Y-105639999D01*
X115316000Y-104140000D02*
X116815999Y-105639999D01*
D19*
G36*
X152007506Y-66705463D02*
G01*
X151910815Y-66784815D01*
X151831463Y-66881506D01*
X151772498Y-66991820D01*
X151736188Y-67111518D01*
X151723928Y-67236000D01*
X151727000Y-68250250D01*
X151885750Y-68409000D01*
X153035000Y-68409000D01*
X153035000Y-68389000D01*
X153289000Y-68389000D01*
X153289000Y-68409000D01*
X154438250Y-68409000D01*
X154597000Y-68250250D01*
X154600072Y-67236000D01*
X154587812Y-67111518D01*
X154551502Y-66991820D01*
X154492537Y-66881506D01*
X154413185Y-66784815D01*
X154316494Y-66705463D01*
X154306274Y-66700000D01*
X162040394Y-66700000D01*
X162433000Y-67092606D01*
X162433000Y-71136000D01*
X162435440Y-71160776D01*
X162442667Y-71184601D01*
X162454403Y-71206557D01*
X162470197Y-71225803D01*
X163470197Y-72225803D01*
X163489443Y-72241597D01*
X163511399Y-72253333D01*
X163535224Y-72260560D01*
X163560000Y-72263000D01*
X167603394Y-72263000D01*
X167996001Y-72655607D01*
X167996000Y-112764394D01*
X167603394Y-113157000D01*
X163560000Y-113157000D01*
X163535224Y-113159440D01*
X163511399Y-113166667D01*
X163489443Y-113178403D01*
X163470197Y-113194197D01*
X162470197Y-114194197D01*
X162454403Y-114213443D01*
X162442667Y-114235399D01*
X162435440Y-114259224D01*
X162433000Y-114284000D01*
X162433000Y-118327394D01*
X162040394Y-118720000D01*
X150379606Y-118720000D01*
X149987000Y-118327394D01*
X149987000Y-117908000D01*
X151745928Y-117908000D01*
X151758188Y-118032482D01*
X151794498Y-118152180D01*
X151853463Y-118262494D01*
X151932815Y-118359185D01*
X152029506Y-118438537D01*
X152139820Y-118497502D01*
X152259518Y-118533812D01*
X152384000Y-118546072D01*
X152898250Y-118543000D01*
X153057000Y-118384250D01*
X153057000Y-116735000D01*
X153311000Y-116735000D01*
X153311000Y-118384250D01*
X153469750Y-118543000D01*
X153984000Y-118546072D01*
X154108482Y-118533812D01*
X154228180Y-118497502D01*
X154338494Y-118438537D01*
X154435185Y-118359185D01*
X154514537Y-118262494D01*
X154573502Y-118152180D01*
X154609812Y-118032482D01*
X154622072Y-117908000D01*
X154619000Y-116893750D01*
X154460250Y-116735000D01*
X153311000Y-116735000D01*
X153057000Y-116735000D01*
X151907750Y-116735000D01*
X151749000Y-116893750D01*
X151745928Y-117908000D01*
X149987000Y-117908000D01*
X149987000Y-116662500D01*
X155633928Y-116662500D01*
X155646188Y-116786982D01*
X155682498Y-116906680D01*
X155741463Y-117016994D01*
X155820815Y-117113685D01*
X155917506Y-117193037D01*
X156027820Y-117252002D01*
X156147518Y-117288312D01*
X156272000Y-117300572D01*
X156686250Y-117297500D01*
X156845000Y-117138750D01*
X156845000Y-116302000D01*
X157099000Y-116302000D01*
X157099000Y-117138750D01*
X157257750Y-117297500D01*
X157672000Y-117300572D01*
X157796482Y-117288312D01*
X157916180Y-117252002D01*
X158026494Y-117193037D01*
X158123185Y-117113685D01*
X158202537Y-117016994D01*
X158261502Y-116906680D01*
X158297812Y-116786982D01*
X158310072Y-116662500D01*
X158307000Y-116460750D01*
X158148250Y-116302000D01*
X157099000Y-116302000D01*
X156845000Y-116302000D01*
X155795750Y-116302000D01*
X155637000Y-116460750D01*
X155633928Y-116662500D01*
X149987000Y-116662500D01*
X149987000Y-109626132D01*
X150338009Y-109977141D01*
X150373551Y-110020449D01*
X150546377Y-110162284D01*
X150743553Y-110267676D01*
X150957501Y-110332577D01*
X151124248Y-110349000D01*
X151124257Y-110349000D01*
X151179999Y-110354490D01*
X151235741Y-110349000D01*
X151833856Y-110349000D01*
X151935820Y-110403502D01*
X152049001Y-110437835D01*
X152049000Y-111294780D01*
X152006038Y-111330038D01*
X151895595Y-111464614D01*
X151813528Y-111618150D01*
X151762992Y-111784746D01*
X151745928Y-111958000D01*
X151745928Y-114058000D01*
X151762992Y-114231254D01*
X151813528Y-114397850D01*
X151895595Y-114551386D01*
X152006038Y-114685962D01*
X152082813Y-114748969D01*
X152029506Y-114777463D01*
X151932815Y-114856815D01*
X151853463Y-114953506D01*
X151794498Y-115063820D01*
X151758188Y-115183518D01*
X151745928Y-115308000D01*
X151749000Y-116322250D01*
X151907750Y-116481000D01*
X153057000Y-116481000D01*
X153057000Y-116461000D01*
X153311000Y-116461000D01*
X153311000Y-116481000D01*
X154460250Y-116481000D01*
X154619000Y-116322250D01*
X154621687Y-115435000D01*
X155686945Y-115435000D01*
X155682498Y-115443320D01*
X155646188Y-115563018D01*
X155633928Y-115687500D01*
X155637000Y-115889250D01*
X155795750Y-116048000D01*
X156845000Y-116048000D01*
X156845000Y-116028000D01*
X157099000Y-116028000D01*
X157099000Y-116048000D01*
X158148250Y-116048000D01*
X158307000Y-115889250D01*
X158310072Y-115687500D01*
X158297812Y-115563018D01*
X158261502Y-115443320D01*
X158202537Y-115333006D01*
X158123185Y-115236315D01*
X158045436Y-115172508D01*
X158051792Y-115167292D01*
X158161458Y-115033664D01*
X158242947Y-114881209D01*
X158293128Y-114715785D01*
X158310072Y-114543750D01*
X158310072Y-114056250D01*
X158293128Y-113884215D01*
X158242947Y-113718791D01*
X158161458Y-113566336D01*
X158051792Y-113432708D01*
X157918164Y-113323042D01*
X157765709Y-113241553D01*
X157600285Y-113191372D01*
X157428250Y-113174428D01*
X157123477Y-113174428D01*
X157027752Y-113165000D01*
X154946132Y-113165000D01*
X154622072Y-112840941D01*
X154622072Y-111958000D01*
X154605008Y-111784746D01*
X154554472Y-111618150D01*
X154472405Y-111464614D01*
X154361962Y-111330038D01*
X154319000Y-111294780D01*
X154319000Y-110452072D01*
X154380000Y-110452072D01*
X154504482Y-110439812D01*
X154624180Y-110403502D01*
X154734494Y-110344537D01*
X154831185Y-110265185D01*
X154910537Y-110168494D01*
X154969502Y-110058180D01*
X155005812Y-109938482D01*
X155018072Y-109814000D01*
X155018072Y-108614000D01*
X155005812Y-108489518D01*
X154969502Y-108369820D01*
X154910537Y-108259506D01*
X154831185Y-108162815D01*
X154734494Y-108083463D01*
X154716790Y-108074000D01*
X154726144Y-108069000D01*
X155741928Y-108069000D01*
X155741928Y-109834000D01*
X155754188Y-109958482D01*
X155790498Y-110078180D01*
X155849463Y-110188494D01*
X155928815Y-110285185D01*
X156025506Y-110364537D01*
X156135820Y-110423502D01*
X156255518Y-110459812D01*
X156380000Y-110472072D01*
X162780000Y-110472072D01*
X162904482Y-110459812D01*
X163024180Y-110423502D01*
X163134494Y-110364537D01*
X163231185Y-110285185D01*
X163310537Y-110188494D01*
X163369502Y-110078180D01*
X163405812Y-109958482D01*
X163418072Y-109834000D01*
X163418072Y-104034000D01*
X163405812Y-103909518D01*
X163369502Y-103789820D01*
X163310537Y-103679506D01*
X163231185Y-103582815D01*
X163134494Y-103503463D01*
X163024180Y-103444498D01*
X162904482Y-103408188D01*
X162780000Y-103395928D01*
X156380000Y-103395928D01*
X156255518Y-103408188D01*
X156135820Y-103444498D01*
X156025506Y-103503463D01*
X155928815Y-103582815D01*
X155849463Y-103679506D01*
X155790498Y-103789820D01*
X155754188Y-103909518D01*
X155741928Y-104034000D01*
X155741928Y-105799000D01*
X154726144Y-105799000D01*
X154716790Y-105794000D01*
X154734494Y-105784537D01*
X154831185Y-105705185D01*
X154910537Y-105608494D01*
X154969502Y-105498180D01*
X155005812Y-105378482D01*
X155018072Y-105254000D01*
X155015000Y-104939750D01*
X154856250Y-104781000D01*
X153407000Y-104781000D01*
X153407000Y-104801000D01*
X153153000Y-104801000D01*
X153153000Y-104781000D01*
X151703750Y-104781000D01*
X151545000Y-104939750D01*
X151541928Y-105254000D01*
X151554188Y-105378482D01*
X151590498Y-105498180D01*
X151649463Y-105608494D01*
X151728815Y-105705185D01*
X151825506Y-105784537D01*
X151843210Y-105794000D01*
X151833856Y-105799000D01*
X151650132Y-105799000D01*
X151249000Y-105397868D01*
X151249000Y-104054000D01*
X151541928Y-104054000D01*
X151545000Y-104368250D01*
X151703750Y-104527000D01*
X153153000Y-104527000D01*
X153153000Y-103577750D01*
X153407000Y-103577750D01*
X153407000Y-104527000D01*
X154856250Y-104527000D01*
X155015000Y-104368250D01*
X155018072Y-104054000D01*
X155005812Y-103929518D01*
X154969502Y-103809820D01*
X154910537Y-103699506D01*
X154831185Y-103602815D01*
X154734494Y-103523463D01*
X154624180Y-103464498D01*
X154504482Y-103428188D01*
X154380000Y-103415928D01*
X153565750Y-103419000D01*
X153407000Y-103577750D01*
X153153000Y-103577750D01*
X152994250Y-103419000D01*
X152180000Y-103415928D01*
X152055518Y-103428188D01*
X151935820Y-103464498D01*
X151825506Y-103523463D01*
X151728815Y-103602815D01*
X151649463Y-103699506D01*
X151590498Y-103809820D01*
X151554188Y-103929518D01*
X151541928Y-104054000D01*
X151249000Y-104054000D01*
X151249000Y-101308131D01*
X151346132Y-101211000D01*
X162453928Y-101211000D01*
X162453928Y-101576000D01*
X162466188Y-101700482D01*
X162502498Y-101820180D01*
X162561463Y-101930494D01*
X162640815Y-102027185D01*
X162737506Y-102106537D01*
X162847820Y-102165502D01*
X162967518Y-102201812D01*
X163092000Y-102214072D01*
X166092000Y-102214072D01*
X166216482Y-102201812D01*
X166336180Y-102165502D01*
X166446494Y-102106537D01*
X166543185Y-102027185D01*
X166622537Y-101930494D01*
X166681502Y-101820180D01*
X166717812Y-101700482D01*
X166730072Y-101576000D01*
X166730072Y-98576000D01*
X166717812Y-98451518D01*
X166681502Y-98331820D01*
X166622537Y-98221506D01*
X166543185Y-98124815D01*
X166446494Y-98045463D01*
X166336180Y-97986498D01*
X166216482Y-97950188D01*
X166092000Y-97937928D01*
X163092000Y-97937928D01*
X162967518Y-97950188D01*
X162847820Y-97986498D01*
X162737506Y-98045463D01*
X162640815Y-98124815D01*
X162561463Y-98221506D01*
X162502498Y-98331820D01*
X162466188Y-98451518D01*
X162453928Y-98576000D01*
X162453928Y-98941000D01*
X154347395Y-98941000D01*
X154392537Y-98885994D01*
X154451502Y-98775680D01*
X154487812Y-98655982D01*
X154500072Y-98531500D01*
X154497000Y-98329750D01*
X154338250Y-98171000D01*
X153289000Y-98171000D01*
X153289000Y-98191000D01*
X153035000Y-98191000D01*
X153035000Y-98171000D01*
X151985750Y-98171000D01*
X151827000Y-98329750D01*
X151823928Y-98531500D01*
X151836188Y-98655982D01*
X151872498Y-98775680D01*
X151931463Y-98885994D01*
X151976605Y-98941000D01*
X150931752Y-98941000D01*
X150876000Y-98935509D01*
X150820248Y-98941000D01*
X150653501Y-98957423D01*
X150439553Y-99022324D01*
X150242377Y-99127716D01*
X150069551Y-99269551D01*
X150034008Y-99312860D01*
X149350860Y-99996009D01*
X149307552Y-100031551D01*
X149165717Y-100204377D01*
X149115408Y-100298499D01*
X149060324Y-100401554D01*
X148995423Y-100615502D01*
X148973509Y-100838000D01*
X148979001Y-100893761D01*
X148979000Y-103317394D01*
X148949803Y-103288197D01*
X148930557Y-103272403D01*
X148908601Y-103260667D01*
X148884776Y-103253440D01*
X148860000Y-103251000D01*
X148455000Y-103251000D01*
X148455000Y-97556500D01*
X151823928Y-97556500D01*
X151827000Y-97758250D01*
X151985750Y-97917000D01*
X153035000Y-97917000D01*
X153035000Y-97080250D01*
X153289000Y-97080250D01*
X153289000Y-97917000D01*
X154338250Y-97917000D01*
X154497000Y-97758250D01*
X154500072Y-97556500D01*
X154487812Y-97432018D01*
X154451502Y-97312320D01*
X154392537Y-97202006D01*
X154313185Y-97105315D01*
X154216494Y-97025963D01*
X154106180Y-96966998D01*
X153986482Y-96930688D01*
X153862000Y-96918428D01*
X153447750Y-96921500D01*
X153289000Y-97080250D01*
X153035000Y-97080250D01*
X152876250Y-96921500D01*
X152462000Y-96918428D01*
X152337518Y-96930688D01*
X152217820Y-96966998D01*
X152107506Y-97025963D01*
X152010815Y-97105315D01*
X151931463Y-97202006D01*
X151872498Y-97312320D01*
X151836188Y-97432018D01*
X151823928Y-97556500D01*
X148455000Y-97556500D01*
X148455000Y-93591000D01*
X155329000Y-93591000D01*
X155329001Y-95979854D01*
X155274498Y-96081820D01*
X155238188Y-96201518D01*
X155225928Y-96326000D01*
X155225928Y-97226000D01*
X155238188Y-97350482D01*
X155274498Y-97470180D01*
X155333463Y-97580494D01*
X155412815Y-97677185D01*
X155509506Y-97756537D01*
X155619820Y-97815502D01*
X155739518Y-97851812D01*
X155864000Y-97864072D01*
X156140941Y-97864072D01*
X156241502Y-97894577D01*
X156464000Y-97916491D01*
X156686499Y-97894577D01*
X156787060Y-97864072D01*
X157064000Y-97864072D01*
X157188482Y-97851812D01*
X157308180Y-97815502D01*
X157418494Y-97756537D01*
X157515185Y-97677185D01*
X157594537Y-97580494D01*
X157653502Y-97470180D01*
X157689812Y-97350482D01*
X157702072Y-97226000D01*
X157702072Y-96487653D01*
X163279952Y-96487653D01*
X163435962Y-96803214D01*
X163810745Y-96994020D01*
X164215551Y-97108044D01*
X164634824Y-97140902D01*
X165052451Y-97091334D01*
X165452383Y-96961243D01*
X165748038Y-96803214D01*
X165904048Y-96487653D01*
X164592000Y-95175605D01*
X163279952Y-96487653D01*
X157702072Y-96487653D01*
X157702072Y-96326000D01*
X157689812Y-96201518D01*
X157653502Y-96081820D01*
X157599000Y-95979856D01*
X157599000Y-95038824D01*
X162447098Y-95038824D01*
X162496666Y-95456451D01*
X162626757Y-95856383D01*
X162784786Y-96152038D01*
X163100347Y-96308048D01*
X164412395Y-94996000D01*
X164771605Y-94996000D01*
X166083653Y-96308048D01*
X166399214Y-96152038D01*
X166590020Y-95777255D01*
X166704044Y-95372449D01*
X166736902Y-94953176D01*
X166687334Y-94535549D01*
X166557243Y-94135617D01*
X166399214Y-93839962D01*
X166083653Y-93683952D01*
X164771605Y-94996000D01*
X164412395Y-94996000D01*
X163100347Y-93683952D01*
X162784786Y-93839962D01*
X162593980Y-94214745D01*
X162479956Y-94619551D01*
X162447098Y-95038824D01*
X157599000Y-95038824D01*
X157599000Y-93504347D01*
X163279952Y-93504347D01*
X164592000Y-94816395D01*
X165904048Y-93504347D01*
X165748038Y-93188786D01*
X165373255Y-92997980D01*
X164968449Y-92883956D01*
X164549176Y-92851098D01*
X164131549Y-92900666D01*
X163731617Y-93030757D01*
X163435962Y-93188786D01*
X163279952Y-93504347D01*
X157599000Y-93504347D01*
X157599000Y-92511751D01*
X157604491Y-92456000D01*
X157599000Y-92400248D01*
X157599000Y-89440144D01*
X157653502Y-89338180D01*
X157689812Y-89218482D01*
X157702072Y-89094000D01*
X157702072Y-88194000D01*
X157689812Y-88069518D01*
X157653502Y-87949820D01*
X157594537Y-87839506D01*
X157515185Y-87742815D01*
X157418494Y-87663463D01*
X157308180Y-87604498D01*
X157188482Y-87568188D01*
X157064000Y-87555928D01*
X156787060Y-87555928D01*
X156686499Y-87525423D01*
X156464000Y-87503509D01*
X156241502Y-87525423D01*
X156140941Y-87555928D01*
X155864000Y-87555928D01*
X155739518Y-87568188D01*
X155619820Y-87604498D01*
X155509506Y-87663463D01*
X155412815Y-87742815D01*
X155333463Y-87839506D01*
X155274498Y-87949820D01*
X155238188Y-88069518D01*
X155225928Y-88194000D01*
X155225928Y-89094000D01*
X155238188Y-89218482D01*
X155274498Y-89338180D01*
X155329001Y-89440146D01*
X155329000Y-91321000D01*
X147375752Y-91321000D01*
X147320000Y-91315509D01*
X147264249Y-91321000D01*
X139411000Y-91321000D01*
X139411000Y-87706500D01*
X151823928Y-87706500D01*
X151836188Y-87830982D01*
X151872498Y-87950680D01*
X151931463Y-88060994D01*
X152010815Y-88157685D01*
X152107506Y-88237037D01*
X152217820Y-88296002D01*
X152337518Y-88332312D01*
X152462000Y-88344572D01*
X152876250Y-88341500D01*
X153035000Y-88182750D01*
X153035000Y-87346000D01*
X153289000Y-87346000D01*
X153289000Y-88182750D01*
X153447750Y-88341500D01*
X153862000Y-88344572D01*
X153986482Y-88332312D01*
X154106180Y-88296002D01*
X154216494Y-88237037D01*
X154313185Y-88157685D01*
X154392537Y-88060994D01*
X154451502Y-87950680D01*
X154487812Y-87830982D01*
X154500072Y-87706500D01*
X154497000Y-87504750D01*
X154338250Y-87346000D01*
X153289000Y-87346000D01*
X153035000Y-87346000D01*
X151985750Y-87346000D01*
X151827000Y-87504750D01*
X151823928Y-87706500D01*
X139411000Y-87706500D01*
X139411000Y-78070000D01*
X151219928Y-78070000D01*
X151232188Y-78194482D01*
X151268498Y-78314180D01*
X151327463Y-78424494D01*
X151406815Y-78521185D01*
X151503506Y-78600537D01*
X151521210Y-78610000D01*
X151503506Y-78619463D01*
X151406815Y-78698815D01*
X151327463Y-78795506D01*
X151268498Y-78905820D01*
X151232188Y-79025518D01*
X151219928Y-79150000D01*
X151219928Y-80350000D01*
X151232188Y-80474482D01*
X151268498Y-80594180D01*
X151327463Y-80704494D01*
X151406815Y-80801185D01*
X151503506Y-80880537D01*
X151613820Y-80939502D01*
X151733518Y-80975812D01*
X151858000Y-80988072D01*
X152027001Y-80988072D01*
X152027000Y-84543979D01*
X151972542Y-84610336D01*
X151891053Y-84762791D01*
X151840872Y-84928215D01*
X151823928Y-85100250D01*
X151823928Y-85587750D01*
X151840872Y-85759785D01*
X151891053Y-85925209D01*
X151972542Y-86077664D01*
X152082208Y-86211292D01*
X152088564Y-86216508D01*
X152010815Y-86280315D01*
X151931463Y-86377006D01*
X151872498Y-86487320D01*
X151836188Y-86607018D01*
X151823928Y-86731500D01*
X151827000Y-86933250D01*
X151985750Y-87092000D01*
X153035000Y-87092000D01*
X153035000Y-87072000D01*
X153289000Y-87072000D01*
X153289000Y-87092000D01*
X154338250Y-87092000D01*
X154497000Y-86933250D01*
X154500072Y-86731500D01*
X154487812Y-86607018D01*
X154451502Y-86487320D01*
X154447055Y-86479000D01*
X157593869Y-86479000D01*
X158295050Y-87180182D01*
X158309717Y-87207622D01*
X158416012Y-87337143D01*
X161250009Y-90171141D01*
X161285551Y-90214449D01*
X161458377Y-90356284D01*
X161655553Y-90461676D01*
X161819705Y-90511471D01*
X161869500Y-90526577D01*
X161890493Y-90528644D01*
X162036248Y-90543000D01*
X162036255Y-90543000D01*
X162091999Y-90548490D01*
X162147743Y-90543000D01*
X162453928Y-90543000D01*
X162453928Y-90908000D01*
X162466188Y-91032482D01*
X162502498Y-91152180D01*
X162561463Y-91262494D01*
X162640815Y-91359185D01*
X162737506Y-91438537D01*
X162847820Y-91497502D01*
X162967518Y-91533812D01*
X163092000Y-91546072D01*
X166092000Y-91546072D01*
X166216482Y-91533812D01*
X166336180Y-91497502D01*
X166446494Y-91438537D01*
X166543185Y-91359185D01*
X166622537Y-91262494D01*
X166681502Y-91152180D01*
X166717812Y-91032482D01*
X166730072Y-90908000D01*
X166730072Y-87908000D01*
X166717812Y-87783518D01*
X166681502Y-87663820D01*
X166622537Y-87553506D01*
X166543185Y-87456815D01*
X166446494Y-87377463D01*
X166336180Y-87318498D01*
X166216482Y-87282188D01*
X166092000Y-87269928D01*
X163092000Y-87269928D01*
X162967518Y-87282188D01*
X162847820Y-87318498D01*
X162737506Y-87377463D01*
X162640815Y-87456815D01*
X162561463Y-87553506D01*
X162502498Y-87663820D01*
X162466188Y-87783518D01*
X162453928Y-87908000D01*
X162453928Y-88164796D01*
X160220952Y-85931821D01*
X160206283Y-85904377D01*
X160136752Y-85819653D01*
X163279952Y-85819653D01*
X163435962Y-86135214D01*
X163810745Y-86326020D01*
X164215551Y-86440044D01*
X164634824Y-86472902D01*
X165052451Y-86423334D01*
X165452383Y-86293243D01*
X165748038Y-86135214D01*
X165904048Y-85819653D01*
X164592000Y-84507605D01*
X163279952Y-85819653D01*
X160136752Y-85819653D01*
X160099988Y-85774856D01*
X158905996Y-84580865D01*
X158870449Y-84537551D01*
X158697623Y-84395716D01*
X158651054Y-84370824D01*
X162447098Y-84370824D01*
X162496666Y-84788451D01*
X162626757Y-85188383D01*
X162784786Y-85484038D01*
X163100347Y-85640048D01*
X164412395Y-84328000D01*
X164771605Y-84328000D01*
X166083653Y-85640048D01*
X166399214Y-85484038D01*
X166590020Y-85109255D01*
X166704044Y-84704449D01*
X166736902Y-84285176D01*
X166687334Y-83867549D01*
X166557243Y-83467617D01*
X166399214Y-83171962D01*
X166083653Y-83015952D01*
X164771605Y-84328000D01*
X164412395Y-84328000D01*
X163100347Y-83015952D01*
X162784786Y-83171962D01*
X162593980Y-83546745D01*
X162479956Y-83951551D01*
X162447098Y-84370824D01*
X158651054Y-84370824D01*
X158500447Y-84290324D01*
X158286499Y-84225423D01*
X158119752Y-84209000D01*
X158119751Y-84209000D01*
X158064000Y-84203509D01*
X158008249Y-84209000D01*
X154297000Y-84209000D01*
X154297000Y-82836347D01*
X163279952Y-82836347D01*
X164592000Y-84148395D01*
X165904048Y-82836347D01*
X165748038Y-82520786D01*
X165373255Y-82329980D01*
X164968449Y-82215956D01*
X164549176Y-82183098D01*
X164131549Y-82232666D01*
X163731617Y-82362757D01*
X163435962Y-82520786D01*
X163279952Y-82836347D01*
X154297000Y-82836347D01*
X154297000Y-80941073D01*
X154302180Y-80939502D01*
X154412494Y-80880537D01*
X154509185Y-80801185D01*
X154588537Y-80704494D01*
X154647502Y-80594180D01*
X154683812Y-80474482D01*
X154694102Y-80370000D01*
X155419928Y-80370000D01*
X155432188Y-80494482D01*
X155468498Y-80614180D01*
X155527463Y-80724494D01*
X155606815Y-80821185D01*
X155703506Y-80900537D01*
X155813820Y-80959502D01*
X155933518Y-80995812D01*
X156058000Y-81008072D01*
X158972250Y-81005000D01*
X159131000Y-80846250D01*
X159131000Y-77597000D01*
X159385000Y-77597000D01*
X159385000Y-80846250D01*
X159543750Y-81005000D01*
X162458000Y-81008072D01*
X162582482Y-80995812D01*
X162702180Y-80959502D01*
X162812494Y-80900537D01*
X162909185Y-80821185D01*
X162988537Y-80724494D01*
X163047502Y-80614180D01*
X163083812Y-80494482D01*
X163096072Y-80370000D01*
X163093000Y-77755750D01*
X162934250Y-77597000D01*
X159385000Y-77597000D01*
X159131000Y-77597000D01*
X155581750Y-77597000D01*
X155423000Y-77755750D01*
X155419928Y-80370000D01*
X154694102Y-80370000D01*
X154696072Y-80350000D01*
X154696072Y-79150000D01*
X154683812Y-79025518D01*
X154647502Y-78905820D01*
X154588537Y-78795506D01*
X154509185Y-78698815D01*
X154412494Y-78619463D01*
X154394790Y-78610000D01*
X154412494Y-78600537D01*
X154509185Y-78521185D01*
X154588537Y-78424494D01*
X154647502Y-78314180D01*
X154683812Y-78194482D01*
X154696072Y-78070000D01*
X154693000Y-77755750D01*
X154534250Y-77597000D01*
X153085000Y-77597000D01*
X153085000Y-77617000D01*
X152831000Y-77617000D01*
X152831000Y-77597000D01*
X151381750Y-77597000D01*
X151223000Y-77755750D01*
X151219928Y-78070000D01*
X139411000Y-78070000D01*
X139411000Y-73056131D01*
X142308009Y-75953141D01*
X142343551Y-75996449D01*
X142516377Y-76138284D01*
X142713553Y-76243676D01*
X142927501Y-76308577D01*
X143150000Y-76330491D01*
X143205751Y-76325000D01*
X151511856Y-76325000D01*
X151521210Y-76330000D01*
X151503506Y-76339463D01*
X151406815Y-76418815D01*
X151327463Y-76515506D01*
X151268498Y-76625820D01*
X151232188Y-76745518D01*
X151219928Y-76870000D01*
X151223000Y-77184250D01*
X151381750Y-77343000D01*
X152831000Y-77343000D01*
X152831000Y-77323000D01*
X153085000Y-77323000D01*
X153085000Y-77343000D01*
X154534250Y-77343000D01*
X154693000Y-77184250D01*
X154696072Y-76870000D01*
X154683812Y-76745518D01*
X154647502Y-76625820D01*
X154588537Y-76515506D01*
X154509185Y-76418815D01*
X154412494Y-76339463D01*
X154394790Y-76330000D01*
X154412494Y-76320537D01*
X154509185Y-76241185D01*
X154588537Y-76144494D01*
X154647502Y-76034180D01*
X154683812Y-75914482D01*
X154696072Y-75790000D01*
X154696072Y-74590000D01*
X154694103Y-74570000D01*
X155419928Y-74570000D01*
X155423000Y-77184250D01*
X155581750Y-77343000D01*
X159131000Y-77343000D01*
X159131000Y-74093750D01*
X159385000Y-74093750D01*
X159385000Y-77343000D01*
X162934250Y-77343000D01*
X163093000Y-77184250D01*
X163096072Y-74570000D01*
X163083812Y-74445518D01*
X163047502Y-74325820D01*
X162988537Y-74215506D01*
X162909185Y-74118815D01*
X162812494Y-74039463D01*
X162702180Y-73980498D01*
X162582482Y-73944188D01*
X162458000Y-73931928D01*
X159543750Y-73935000D01*
X159385000Y-74093750D01*
X159131000Y-74093750D01*
X158972250Y-73935000D01*
X156058000Y-73931928D01*
X155933518Y-73944188D01*
X155813820Y-73980498D01*
X155703506Y-74039463D01*
X155606815Y-74118815D01*
X155527463Y-74215506D01*
X155468498Y-74325820D01*
X155432188Y-74445518D01*
X155419928Y-74570000D01*
X154694103Y-74570000D01*
X154683812Y-74465518D01*
X154647502Y-74345820D01*
X154588537Y-74235506D01*
X154509185Y-74138815D01*
X154412494Y-74059463D01*
X154302180Y-74000498D01*
X154182482Y-73964188D01*
X154138974Y-73959903D01*
X154205386Y-73924405D01*
X154339962Y-73813962D01*
X154450405Y-73679386D01*
X154532472Y-73525850D01*
X154583008Y-73359254D01*
X154600072Y-73186000D01*
X154600072Y-72303060D01*
X154648132Y-72255000D01*
X157535752Y-72255000D01*
X157631477Y-72245572D01*
X157936250Y-72245572D01*
X158108285Y-72228628D01*
X158273709Y-72178447D01*
X158426164Y-72096958D01*
X158559792Y-71987292D01*
X158669458Y-71853664D01*
X158750947Y-71701209D01*
X158801128Y-71535785D01*
X158818072Y-71363750D01*
X158818072Y-70876250D01*
X158801128Y-70704215D01*
X158750947Y-70538791D01*
X158669458Y-70386336D01*
X158559792Y-70252708D01*
X158553436Y-70247492D01*
X158631185Y-70183685D01*
X158710537Y-70086994D01*
X158769502Y-69976680D01*
X158805812Y-69856982D01*
X158818072Y-69732500D01*
X158815000Y-69530750D01*
X158656250Y-69372000D01*
X157607000Y-69372000D01*
X157607000Y-69392000D01*
X157353000Y-69392000D01*
X157353000Y-69372000D01*
X156303750Y-69372000D01*
X156145000Y-69530750D01*
X156141928Y-69732500D01*
X156154188Y-69856982D01*
X156190498Y-69976680D01*
X156194945Y-69985000D01*
X154580375Y-69985000D01*
X154587812Y-69960482D01*
X154600072Y-69836000D01*
X154597000Y-68821750D01*
X154532750Y-68757500D01*
X156141928Y-68757500D01*
X156145000Y-68959250D01*
X156303750Y-69118000D01*
X157353000Y-69118000D01*
X157353000Y-68281250D01*
X157607000Y-68281250D01*
X157607000Y-69118000D01*
X158656250Y-69118000D01*
X158815000Y-68959250D01*
X158818072Y-68757500D01*
X158805812Y-68633018D01*
X158769502Y-68513320D01*
X158710537Y-68403006D01*
X158631185Y-68306315D01*
X158534494Y-68226963D01*
X158424180Y-68167998D01*
X158304482Y-68131688D01*
X158180000Y-68119428D01*
X157765750Y-68122500D01*
X157607000Y-68281250D01*
X157353000Y-68281250D01*
X157194250Y-68122500D01*
X156780000Y-68119428D01*
X156655518Y-68131688D01*
X156535820Y-68167998D01*
X156425506Y-68226963D01*
X156328815Y-68306315D01*
X156249463Y-68403006D01*
X156190498Y-68513320D01*
X156154188Y-68633018D01*
X156141928Y-68757500D01*
X154532750Y-68757500D01*
X154438250Y-68663000D01*
X153289000Y-68663000D01*
X153289000Y-68683000D01*
X153035000Y-68683000D01*
X153035000Y-68663000D01*
X151885750Y-68663000D01*
X151727000Y-68821750D01*
X151723928Y-69836000D01*
X151736188Y-69960482D01*
X151772498Y-70080180D01*
X151831463Y-70190494D01*
X151910815Y-70287185D01*
X152007506Y-70366537D01*
X152060813Y-70395031D01*
X151984038Y-70458038D01*
X151873595Y-70592614D01*
X151791528Y-70746150D01*
X151740992Y-70912746D01*
X151723928Y-71086000D01*
X151723928Y-73186000D01*
X151740992Y-73359254D01*
X151791528Y-73525850D01*
X151823001Y-73584731D01*
X151823000Y-73955375D01*
X151733518Y-73964188D01*
X151613820Y-74000498D01*
X151511856Y-74055000D01*
X143620132Y-74055000D01*
X141372785Y-71807653D01*
X144963952Y-71807653D01*
X145119962Y-72123214D01*
X145494745Y-72314020D01*
X145899551Y-72428044D01*
X146318824Y-72460902D01*
X146736451Y-72411334D01*
X147136383Y-72281243D01*
X147432038Y-72123214D01*
X147588048Y-71807653D01*
X146276000Y-70495605D01*
X144963952Y-71807653D01*
X141372785Y-71807653D01*
X140357977Y-70792845D01*
X140411000Y-70526279D01*
X140411000Y-70358824D01*
X144131098Y-70358824D01*
X144180666Y-70776451D01*
X144310757Y-71176383D01*
X144468786Y-71472038D01*
X144784347Y-71628048D01*
X146096395Y-70316000D01*
X146455605Y-70316000D01*
X147767653Y-71628048D01*
X148083214Y-71472038D01*
X148274020Y-71097255D01*
X148388044Y-70692449D01*
X148420902Y-70273176D01*
X148371334Y-69855549D01*
X148241243Y-69455617D01*
X148083214Y-69159962D01*
X147767653Y-69003952D01*
X146455605Y-70316000D01*
X146096395Y-70316000D01*
X144784347Y-69003952D01*
X144468786Y-69159962D01*
X144277980Y-69534745D01*
X144163956Y-69939551D01*
X144131098Y-70358824D01*
X140411000Y-70358824D01*
X140411000Y-70105721D01*
X140328953Y-69693244D01*
X140168012Y-69304698D01*
X139934363Y-68955017D01*
X139803693Y-68824347D01*
X144963952Y-68824347D01*
X146276000Y-70136395D01*
X147588048Y-68824347D01*
X147432038Y-68508786D01*
X147057255Y-68317980D01*
X146652449Y-68203956D01*
X146233176Y-68171098D01*
X145815549Y-68220666D01*
X145415617Y-68350757D01*
X145119962Y-68508786D01*
X144963952Y-68824347D01*
X139803693Y-68824347D01*
X139636983Y-68657637D01*
X139287302Y-68423988D01*
X138898756Y-68263047D01*
X138486279Y-68181000D01*
X138065721Y-68181000D01*
X137653244Y-68263047D01*
X137264698Y-68423988D01*
X136915017Y-68657637D01*
X136617637Y-68955017D01*
X136383988Y-69304698D01*
X136223047Y-69693244D01*
X136141000Y-70105721D01*
X136141000Y-70526279D01*
X136194023Y-70792845D01*
X124301869Y-82685000D01*
X117125360Y-82685000D01*
X116974363Y-82459017D01*
X116676983Y-82161637D01*
X116327302Y-81927988D01*
X115938756Y-81767047D01*
X115526279Y-81685000D01*
X115105721Y-81685000D01*
X114693244Y-81767047D01*
X114304698Y-81927988D01*
X113955017Y-82161637D01*
X113657637Y-82459017D01*
X113423988Y-82808698D01*
X113263047Y-83197244D01*
X113181000Y-83609721D01*
X113181000Y-84030279D01*
X113263047Y-84442756D01*
X113423988Y-84831302D01*
X113657637Y-85180983D01*
X113955017Y-85478363D01*
X114304698Y-85712012D01*
X114693244Y-85872953D01*
X115105721Y-85955000D01*
X115526279Y-85955000D01*
X115938756Y-85872953D01*
X116327302Y-85712012D01*
X116676983Y-85478363D01*
X116974363Y-85180983D01*
X117125360Y-84955000D01*
X124716249Y-84955000D01*
X124772000Y-84960491D01*
X124827751Y-84955000D01*
X124827752Y-84955000D01*
X124994499Y-84938577D01*
X125208447Y-84873676D01*
X125405623Y-84768284D01*
X125578449Y-84626449D01*
X125613996Y-84583135D01*
X137141000Y-73056132D01*
X137141001Y-91992238D01*
X137135509Y-92048000D01*
X137157423Y-92270498D01*
X137222324Y-92484446D01*
X137271384Y-92576230D01*
X137327717Y-92681623D01*
X137469552Y-92854449D01*
X137512860Y-92889991D01*
X137842004Y-93219135D01*
X137877551Y-93262449D01*
X138050377Y-93404284D01*
X138247553Y-93509676D01*
X138421106Y-93562323D01*
X138461500Y-93574577D01*
X138683999Y-93596491D01*
X138739751Y-93591000D01*
X146185001Y-93591000D01*
X146185000Y-103251000D01*
X129067986Y-103251000D01*
X128125452Y-102324043D01*
X127905646Y-89135745D01*
X127902794Y-89111012D01*
X127895171Y-89087312D01*
X127883070Y-89065554D01*
X127867715Y-89047313D01*
X126851051Y-88047452D01*
X126831675Y-88031819D01*
X126809621Y-88020266D01*
X126785738Y-88013238D01*
X126762000Y-88011000D01*
X112304606Y-88011000D01*
X111912000Y-87618394D01*
X111912000Y-80240000D01*
X113177928Y-80240000D01*
X113190188Y-80364482D01*
X113226498Y-80484180D01*
X113285463Y-80594494D01*
X113364815Y-80691185D01*
X113461506Y-80770537D01*
X113571820Y-80829502D01*
X113691518Y-80865812D01*
X113816000Y-80878072D01*
X115030250Y-80875000D01*
X115189000Y-80716250D01*
X115189000Y-78867000D01*
X115443000Y-78867000D01*
X115443000Y-80716250D01*
X115601750Y-80875000D01*
X116816000Y-80878072D01*
X116940482Y-80865812D01*
X117060180Y-80829502D01*
X117170494Y-80770537D01*
X117267185Y-80691185D01*
X117346537Y-80594494D01*
X117405502Y-80484180D01*
X117441812Y-80364482D01*
X117454072Y-80240000D01*
X117451000Y-79025750D01*
X117292250Y-78867000D01*
X115443000Y-78867000D01*
X115189000Y-78867000D01*
X113339750Y-78867000D01*
X113181000Y-79025750D01*
X113177928Y-80240000D01*
X111912000Y-80240000D01*
X111912000Y-77240000D01*
X113177928Y-77240000D01*
X113181000Y-78454250D01*
X113339750Y-78613000D01*
X115189000Y-78613000D01*
X115189000Y-76763750D01*
X115443000Y-76763750D01*
X115443000Y-78613000D01*
X117292250Y-78613000D01*
X117451000Y-78454250D01*
X117454072Y-77240000D01*
X117441812Y-77115518D01*
X117405502Y-76995820D01*
X117346537Y-76885506D01*
X117267185Y-76788815D01*
X117170494Y-76709463D01*
X117060180Y-76650498D01*
X116940482Y-76614188D01*
X116816000Y-76601928D01*
X115601750Y-76605000D01*
X115443000Y-76763750D01*
X115189000Y-76763750D01*
X115030250Y-76605000D01*
X113816000Y-76601928D01*
X113691518Y-76614188D01*
X113571820Y-76650498D01*
X113461506Y-76709463D01*
X113364815Y-76788815D01*
X113285463Y-76885506D01*
X113226498Y-76995820D01*
X113190188Y-77115518D01*
X113177928Y-77240000D01*
X111912000Y-77240000D01*
X111912000Y-72655606D01*
X112304606Y-72263000D01*
X116348000Y-72263000D01*
X116372776Y-72260560D01*
X116396601Y-72253333D01*
X116418557Y-72241597D01*
X116437803Y-72225803D01*
X117437803Y-71225803D01*
X117453597Y-71206557D01*
X117465333Y-71184601D01*
X117472560Y-71160776D01*
X117475000Y-71136000D01*
X117475000Y-67092606D01*
X117867606Y-66700000D01*
X152017726Y-66700000D01*
X152007506Y-66705463D01*
G37*
X152007506Y-66705463D02*
X151910815Y-66784815D01*
X151831463Y-66881506D01*
X151772498Y-66991820D01*
X151736188Y-67111518D01*
X151723928Y-67236000D01*
X151727000Y-68250250D01*
X151885750Y-68409000D01*
X153035000Y-68409000D01*
X153035000Y-68389000D01*
X153289000Y-68389000D01*
X153289000Y-68409000D01*
X154438250Y-68409000D01*
X154597000Y-68250250D01*
X154600072Y-67236000D01*
X154587812Y-67111518D01*
X154551502Y-66991820D01*
X154492537Y-66881506D01*
X154413185Y-66784815D01*
X154316494Y-66705463D01*
X154306274Y-66700000D01*
X162040394Y-66700000D01*
X162433000Y-67092606D01*
X162433000Y-71136000D01*
X162435440Y-71160776D01*
X162442667Y-71184601D01*
X162454403Y-71206557D01*
X162470197Y-71225803D01*
X163470197Y-72225803D01*
X163489443Y-72241597D01*
X163511399Y-72253333D01*
X163535224Y-72260560D01*
X163560000Y-72263000D01*
X167603394Y-72263000D01*
X167996001Y-72655607D01*
X167996000Y-112764394D01*
X167603394Y-113157000D01*
X163560000Y-113157000D01*
X163535224Y-113159440D01*
X163511399Y-113166667D01*
X163489443Y-113178403D01*
X163470197Y-113194197D01*
X162470197Y-114194197D01*
X162454403Y-114213443D01*
X162442667Y-114235399D01*
X162435440Y-114259224D01*
X162433000Y-114284000D01*
X162433000Y-118327394D01*
X162040394Y-118720000D01*
X150379606Y-118720000D01*
X149987000Y-118327394D01*
X149987000Y-117908000D01*
X151745928Y-117908000D01*
X151758188Y-118032482D01*
X151794498Y-118152180D01*
X151853463Y-118262494D01*
X151932815Y-118359185D01*
X152029506Y-118438537D01*
X152139820Y-118497502D01*
X152259518Y-118533812D01*
X152384000Y-118546072D01*
X152898250Y-118543000D01*
X153057000Y-118384250D01*
X153057000Y-116735000D01*
X153311000Y-116735000D01*
X153311000Y-118384250D01*
X153469750Y-118543000D01*
X153984000Y-118546072D01*
X154108482Y-118533812D01*
X154228180Y-118497502D01*
X154338494Y-118438537D01*
X154435185Y-118359185D01*
X154514537Y-118262494D01*
X154573502Y-118152180D01*
X154609812Y-118032482D01*
X154622072Y-117908000D01*
X154619000Y-116893750D01*
X154460250Y-116735000D01*
X153311000Y-116735000D01*
X153057000Y-116735000D01*
X151907750Y-116735000D01*
X151749000Y-116893750D01*
X151745928Y-117908000D01*
X149987000Y-117908000D01*
X149987000Y-116662500D01*
X155633928Y-116662500D01*
X155646188Y-116786982D01*
X155682498Y-116906680D01*
X155741463Y-117016994D01*
X155820815Y-117113685D01*
X155917506Y-117193037D01*
X156027820Y-117252002D01*
X156147518Y-117288312D01*
X156272000Y-117300572D01*
X156686250Y-117297500D01*
X156845000Y-117138750D01*
X156845000Y-116302000D01*
X157099000Y-116302000D01*
X157099000Y-117138750D01*
X157257750Y-117297500D01*
X157672000Y-117300572D01*
X157796482Y-117288312D01*
X157916180Y-117252002D01*
X158026494Y-117193037D01*
X158123185Y-117113685D01*
X158202537Y-117016994D01*
X158261502Y-116906680D01*
X158297812Y-116786982D01*
X158310072Y-116662500D01*
X158307000Y-116460750D01*
X158148250Y-116302000D01*
X157099000Y-116302000D01*
X156845000Y-116302000D01*
X155795750Y-116302000D01*
X155637000Y-116460750D01*
X155633928Y-116662500D01*
X149987000Y-116662500D01*
X149987000Y-109626132D01*
X150338009Y-109977141D01*
X150373551Y-110020449D01*
X150546377Y-110162284D01*
X150743553Y-110267676D01*
X150957501Y-110332577D01*
X151124248Y-110349000D01*
X151124257Y-110349000D01*
X151179999Y-110354490D01*
X151235741Y-110349000D01*
X151833856Y-110349000D01*
X151935820Y-110403502D01*
X152049001Y-110437835D01*
X152049000Y-111294780D01*
X152006038Y-111330038D01*
X151895595Y-111464614D01*
X151813528Y-111618150D01*
X151762992Y-111784746D01*
X151745928Y-111958000D01*
X151745928Y-114058000D01*
X151762992Y-114231254D01*
X151813528Y-114397850D01*
X151895595Y-114551386D01*
X152006038Y-114685962D01*
X152082813Y-114748969D01*
X152029506Y-114777463D01*
X151932815Y-114856815D01*
X151853463Y-114953506D01*
X151794498Y-115063820D01*
X151758188Y-115183518D01*
X151745928Y-115308000D01*
X151749000Y-116322250D01*
X151907750Y-116481000D01*
X153057000Y-116481000D01*
X153057000Y-116461000D01*
X153311000Y-116461000D01*
X153311000Y-116481000D01*
X154460250Y-116481000D01*
X154619000Y-116322250D01*
X154621687Y-115435000D01*
X155686945Y-115435000D01*
X155682498Y-115443320D01*
X155646188Y-115563018D01*
X155633928Y-115687500D01*
X155637000Y-115889250D01*
X155795750Y-116048000D01*
X156845000Y-116048000D01*
X156845000Y-116028000D01*
X157099000Y-116028000D01*
X157099000Y-116048000D01*
X158148250Y-116048000D01*
X158307000Y-115889250D01*
X158310072Y-115687500D01*
X158297812Y-115563018D01*
X158261502Y-115443320D01*
X158202537Y-115333006D01*
X158123185Y-115236315D01*
X158045436Y-115172508D01*
X158051792Y-115167292D01*
X158161458Y-115033664D01*
X158242947Y-114881209D01*
X158293128Y-114715785D01*
X158310072Y-114543750D01*
X158310072Y-114056250D01*
X158293128Y-113884215D01*
X158242947Y-113718791D01*
X158161458Y-113566336D01*
X158051792Y-113432708D01*
X157918164Y-113323042D01*
X157765709Y-113241553D01*
X157600285Y-113191372D01*
X157428250Y-113174428D01*
X157123477Y-113174428D01*
X157027752Y-113165000D01*
X154946132Y-113165000D01*
X154622072Y-112840941D01*
X154622072Y-111958000D01*
X154605008Y-111784746D01*
X154554472Y-111618150D01*
X154472405Y-111464614D01*
X154361962Y-111330038D01*
X154319000Y-111294780D01*
X154319000Y-110452072D01*
X154380000Y-110452072D01*
X154504482Y-110439812D01*
X154624180Y-110403502D01*
X154734494Y-110344537D01*
X154831185Y-110265185D01*
X154910537Y-110168494D01*
X154969502Y-110058180D01*
X155005812Y-109938482D01*
X155018072Y-109814000D01*
X155018072Y-108614000D01*
X155005812Y-108489518D01*
X154969502Y-108369820D01*
X154910537Y-108259506D01*
X154831185Y-108162815D01*
X154734494Y-108083463D01*
X154716790Y-108074000D01*
X154726144Y-108069000D01*
X155741928Y-108069000D01*
X155741928Y-109834000D01*
X155754188Y-109958482D01*
X155790498Y-110078180D01*
X155849463Y-110188494D01*
X155928815Y-110285185D01*
X156025506Y-110364537D01*
X156135820Y-110423502D01*
X156255518Y-110459812D01*
X156380000Y-110472072D01*
X162780000Y-110472072D01*
X162904482Y-110459812D01*
X163024180Y-110423502D01*
X163134494Y-110364537D01*
X163231185Y-110285185D01*
X163310537Y-110188494D01*
X163369502Y-110078180D01*
X163405812Y-109958482D01*
X163418072Y-109834000D01*
X163418072Y-104034000D01*
X163405812Y-103909518D01*
X163369502Y-103789820D01*
X163310537Y-103679506D01*
X163231185Y-103582815D01*
X163134494Y-103503463D01*
X163024180Y-103444498D01*
X162904482Y-103408188D01*
X162780000Y-103395928D01*
X156380000Y-103395928D01*
X156255518Y-103408188D01*
X156135820Y-103444498D01*
X156025506Y-103503463D01*
X155928815Y-103582815D01*
X155849463Y-103679506D01*
X155790498Y-103789820D01*
X155754188Y-103909518D01*
X155741928Y-104034000D01*
X155741928Y-105799000D01*
X154726144Y-105799000D01*
X154716790Y-105794000D01*
X154734494Y-105784537D01*
X154831185Y-105705185D01*
X154910537Y-105608494D01*
X154969502Y-105498180D01*
X155005812Y-105378482D01*
X155018072Y-105254000D01*
X155015000Y-104939750D01*
X154856250Y-104781000D01*
X153407000Y-104781000D01*
X153407000Y-104801000D01*
X153153000Y-104801000D01*
X153153000Y-104781000D01*
X151703750Y-104781000D01*
X151545000Y-104939750D01*
X151541928Y-105254000D01*
X151554188Y-105378482D01*
X151590498Y-105498180D01*
X151649463Y-105608494D01*
X151728815Y-105705185D01*
X151825506Y-105784537D01*
X151843210Y-105794000D01*
X151833856Y-105799000D01*
X151650132Y-105799000D01*
X151249000Y-105397868D01*
X151249000Y-104054000D01*
X151541928Y-104054000D01*
X151545000Y-104368250D01*
X151703750Y-104527000D01*
X153153000Y-104527000D01*
X153153000Y-103577750D01*
X153407000Y-103577750D01*
X153407000Y-104527000D01*
X154856250Y-104527000D01*
X155015000Y-104368250D01*
X155018072Y-104054000D01*
X155005812Y-103929518D01*
X154969502Y-103809820D01*
X154910537Y-103699506D01*
X154831185Y-103602815D01*
X154734494Y-103523463D01*
X154624180Y-103464498D01*
X154504482Y-103428188D01*
X154380000Y-103415928D01*
X153565750Y-103419000D01*
X153407000Y-103577750D01*
X153153000Y-103577750D01*
X152994250Y-103419000D01*
X152180000Y-103415928D01*
X152055518Y-103428188D01*
X151935820Y-103464498D01*
X151825506Y-103523463D01*
X151728815Y-103602815D01*
X151649463Y-103699506D01*
X151590498Y-103809820D01*
X151554188Y-103929518D01*
X151541928Y-104054000D01*
X151249000Y-104054000D01*
X151249000Y-101308131D01*
X151346132Y-101211000D01*
X162453928Y-101211000D01*
X162453928Y-101576000D01*
X162466188Y-101700482D01*
X162502498Y-101820180D01*
X162561463Y-101930494D01*
X162640815Y-102027185D01*
X162737506Y-102106537D01*
X162847820Y-102165502D01*
X162967518Y-102201812D01*
X163092000Y-102214072D01*
X166092000Y-102214072D01*
X166216482Y-102201812D01*
X166336180Y-102165502D01*
X166446494Y-102106537D01*
X166543185Y-102027185D01*
X166622537Y-101930494D01*
X166681502Y-101820180D01*
X166717812Y-101700482D01*
X166730072Y-101576000D01*
X166730072Y-98576000D01*
X166717812Y-98451518D01*
X166681502Y-98331820D01*
X166622537Y-98221506D01*
X166543185Y-98124815D01*
X166446494Y-98045463D01*
X166336180Y-97986498D01*
X166216482Y-97950188D01*
X166092000Y-97937928D01*
X163092000Y-97937928D01*
X162967518Y-97950188D01*
X162847820Y-97986498D01*
X162737506Y-98045463D01*
X162640815Y-98124815D01*
X162561463Y-98221506D01*
X162502498Y-98331820D01*
X162466188Y-98451518D01*
X162453928Y-98576000D01*
X162453928Y-98941000D01*
X154347395Y-98941000D01*
X154392537Y-98885994D01*
X154451502Y-98775680D01*
X154487812Y-98655982D01*
X154500072Y-98531500D01*
X154497000Y-98329750D01*
X154338250Y-98171000D01*
X153289000Y-98171000D01*
X153289000Y-98191000D01*
X153035000Y-98191000D01*
X153035000Y-98171000D01*
X151985750Y-98171000D01*
X151827000Y-98329750D01*
X151823928Y-98531500D01*
X151836188Y-98655982D01*
X151872498Y-98775680D01*
X151931463Y-98885994D01*
X151976605Y-98941000D01*
X150931752Y-98941000D01*
X150876000Y-98935509D01*
X150820248Y-98941000D01*
X150653501Y-98957423D01*
X150439553Y-99022324D01*
X150242377Y-99127716D01*
X150069551Y-99269551D01*
X150034008Y-99312860D01*
X149350860Y-99996009D01*
X149307552Y-100031551D01*
X149165717Y-100204377D01*
X149115408Y-100298499D01*
X149060324Y-100401554D01*
X148995423Y-100615502D01*
X148973509Y-100838000D01*
X148979001Y-100893761D01*
X148979000Y-103317394D01*
X148949803Y-103288197D01*
X148930557Y-103272403D01*
X148908601Y-103260667D01*
X148884776Y-103253440D01*
X148860000Y-103251000D01*
X148455000Y-103251000D01*
X148455000Y-97556500D01*
X151823928Y-97556500D01*
X151827000Y-97758250D01*
X151985750Y-97917000D01*
X153035000Y-97917000D01*
X153035000Y-97080250D01*
X153289000Y-97080250D01*
X153289000Y-97917000D01*
X154338250Y-97917000D01*
X154497000Y-97758250D01*
X154500072Y-97556500D01*
X154487812Y-97432018D01*
X154451502Y-97312320D01*
X154392537Y-97202006D01*
X154313185Y-97105315D01*
X154216494Y-97025963D01*
X154106180Y-96966998D01*
X153986482Y-96930688D01*
X153862000Y-96918428D01*
X153447750Y-96921500D01*
X153289000Y-97080250D01*
X153035000Y-97080250D01*
X152876250Y-96921500D01*
X152462000Y-96918428D01*
X152337518Y-96930688D01*
X152217820Y-96966998D01*
X152107506Y-97025963D01*
X152010815Y-97105315D01*
X151931463Y-97202006D01*
X151872498Y-97312320D01*
X151836188Y-97432018D01*
X151823928Y-97556500D01*
X148455000Y-97556500D01*
X148455000Y-93591000D01*
X155329000Y-93591000D01*
X155329001Y-95979854D01*
X155274498Y-96081820D01*
X155238188Y-96201518D01*
X155225928Y-96326000D01*
X155225928Y-97226000D01*
X155238188Y-97350482D01*
X155274498Y-97470180D01*
X155333463Y-97580494D01*
X155412815Y-97677185D01*
X155509506Y-97756537D01*
X155619820Y-97815502D01*
X155739518Y-97851812D01*
X155864000Y-97864072D01*
X156140941Y-97864072D01*
X156241502Y-97894577D01*
X156464000Y-97916491D01*
X156686499Y-97894577D01*
X156787060Y-97864072D01*
X157064000Y-97864072D01*
X157188482Y-97851812D01*
X157308180Y-97815502D01*
X157418494Y-97756537D01*
X157515185Y-97677185D01*
X157594537Y-97580494D01*
X157653502Y-97470180D01*
X157689812Y-97350482D01*
X157702072Y-97226000D01*
X157702072Y-96487653D01*
X163279952Y-96487653D01*
X163435962Y-96803214D01*
X163810745Y-96994020D01*
X164215551Y-97108044D01*
X164634824Y-97140902D01*
X165052451Y-97091334D01*
X165452383Y-96961243D01*
X165748038Y-96803214D01*
X165904048Y-96487653D01*
X164592000Y-95175605D01*
X163279952Y-96487653D01*
X157702072Y-96487653D01*
X157702072Y-96326000D01*
X157689812Y-96201518D01*
X157653502Y-96081820D01*
X157599000Y-95979856D01*
X157599000Y-95038824D01*
X162447098Y-95038824D01*
X162496666Y-95456451D01*
X162626757Y-95856383D01*
X162784786Y-96152038D01*
X163100347Y-96308048D01*
X164412395Y-94996000D01*
X164771605Y-94996000D01*
X166083653Y-96308048D01*
X166399214Y-96152038D01*
X166590020Y-95777255D01*
X166704044Y-95372449D01*
X166736902Y-94953176D01*
X166687334Y-94535549D01*
X166557243Y-94135617D01*
X166399214Y-93839962D01*
X166083653Y-93683952D01*
X164771605Y-94996000D01*
X164412395Y-94996000D01*
X163100347Y-93683952D01*
X162784786Y-93839962D01*
X162593980Y-94214745D01*
X162479956Y-94619551D01*
X162447098Y-95038824D01*
X157599000Y-95038824D01*
X157599000Y-93504347D01*
X163279952Y-93504347D01*
X164592000Y-94816395D01*
X165904048Y-93504347D01*
X165748038Y-93188786D01*
X165373255Y-92997980D01*
X164968449Y-92883956D01*
X164549176Y-92851098D01*
X164131549Y-92900666D01*
X163731617Y-93030757D01*
X163435962Y-93188786D01*
X163279952Y-93504347D01*
X157599000Y-93504347D01*
X157599000Y-92511751D01*
X157604491Y-92456000D01*
X157599000Y-92400248D01*
X157599000Y-89440144D01*
X157653502Y-89338180D01*
X157689812Y-89218482D01*
X157702072Y-89094000D01*
X157702072Y-88194000D01*
X157689812Y-88069518D01*
X157653502Y-87949820D01*
X157594537Y-87839506D01*
X157515185Y-87742815D01*
X157418494Y-87663463D01*
X157308180Y-87604498D01*
X157188482Y-87568188D01*
X157064000Y-87555928D01*
X156787060Y-87555928D01*
X156686499Y-87525423D01*
X156464000Y-87503509D01*
X156241502Y-87525423D01*
X156140941Y-87555928D01*
X155864000Y-87555928D01*
X155739518Y-87568188D01*
X155619820Y-87604498D01*
X155509506Y-87663463D01*
X155412815Y-87742815D01*
X155333463Y-87839506D01*
X155274498Y-87949820D01*
X155238188Y-88069518D01*
X155225928Y-88194000D01*
X155225928Y-89094000D01*
X155238188Y-89218482D01*
X155274498Y-89338180D01*
X155329001Y-89440146D01*
X155329000Y-91321000D01*
X147375752Y-91321000D01*
X147320000Y-91315509D01*
X147264249Y-91321000D01*
X139411000Y-91321000D01*
X139411000Y-87706500D01*
X151823928Y-87706500D01*
X151836188Y-87830982D01*
X151872498Y-87950680D01*
X151931463Y-88060994D01*
X152010815Y-88157685D01*
X152107506Y-88237037D01*
X152217820Y-88296002D01*
X152337518Y-88332312D01*
X152462000Y-88344572D01*
X152876250Y-88341500D01*
X153035000Y-88182750D01*
X153035000Y-87346000D01*
X153289000Y-87346000D01*
X153289000Y-88182750D01*
X153447750Y-88341500D01*
X153862000Y-88344572D01*
X153986482Y-88332312D01*
X154106180Y-88296002D01*
X154216494Y-88237037D01*
X154313185Y-88157685D01*
X154392537Y-88060994D01*
X154451502Y-87950680D01*
X154487812Y-87830982D01*
X154500072Y-87706500D01*
X154497000Y-87504750D01*
X154338250Y-87346000D01*
X153289000Y-87346000D01*
X153035000Y-87346000D01*
X151985750Y-87346000D01*
X151827000Y-87504750D01*
X151823928Y-87706500D01*
X139411000Y-87706500D01*
X139411000Y-78070000D01*
X151219928Y-78070000D01*
X151232188Y-78194482D01*
X151268498Y-78314180D01*
X151327463Y-78424494D01*
X151406815Y-78521185D01*
X151503506Y-78600537D01*
X151521210Y-78610000D01*
X151503506Y-78619463D01*
X151406815Y-78698815D01*
X151327463Y-78795506D01*
X151268498Y-78905820D01*
X151232188Y-79025518D01*
X151219928Y-79150000D01*
X151219928Y-80350000D01*
X151232188Y-80474482D01*
X151268498Y-80594180D01*
X151327463Y-80704494D01*
X151406815Y-80801185D01*
X151503506Y-80880537D01*
X151613820Y-80939502D01*
X151733518Y-80975812D01*
X151858000Y-80988072D01*
X152027001Y-80988072D01*
X152027000Y-84543979D01*
X151972542Y-84610336D01*
X151891053Y-84762791D01*
X151840872Y-84928215D01*
X151823928Y-85100250D01*
X151823928Y-85587750D01*
X151840872Y-85759785D01*
X151891053Y-85925209D01*
X151972542Y-86077664D01*
X152082208Y-86211292D01*
X152088564Y-86216508D01*
X152010815Y-86280315D01*
X151931463Y-86377006D01*
X151872498Y-86487320D01*
X151836188Y-86607018D01*
X151823928Y-86731500D01*
X151827000Y-86933250D01*
X151985750Y-87092000D01*
X153035000Y-87092000D01*
X153035000Y-87072000D01*
X153289000Y-87072000D01*
X153289000Y-87092000D01*
X154338250Y-87092000D01*
X154497000Y-86933250D01*
X154500072Y-86731500D01*
X154487812Y-86607018D01*
X154451502Y-86487320D01*
X154447055Y-86479000D01*
X157593869Y-86479000D01*
X158295050Y-87180182D01*
X158309717Y-87207622D01*
X158416012Y-87337143D01*
X161250009Y-90171141D01*
X161285551Y-90214449D01*
X161458377Y-90356284D01*
X161655553Y-90461676D01*
X161819705Y-90511471D01*
X161869500Y-90526577D01*
X161890493Y-90528644D01*
X162036248Y-90543000D01*
X162036255Y-90543000D01*
X162091999Y-90548490D01*
X162147743Y-90543000D01*
X162453928Y-90543000D01*
X162453928Y-90908000D01*
X162466188Y-91032482D01*
X162502498Y-91152180D01*
X162561463Y-91262494D01*
X162640815Y-91359185D01*
X162737506Y-91438537D01*
X162847820Y-91497502D01*
X162967518Y-91533812D01*
X163092000Y-91546072D01*
X166092000Y-91546072D01*
X166216482Y-91533812D01*
X166336180Y-91497502D01*
X166446494Y-91438537D01*
X166543185Y-91359185D01*
X166622537Y-91262494D01*
X166681502Y-91152180D01*
X166717812Y-91032482D01*
X166730072Y-90908000D01*
X166730072Y-87908000D01*
X166717812Y-87783518D01*
X166681502Y-87663820D01*
X166622537Y-87553506D01*
X166543185Y-87456815D01*
X166446494Y-87377463D01*
X166336180Y-87318498D01*
X166216482Y-87282188D01*
X166092000Y-87269928D01*
X163092000Y-87269928D01*
X162967518Y-87282188D01*
X162847820Y-87318498D01*
X162737506Y-87377463D01*
X162640815Y-87456815D01*
X162561463Y-87553506D01*
X162502498Y-87663820D01*
X162466188Y-87783518D01*
X162453928Y-87908000D01*
X162453928Y-88164796D01*
X160220952Y-85931821D01*
X160206283Y-85904377D01*
X160136752Y-85819653D01*
X163279952Y-85819653D01*
X163435962Y-86135214D01*
X163810745Y-86326020D01*
X164215551Y-86440044D01*
X164634824Y-86472902D01*
X165052451Y-86423334D01*
X165452383Y-86293243D01*
X165748038Y-86135214D01*
X165904048Y-85819653D01*
X164592000Y-84507605D01*
X163279952Y-85819653D01*
X160136752Y-85819653D01*
X160099988Y-85774856D01*
X158905996Y-84580865D01*
X158870449Y-84537551D01*
X158697623Y-84395716D01*
X158651054Y-84370824D01*
X162447098Y-84370824D01*
X162496666Y-84788451D01*
X162626757Y-85188383D01*
X162784786Y-85484038D01*
X163100347Y-85640048D01*
X164412395Y-84328000D01*
X164771605Y-84328000D01*
X166083653Y-85640048D01*
X166399214Y-85484038D01*
X166590020Y-85109255D01*
X166704044Y-84704449D01*
X166736902Y-84285176D01*
X166687334Y-83867549D01*
X166557243Y-83467617D01*
X166399214Y-83171962D01*
X166083653Y-83015952D01*
X164771605Y-84328000D01*
X164412395Y-84328000D01*
X163100347Y-83015952D01*
X162784786Y-83171962D01*
X162593980Y-83546745D01*
X162479956Y-83951551D01*
X162447098Y-84370824D01*
X158651054Y-84370824D01*
X158500447Y-84290324D01*
X158286499Y-84225423D01*
X158119752Y-84209000D01*
X158119751Y-84209000D01*
X158064000Y-84203509D01*
X158008249Y-84209000D01*
X154297000Y-84209000D01*
X154297000Y-82836347D01*
X163279952Y-82836347D01*
X164592000Y-84148395D01*
X165904048Y-82836347D01*
X165748038Y-82520786D01*
X165373255Y-82329980D01*
X164968449Y-82215956D01*
X164549176Y-82183098D01*
X164131549Y-82232666D01*
X163731617Y-82362757D01*
X163435962Y-82520786D01*
X163279952Y-82836347D01*
X154297000Y-82836347D01*
X154297000Y-80941073D01*
X154302180Y-80939502D01*
X154412494Y-80880537D01*
X154509185Y-80801185D01*
X154588537Y-80704494D01*
X154647502Y-80594180D01*
X154683812Y-80474482D01*
X154694102Y-80370000D01*
X155419928Y-80370000D01*
X155432188Y-80494482D01*
X155468498Y-80614180D01*
X155527463Y-80724494D01*
X155606815Y-80821185D01*
X155703506Y-80900537D01*
X155813820Y-80959502D01*
X155933518Y-80995812D01*
X156058000Y-81008072D01*
X158972250Y-81005000D01*
X159131000Y-80846250D01*
X159131000Y-77597000D01*
X159385000Y-77597000D01*
X159385000Y-80846250D01*
X159543750Y-81005000D01*
X162458000Y-81008072D01*
X162582482Y-80995812D01*
X162702180Y-80959502D01*
X162812494Y-80900537D01*
X162909185Y-80821185D01*
X162988537Y-80724494D01*
X163047502Y-80614180D01*
X163083812Y-80494482D01*
X163096072Y-80370000D01*
X163093000Y-77755750D01*
X162934250Y-77597000D01*
X159385000Y-77597000D01*
X159131000Y-77597000D01*
X155581750Y-77597000D01*
X155423000Y-77755750D01*
X155419928Y-80370000D01*
X154694102Y-80370000D01*
X154696072Y-80350000D01*
X154696072Y-79150000D01*
X154683812Y-79025518D01*
X154647502Y-78905820D01*
X154588537Y-78795506D01*
X154509185Y-78698815D01*
X154412494Y-78619463D01*
X154394790Y-78610000D01*
X154412494Y-78600537D01*
X154509185Y-78521185D01*
X154588537Y-78424494D01*
X154647502Y-78314180D01*
X154683812Y-78194482D01*
X154696072Y-78070000D01*
X154693000Y-77755750D01*
X154534250Y-77597000D01*
X153085000Y-77597000D01*
X153085000Y-77617000D01*
X152831000Y-77617000D01*
X152831000Y-77597000D01*
X151381750Y-77597000D01*
X151223000Y-77755750D01*
X151219928Y-78070000D01*
X139411000Y-78070000D01*
X139411000Y-73056131D01*
X142308009Y-75953141D01*
X142343551Y-75996449D01*
X142516377Y-76138284D01*
X142713553Y-76243676D01*
X142927501Y-76308577D01*
X143150000Y-76330491D01*
X143205751Y-76325000D01*
X151511856Y-76325000D01*
X151521210Y-76330000D01*
X151503506Y-76339463D01*
X151406815Y-76418815D01*
X151327463Y-76515506D01*
X151268498Y-76625820D01*
X151232188Y-76745518D01*
X151219928Y-76870000D01*
X151223000Y-77184250D01*
X151381750Y-77343000D01*
X152831000Y-77343000D01*
X152831000Y-77323000D01*
X153085000Y-77323000D01*
X153085000Y-77343000D01*
X154534250Y-77343000D01*
X154693000Y-77184250D01*
X154696072Y-76870000D01*
X154683812Y-76745518D01*
X154647502Y-76625820D01*
X154588537Y-76515506D01*
X154509185Y-76418815D01*
X154412494Y-76339463D01*
X154394790Y-76330000D01*
X154412494Y-76320537D01*
X154509185Y-76241185D01*
X154588537Y-76144494D01*
X154647502Y-76034180D01*
X154683812Y-75914482D01*
X154696072Y-75790000D01*
X154696072Y-74590000D01*
X154694103Y-74570000D01*
X155419928Y-74570000D01*
X155423000Y-77184250D01*
X155581750Y-77343000D01*
X159131000Y-77343000D01*
X159131000Y-74093750D01*
X159385000Y-74093750D01*
X159385000Y-77343000D01*
X162934250Y-77343000D01*
X163093000Y-77184250D01*
X163096072Y-74570000D01*
X163083812Y-74445518D01*
X163047502Y-74325820D01*
X162988537Y-74215506D01*
X162909185Y-74118815D01*
X162812494Y-74039463D01*
X162702180Y-73980498D01*
X162582482Y-73944188D01*
X162458000Y-73931928D01*
X159543750Y-73935000D01*
X159385000Y-74093750D01*
X159131000Y-74093750D01*
X158972250Y-73935000D01*
X156058000Y-73931928D01*
X155933518Y-73944188D01*
X155813820Y-73980498D01*
X155703506Y-74039463D01*
X155606815Y-74118815D01*
X155527463Y-74215506D01*
X155468498Y-74325820D01*
X155432188Y-74445518D01*
X155419928Y-74570000D01*
X154694103Y-74570000D01*
X154683812Y-74465518D01*
X154647502Y-74345820D01*
X154588537Y-74235506D01*
X154509185Y-74138815D01*
X154412494Y-74059463D01*
X154302180Y-74000498D01*
X154182482Y-73964188D01*
X154138974Y-73959903D01*
X154205386Y-73924405D01*
X154339962Y-73813962D01*
X154450405Y-73679386D01*
X154532472Y-73525850D01*
X154583008Y-73359254D01*
X154600072Y-73186000D01*
X154600072Y-72303060D01*
X154648132Y-72255000D01*
X157535752Y-72255000D01*
X157631477Y-72245572D01*
X157936250Y-72245572D01*
X158108285Y-72228628D01*
X158273709Y-72178447D01*
X158426164Y-72096958D01*
X158559792Y-71987292D01*
X158669458Y-71853664D01*
X158750947Y-71701209D01*
X158801128Y-71535785D01*
X158818072Y-71363750D01*
X158818072Y-70876250D01*
X158801128Y-70704215D01*
X158750947Y-70538791D01*
X158669458Y-70386336D01*
X158559792Y-70252708D01*
X158553436Y-70247492D01*
X158631185Y-70183685D01*
X158710537Y-70086994D01*
X158769502Y-69976680D01*
X158805812Y-69856982D01*
X158818072Y-69732500D01*
X158815000Y-69530750D01*
X158656250Y-69372000D01*
X157607000Y-69372000D01*
X157607000Y-69392000D01*
X157353000Y-69392000D01*
X157353000Y-69372000D01*
X156303750Y-69372000D01*
X156145000Y-69530750D01*
X156141928Y-69732500D01*
X156154188Y-69856982D01*
X156190498Y-69976680D01*
X156194945Y-69985000D01*
X154580375Y-69985000D01*
X154587812Y-69960482D01*
X154600072Y-69836000D01*
X154597000Y-68821750D01*
X154532750Y-68757500D01*
X156141928Y-68757500D01*
X156145000Y-68959250D01*
X156303750Y-69118000D01*
X157353000Y-69118000D01*
X157353000Y-68281250D01*
X157607000Y-68281250D01*
X157607000Y-69118000D01*
X158656250Y-69118000D01*
X158815000Y-68959250D01*
X158818072Y-68757500D01*
X158805812Y-68633018D01*
X158769502Y-68513320D01*
X158710537Y-68403006D01*
X158631185Y-68306315D01*
X158534494Y-68226963D01*
X158424180Y-68167998D01*
X158304482Y-68131688D01*
X158180000Y-68119428D01*
X157765750Y-68122500D01*
X157607000Y-68281250D01*
X157353000Y-68281250D01*
X157194250Y-68122500D01*
X156780000Y-68119428D01*
X156655518Y-68131688D01*
X156535820Y-68167998D01*
X156425506Y-68226963D01*
X156328815Y-68306315D01*
X156249463Y-68403006D01*
X156190498Y-68513320D01*
X156154188Y-68633018D01*
X156141928Y-68757500D01*
X154532750Y-68757500D01*
X154438250Y-68663000D01*
X153289000Y-68663000D01*
X153289000Y-68683000D01*
X153035000Y-68683000D01*
X153035000Y-68663000D01*
X151885750Y-68663000D01*
X151727000Y-68821750D01*
X151723928Y-69836000D01*
X151736188Y-69960482D01*
X151772498Y-70080180D01*
X151831463Y-70190494D01*
X151910815Y-70287185D01*
X152007506Y-70366537D01*
X152060813Y-70395031D01*
X151984038Y-70458038D01*
X151873595Y-70592614D01*
X151791528Y-70746150D01*
X151740992Y-70912746D01*
X151723928Y-71086000D01*
X151723928Y-73186000D01*
X151740992Y-73359254D01*
X151791528Y-73525850D01*
X151823001Y-73584731D01*
X151823000Y-73955375D01*
X151733518Y-73964188D01*
X151613820Y-74000498D01*
X151511856Y-74055000D01*
X143620132Y-74055000D01*
X141372785Y-71807653D01*
X144963952Y-71807653D01*
X145119962Y-72123214D01*
X145494745Y-72314020D01*
X145899551Y-72428044D01*
X146318824Y-72460902D01*
X146736451Y-72411334D01*
X147136383Y-72281243D01*
X147432038Y-72123214D01*
X147588048Y-71807653D01*
X146276000Y-70495605D01*
X144963952Y-71807653D01*
X141372785Y-71807653D01*
X140357977Y-70792845D01*
X140411000Y-70526279D01*
X140411000Y-70358824D01*
X144131098Y-70358824D01*
X144180666Y-70776451D01*
X144310757Y-71176383D01*
X144468786Y-71472038D01*
X144784347Y-71628048D01*
X146096395Y-70316000D01*
X146455605Y-70316000D01*
X147767653Y-71628048D01*
X148083214Y-71472038D01*
X148274020Y-71097255D01*
X148388044Y-70692449D01*
X148420902Y-70273176D01*
X148371334Y-69855549D01*
X148241243Y-69455617D01*
X148083214Y-69159962D01*
X147767653Y-69003952D01*
X146455605Y-70316000D01*
X146096395Y-70316000D01*
X144784347Y-69003952D01*
X144468786Y-69159962D01*
X144277980Y-69534745D01*
X144163956Y-69939551D01*
X144131098Y-70358824D01*
X140411000Y-70358824D01*
X140411000Y-70105721D01*
X140328953Y-69693244D01*
X140168012Y-69304698D01*
X139934363Y-68955017D01*
X139803693Y-68824347D01*
X144963952Y-68824347D01*
X146276000Y-70136395D01*
X147588048Y-68824347D01*
X147432038Y-68508786D01*
X147057255Y-68317980D01*
X146652449Y-68203956D01*
X146233176Y-68171098D01*
X145815549Y-68220666D01*
X145415617Y-68350757D01*
X145119962Y-68508786D01*
X144963952Y-68824347D01*
X139803693Y-68824347D01*
X139636983Y-68657637D01*
X139287302Y-68423988D01*
X138898756Y-68263047D01*
X138486279Y-68181000D01*
X138065721Y-68181000D01*
X137653244Y-68263047D01*
X137264698Y-68423988D01*
X136915017Y-68657637D01*
X136617637Y-68955017D01*
X136383988Y-69304698D01*
X136223047Y-69693244D01*
X136141000Y-70105721D01*
X136141000Y-70526279D01*
X136194023Y-70792845D01*
X124301869Y-82685000D01*
X117125360Y-82685000D01*
X116974363Y-82459017D01*
X116676983Y-82161637D01*
X116327302Y-81927988D01*
X115938756Y-81767047D01*
X115526279Y-81685000D01*
X115105721Y-81685000D01*
X114693244Y-81767047D01*
X114304698Y-81927988D01*
X113955017Y-82161637D01*
X113657637Y-82459017D01*
X113423988Y-82808698D01*
X113263047Y-83197244D01*
X113181000Y-83609721D01*
X113181000Y-84030279D01*
X113263047Y-84442756D01*
X113423988Y-84831302D01*
X113657637Y-85180983D01*
X113955017Y-85478363D01*
X114304698Y-85712012D01*
X114693244Y-85872953D01*
X115105721Y-85955000D01*
X115526279Y-85955000D01*
X115938756Y-85872953D01*
X116327302Y-85712012D01*
X116676983Y-85478363D01*
X116974363Y-85180983D01*
X117125360Y-84955000D01*
X124716249Y-84955000D01*
X124772000Y-84960491D01*
X124827751Y-84955000D01*
X124827752Y-84955000D01*
X124994499Y-84938577D01*
X125208447Y-84873676D01*
X125405623Y-84768284D01*
X125578449Y-84626449D01*
X125613996Y-84583135D01*
X137141000Y-73056132D01*
X137141001Y-91992238D01*
X137135509Y-92048000D01*
X137157423Y-92270498D01*
X137222324Y-92484446D01*
X137271384Y-92576230D01*
X137327717Y-92681623D01*
X137469552Y-92854449D01*
X137512860Y-92889991D01*
X137842004Y-93219135D01*
X137877551Y-93262449D01*
X138050377Y-93404284D01*
X138247553Y-93509676D01*
X138421106Y-93562323D01*
X138461500Y-93574577D01*
X138683999Y-93596491D01*
X138739751Y-93591000D01*
X146185001Y-93591000D01*
X146185000Y-103251000D01*
X129067986Y-103251000D01*
X128125452Y-102324043D01*
X127905646Y-89135745D01*
X127902794Y-89111012D01*
X127895171Y-89087312D01*
X127883070Y-89065554D01*
X127867715Y-89047313D01*
X126851051Y-88047452D01*
X126831675Y-88031819D01*
X126809621Y-88020266D01*
X126785738Y-88013238D01*
X126762000Y-88011000D01*
X112304606Y-88011000D01*
X111912000Y-87618394D01*
X111912000Y-80240000D01*
X113177928Y-80240000D01*
X113190188Y-80364482D01*
X113226498Y-80484180D01*
X113285463Y-80594494D01*
X113364815Y-80691185D01*
X113461506Y-80770537D01*
X113571820Y-80829502D01*
X113691518Y-80865812D01*
X113816000Y-80878072D01*
X115030250Y-80875000D01*
X115189000Y-80716250D01*
X115189000Y-78867000D01*
X115443000Y-78867000D01*
X115443000Y-80716250D01*
X115601750Y-80875000D01*
X116816000Y-80878072D01*
X116940482Y-80865812D01*
X117060180Y-80829502D01*
X117170494Y-80770537D01*
X117267185Y-80691185D01*
X117346537Y-80594494D01*
X117405502Y-80484180D01*
X117441812Y-80364482D01*
X117454072Y-80240000D01*
X117451000Y-79025750D01*
X117292250Y-78867000D01*
X115443000Y-78867000D01*
X115189000Y-78867000D01*
X113339750Y-78867000D01*
X113181000Y-79025750D01*
X113177928Y-80240000D01*
X111912000Y-80240000D01*
X111912000Y-77240000D01*
X113177928Y-77240000D01*
X113181000Y-78454250D01*
X113339750Y-78613000D01*
X115189000Y-78613000D01*
X115189000Y-76763750D01*
X115443000Y-76763750D01*
X115443000Y-78613000D01*
X117292250Y-78613000D01*
X117451000Y-78454250D01*
X117454072Y-77240000D01*
X117441812Y-77115518D01*
X117405502Y-76995820D01*
X117346537Y-76885506D01*
X117267185Y-76788815D01*
X117170494Y-76709463D01*
X117060180Y-76650498D01*
X116940482Y-76614188D01*
X116816000Y-76601928D01*
X115601750Y-76605000D01*
X115443000Y-76763750D01*
X115189000Y-76763750D01*
X115030250Y-76605000D01*
X113816000Y-76601928D01*
X113691518Y-76614188D01*
X113571820Y-76650498D01*
X113461506Y-76709463D01*
X113364815Y-76788815D01*
X113285463Y-76885506D01*
X113226498Y-76995820D01*
X113190188Y-77115518D01*
X113177928Y-77240000D01*
X111912000Y-77240000D01*
X111912000Y-72655606D01*
X112304606Y-72263000D01*
X116348000Y-72263000D01*
X116372776Y-72260560D01*
X116396601Y-72253333D01*
X116418557Y-72241597D01*
X116437803Y-72225803D01*
X117437803Y-71225803D01*
X117453597Y-71206557D01*
X117465333Y-71184601D01*
X117472560Y-71160776D01*
X117475000Y-71136000D01*
X117475000Y-67092606D01*
X117867606Y-66700000D01*
X152017726Y-66700000D01*
X152007506Y-66705463D01*
M02*
