G04 #@! TF.GenerationSoftware,KiCad,Pcbnew,5.1.5-52549c5~84~ubuntu18.04.1*
G04 #@! TF.CreationDate,2020-05-16T16:19:51-04:00*
G04 #@! TF.ProjectId,PWR_SUPPLY,5057525f-5355-4505-904c-592e6b696361,rev?*
G04 #@! TF.SameCoordinates,Original*
G04 #@! TF.FileFunction,Copper,L2,Bot*
G04 #@! TF.FilePolarity,Positive*
%FSLAX46Y46*%
G04 Gerber Fmt 4.6, Leading zero omitted, Abs format (unit mm)*
G04 Created by KiCad (PCBNEW 5.1.5-52549c5~84~ubuntu18.04.1) date 2020-05-16 16:19:51*
%MOMM*%
%LPD*%
G04 APERTURE LIST*
%ADD10R,3.000000X3.000000*%
%ADD11C,3.000000*%
%ADD12C,2.010000*%
%ADD13C,0.800000*%
%ADD14C,1.000000*%
%ADD15C,0.254000*%
G04 APERTURE END LIST*
D10*
X125476000Y-115316000D03*
D11*
X138276000Y-70316000D03*
X146276000Y-115316000D03*
X146276000Y-70316000D03*
X164592000Y-94996000D03*
D10*
X164592000Y-100076000D03*
D11*
X164592000Y-84328000D03*
D10*
X164592000Y-89408000D03*
D11*
X115316000Y-83820000D03*
D10*
X115316000Y-78740000D03*
D11*
X115316000Y-104140000D03*
D10*
X115316000Y-99060000D03*
D12*
X114026000Y-91440000D03*
X119126000Y-92640000D03*
D13*
X128016000Y-69850000D03*
X128016000Y-76708000D03*
X128016000Y-85852000D03*
X132080000Y-97790000D03*
X138176000Y-97790000D03*
X143510000Y-97790000D03*
X145796000Y-77470000D03*
X145796000Y-82550000D03*
X145796000Y-87630000D03*
X165100000Y-74930000D03*
X166370000Y-108204000D03*
X159512000Y-112268000D03*
X151130000Y-111760000D03*
X150368000Y-72390000D03*
X150368000Y-67310000D03*
X158750000Y-90678000D03*
X158750000Y-93980000D03*
X151892000Y-93980000D03*
X151892000Y-90678000D03*
X153416000Y-102362000D03*
X156464000Y-82550000D03*
X120396000Y-69850000D03*
X120396000Y-76708000D03*
X120396000Y-81026000D03*
X120396000Y-85852000D03*
D14*
X122866000Y-92640000D02*
X125476000Y-95250000D01*
X119400000Y-92640000D02*
X122866000Y-92640000D01*
X125476000Y-95250000D02*
X125476000Y-115316000D01*
D15*
G36*
X162433000Y-67092606D02*
G01*
X162433000Y-71136000D01*
X162435440Y-71160776D01*
X162442667Y-71184601D01*
X162454403Y-71206557D01*
X162470197Y-71225803D01*
X163470197Y-72225803D01*
X163489443Y-72241597D01*
X163511399Y-72253333D01*
X163535224Y-72260560D01*
X163560000Y-72263000D01*
X167603394Y-72263000D01*
X167996001Y-72655607D01*
X167996000Y-112764394D01*
X167603394Y-113157000D01*
X163560000Y-113157000D01*
X163535224Y-113159440D01*
X163511399Y-113166667D01*
X163489443Y-113178403D01*
X163470197Y-113194197D01*
X162470197Y-114194197D01*
X162454403Y-114213443D01*
X162442667Y-114235399D01*
X162435440Y-114259224D01*
X162433000Y-114284000D01*
X162433000Y-118327394D01*
X162040394Y-118720000D01*
X150379606Y-118720000D01*
X149987000Y-118327394D01*
X149987000Y-104378000D01*
X149984560Y-104353224D01*
X149977333Y-104329399D01*
X149965597Y-104307443D01*
X149949803Y-104288197D01*
X148949803Y-103288197D01*
X148930557Y-103272403D01*
X148908601Y-103260667D01*
X148884776Y-103253440D01*
X148860000Y-103251000D01*
X129067986Y-103251000D01*
X128125452Y-102324043D01*
X128062985Y-98576000D01*
X162453928Y-98576000D01*
X162453928Y-101576000D01*
X162466188Y-101700482D01*
X162502498Y-101820180D01*
X162561463Y-101930494D01*
X162640815Y-102027185D01*
X162737506Y-102106537D01*
X162847820Y-102165502D01*
X162967518Y-102201812D01*
X163092000Y-102214072D01*
X166092000Y-102214072D01*
X166216482Y-102201812D01*
X166336180Y-102165502D01*
X166446494Y-102106537D01*
X166543185Y-102027185D01*
X166622537Y-101930494D01*
X166681502Y-101820180D01*
X166717812Y-101700482D01*
X166730072Y-101576000D01*
X166730072Y-98576000D01*
X166717812Y-98451518D01*
X166681502Y-98331820D01*
X166622537Y-98221506D01*
X166543185Y-98124815D01*
X166446494Y-98045463D01*
X166336180Y-97986498D01*
X166216482Y-97950188D01*
X166092000Y-97937928D01*
X163092000Y-97937928D01*
X162967518Y-97950188D01*
X162847820Y-97986498D01*
X162737506Y-98045463D01*
X162640815Y-98124815D01*
X162561463Y-98221506D01*
X162502498Y-98331820D01*
X162466188Y-98451518D01*
X162453928Y-98576000D01*
X128062985Y-98576000D01*
X128028180Y-96487653D01*
X163279952Y-96487653D01*
X163435962Y-96803214D01*
X163810745Y-96994020D01*
X164215551Y-97108044D01*
X164634824Y-97140902D01*
X165052451Y-97091334D01*
X165452383Y-96961243D01*
X165748038Y-96803214D01*
X165904048Y-96487653D01*
X164592000Y-95175605D01*
X163279952Y-96487653D01*
X128028180Y-96487653D01*
X128004032Y-95038824D01*
X162447098Y-95038824D01*
X162496666Y-95456451D01*
X162626757Y-95856383D01*
X162784786Y-96152038D01*
X163100347Y-96308048D01*
X164412395Y-94996000D01*
X164771605Y-94996000D01*
X166083653Y-96308048D01*
X166399214Y-96152038D01*
X166590020Y-95777255D01*
X166704044Y-95372449D01*
X166736902Y-94953176D01*
X166687334Y-94535549D01*
X166557243Y-94135617D01*
X166399214Y-93839962D01*
X166083653Y-93683952D01*
X164771605Y-94996000D01*
X164412395Y-94996000D01*
X163100347Y-93683952D01*
X162784786Y-93839962D01*
X162593980Y-94214745D01*
X162479956Y-94619551D01*
X162447098Y-95038824D01*
X128004032Y-95038824D01*
X127978458Y-93504347D01*
X163279952Y-93504347D01*
X164592000Y-94816395D01*
X165904048Y-93504347D01*
X165748038Y-93188786D01*
X165373255Y-92997980D01*
X164968449Y-92883956D01*
X164549176Y-92851098D01*
X164131549Y-92900666D01*
X163731617Y-93030757D01*
X163435962Y-93188786D01*
X163279952Y-93504347D01*
X127978458Y-93504347D01*
X127905646Y-89135745D01*
X127902794Y-89111012D01*
X127895171Y-89087312D01*
X127883070Y-89065554D01*
X127867715Y-89047313D01*
X126851051Y-88047452D01*
X126831675Y-88031819D01*
X126809621Y-88020266D01*
X126785738Y-88013238D01*
X126762000Y-88011000D01*
X112304606Y-88011000D01*
X112201606Y-87908000D01*
X162453928Y-87908000D01*
X162453928Y-90908000D01*
X162466188Y-91032482D01*
X162502498Y-91152180D01*
X162561463Y-91262494D01*
X162640815Y-91359185D01*
X162737506Y-91438537D01*
X162847820Y-91497502D01*
X162967518Y-91533812D01*
X163092000Y-91546072D01*
X166092000Y-91546072D01*
X166216482Y-91533812D01*
X166336180Y-91497502D01*
X166446494Y-91438537D01*
X166543185Y-91359185D01*
X166622537Y-91262494D01*
X166681502Y-91152180D01*
X166717812Y-91032482D01*
X166730072Y-90908000D01*
X166730072Y-87908000D01*
X166717812Y-87783518D01*
X166681502Y-87663820D01*
X166622537Y-87553506D01*
X166543185Y-87456815D01*
X166446494Y-87377463D01*
X166336180Y-87318498D01*
X166216482Y-87282188D01*
X166092000Y-87269928D01*
X163092000Y-87269928D01*
X162967518Y-87282188D01*
X162847820Y-87318498D01*
X162737506Y-87377463D01*
X162640815Y-87456815D01*
X162561463Y-87553506D01*
X162502498Y-87663820D01*
X162466188Y-87783518D01*
X162453928Y-87908000D01*
X112201606Y-87908000D01*
X111912000Y-87618394D01*
X111912000Y-83609721D01*
X113181000Y-83609721D01*
X113181000Y-84030279D01*
X113263047Y-84442756D01*
X113423988Y-84831302D01*
X113657637Y-85180983D01*
X113955017Y-85478363D01*
X114304698Y-85712012D01*
X114693244Y-85872953D01*
X115105721Y-85955000D01*
X115526279Y-85955000D01*
X115938756Y-85872953D01*
X116067433Y-85819653D01*
X163279952Y-85819653D01*
X163435962Y-86135214D01*
X163810745Y-86326020D01*
X164215551Y-86440044D01*
X164634824Y-86472902D01*
X165052451Y-86423334D01*
X165452383Y-86293243D01*
X165748038Y-86135214D01*
X165904048Y-85819653D01*
X164592000Y-84507605D01*
X163279952Y-85819653D01*
X116067433Y-85819653D01*
X116327302Y-85712012D01*
X116676983Y-85478363D01*
X116974363Y-85180983D01*
X117208012Y-84831302D01*
X117368953Y-84442756D01*
X117383261Y-84370824D01*
X162447098Y-84370824D01*
X162496666Y-84788451D01*
X162626757Y-85188383D01*
X162784786Y-85484038D01*
X163100347Y-85640048D01*
X164412395Y-84328000D01*
X164771605Y-84328000D01*
X166083653Y-85640048D01*
X166399214Y-85484038D01*
X166590020Y-85109255D01*
X166704044Y-84704449D01*
X166736902Y-84285176D01*
X166687334Y-83867549D01*
X166557243Y-83467617D01*
X166399214Y-83171962D01*
X166083653Y-83015952D01*
X164771605Y-84328000D01*
X164412395Y-84328000D01*
X163100347Y-83015952D01*
X162784786Y-83171962D01*
X162593980Y-83546745D01*
X162479956Y-83951551D01*
X162447098Y-84370824D01*
X117383261Y-84370824D01*
X117451000Y-84030279D01*
X117451000Y-83609721D01*
X117368953Y-83197244D01*
X117219465Y-82836347D01*
X163279952Y-82836347D01*
X164592000Y-84148395D01*
X165904048Y-82836347D01*
X165748038Y-82520786D01*
X165373255Y-82329980D01*
X164968449Y-82215956D01*
X164549176Y-82183098D01*
X164131549Y-82232666D01*
X163731617Y-82362757D01*
X163435962Y-82520786D01*
X163279952Y-82836347D01*
X117219465Y-82836347D01*
X117208012Y-82808698D01*
X116974363Y-82459017D01*
X116676983Y-82161637D01*
X116327302Y-81927988D01*
X115938756Y-81767047D01*
X115526279Y-81685000D01*
X115105721Y-81685000D01*
X114693244Y-81767047D01*
X114304698Y-81927988D01*
X113955017Y-82161637D01*
X113657637Y-82459017D01*
X113423988Y-82808698D01*
X113263047Y-83197244D01*
X113181000Y-83609721D01*
X111912000Y-83609721D01*
X111912000Y-80240000D01*
X113177928Y-80240000D01*
X113190188Y-80364482D01*
X113226498Y-80484180D01*
X113285463Y-80594494D01*
X113364815Y-80691185D01*
X113461506Y-80770537D01*
X113571820Y-80829502D01*
X113691518Y-80865812D01*
X113816000Y-80878072D01*
X115030250Y-80875000D01*
X115189000Y-80716250D01*
X115189000Y-78867000D01*
X115443000Y-78867000D01*
X115443000Y-80716250D01*
X115601750Y-80875000D01*
X116816000Y-80878072D01*
X116940482Y-80865812D01*
X117060180Y-80829502D01*
X117170494Y-80770537D01*
X117267185Y-80691185D01*
X117346537Y-80594494D01*
X117405502Y-80484180D01*
X117441812Y-80364482D01*
X117454072Y-80240000D01*
X117451000Y-79025750D01*
X117292250Y-78867000D01*
X115443000Y-78867000D01*
X115189000Y-78867000D01*
X113339750Y-78867000D01*
X113181000Y-79025750D01*
X113177928Y-80240000D01*
X111912000Y-80240000D01*
X111912000Y-77240000D01*
X113177928Y-77240000D01*
X113181000Y-78454250D01*
X113339750Y-78613000D01*
X115189000Y-78613000D01*
X115189000Y-76763750D01*
X115443000Y-76763750D01*
X115443000Y-78613000D01*
X117292250Y-78613000D01*
X117451000Y-78454250D01*
X117454072Y-77240000D01*
X117441812Y-77115518D01*
X117405502Y-76995820D01*
X117346537Y-76885506D01*
X117267185Y-76788815D01*
X117170494Y-76709463D01*
X117060180Y-76650498D01*
X116940482Y-76614188D01*
X116816000Y-76601928D01*
X115601750Y-76605000D01*
X115443000Y-76763750D01*
X115189000Y-76763750D01*
X115030250Y-76605000D01*
X113816000Y-76601928D01*
X113691518Y-76614188D01*
X113571820Y-76650498D01*
X113461506Y-76709463D01*
X113364815Y-76788815D01*
X113285463Y-76885506D01*
X113226498Y-76995820D01*
X113190188Y-77115518D01*
X113177928Y-77240000D01*
X111912000Y-77240000D01*
X111912000Y-72655606D01*
X112304606Y-72263000D01*
X116348000Y-72263000D01*
X116372776Y-72260560D01*
X116396601Y-72253333D01*
X116418557Y-72241597D01*
X116437803Y-72225803D01*
X117437803Y-71225803D01*
X117453597Y-71206557D01*
X117465333Y-71184601D01*
X117472560Y-71160776D01*
X117475000Y-71136000D01*
X117475000Y-70105721D01*
X136141000Y-70105721D01*
X136141000Y-70526279D01*
X136223047Y-70938756D01*
X136383988Y-71327302D01*
X136617637Y-71676983D01*
X136915017Y-71974363D01*
X137264698Y-72208012D01*
X137653244Y-72368953D01*
X138065721Y-72451000D01*
X138486279Y-72451000D01*
X138898756Y-72368953D01*
X139287302Y-72208012D01*
X139636983Y-71974363D01*
X139803693Y-71807653D01*
X144963952Y-71807653D01*
X145119962Y-72123214D01*
X145494745Y-72314020D01*
X145899551Y-72428044D01*
X146318824Y-72460902D01*
X146736451Y-72411334D01*
X147136383Y-72281243D01*
X147432038Y-72123214D01*
X147588048Y-71807653D01*
X146276000Y-70495605D01*
X144963952Y-71807653D01*
X139803693Y-71807653D01*
X139934363Y-71676983D01*
X140168012Y-71327302D01*
X140328953Y-70938756D01*
X140411000Y-70526279D01*
X140411000Y-70358824D01*
X144131098Y-70358824D01*
X144180666Y-70776451D01*
X144310757Y-71176383D01*
X144468786Y-71472038D01*
X144784347Y-71628048D01*
X146096395Y-70316000D01*
X146455605Y-70316000D01*
X147767653Y-71628048D01*
X148083214Y-71472038D01*
X148274020Y-71097255D01*
X148388044Y-70692449D01*
X148420902Y-70273176D01*
X148371334Y-69855549D01*
X148241243Y-69455617D01*
X148083214Y-69159962D01*
X147767653Y-69003952D01*
X146455605Y-70316000D01*
X146096395Y-70316000D01*
X144784347Y-69003952D01*
X144468786Y-69159962D01*
X144277980Y-69534745D01*
X144163956Y-69939551D01*
X144131098Y-70358824D01*
X140411000Y-70358824D01*
X140411000Y-70105721D01*
X140328953Y-69693244D01*
X140168012Y-69304698D01*
X139934363Y-68955017D01*
X139803693Y-68824347D01*
X144963952Y-68824347D01*
X146276000Y-70136395D01*
X147588048Y-68824347D01*
X147432038Y-68508786D01*
X147057255Y-68317980D01*
X146652449Y-68203956D01*
X146233176Y-68171098D01*
X145815549Y-68220666D01*
X145415617Y-68350757D01*
X145119962Y-68508786D01*
X144963952Y-68824347D01*
X139803693Y-68824347D01*
X139636983Y-68657637D01*
X139287302Y-68423988D01*
X138898756Y-68263047D01*
X138486279Y-68181000D01*
X138065721Y-68181000D01*
X137653244Y-68263047D01*
X137264698Y-68423988D01*
X136915017Y-68657637D01*
X136617637Y-68955017D01*
X136383988Y-69304698D01*
X136223047Y-69693244D01*
X136141000Y-70105721D01*
X117475000Y-70105721D01*
X117475000Y-67092606D01*
X117867606Y-66700000D01*
X162040394Y-66700000D01*
X162433000Y-67092606D01*
G37*
X162433000Y-67092606D02*
X162433000Y-71136000D01*
X162435440Y-71160776D01*
X162442667Y-71184601D01*
X162454403Y-71206557D01*
X162470197Y-71225803D01*
X163470197Y-72225803D01*
X163489443Y-72241597D01*
X163511399Y-72253333D01*
X163535224Y-72260560D01*
X163560000Y-72263000D01*
X167603394Y-72263000D01*
X167996001Y-72655607D01*
X167996000Y-112764394D01*
X167603394Y-113157000D01*
X163560000Y-113157000D01*
X163535224Y-113159440D01*
X163511399Y-113166667D01*
X163489443Y-113178403D01*
X163470197Y-113194197D01*
X162470197Y-114194197D01*
X162454403Y-114213443D01*
X162442667Y-114235399D01*
X162435440Y-114259224D01*
X162433000Y-114284000D01*
X162433000Y-118327394D01*
X162040394Y-118720000D01*
X150379606Y-118720000D01*
X149987000Y-118327394D01*
X149987000Y-104378000D01*
X149984560Y-104353224D01*
X149977333Y-104329399D01*
X149965597Y-104307443D01*
X149949803Y-104288197D01*
X148949803Y-103288197D01*
X148930557Y-103272403D01*
X148908601Y-103260667D01*
X148884776Y-103253440D01*
X148860000Y-103251000D01*
X129067986Y-103251000D01*
X128125452Y-102324043D01*
X128062985Y-98576000D01*
X162453928Y-98576000D01*
X162453928Y-101576000D01*
X162466188Y-101700482D01*
X162502498Y-101820180D01*
X162561463Y-101930494D01*
X162640815Y-102027185D01*
X162737506Y-102106537D01*
X162847820Y-102165502D01*
X162967518Y-102201812D01*
X163092000Y-102214072D01*
X166092000Y-102214072D01*
X166216482Y-102201812D01*
X166336180Y-102165502D01*
X166446494Y-102106537D01*
X166543185Y-102027185D01*
X166622537Y-101930494D01*
X166681502Y-101820180D01*
X166717812Y-101700482D01*
X166730072Y-101576000D01*
X166730072Y-98576000D01*
X166717812Y-98451518D01*
X166681502Y-98331820D01*
X166622537Y-98221506D01*
X166543185Y-98124815D01*
X166446494Y-98045463D01*
X166336180Y-97986498D01*
X166216482Y-97950188D01*
X166092000Y-97937928D01*
X163092000Y-97937928D01*
X162967518Y-97950188D01*
X162847820Y-97986498D01*
X162737506Y-98045463D01*
X162640815Y-98124815D01*
X162561463Y-98221506D01*
X162502498Y-98331820D01*
X162466188Y-98451518D01*
X162453928Y-98576000D01*
X128062985Y-98576000D01*
X128028180Y-96487653D01*
X163279952Y-96487653D01*
X163435962Y-96803214D01*
X163810745Y-96994020D01*
X164215551Y-97108044D01*
X164634824Y-97140902D01*
X165052451Y-97091334D01*
X165452383Y-96961243D01*
X165748038Y-96803214D01*
X165904048Y-96487653D01*
X164592000Y-95175605D01*
X163279952Y-96487653D01*
X128028180Y-96487653D01*
X128004032Y-95038824D01*
X162447098Y-95038824D01*
X162496666Y-95456451D01*
X162626757Y-95856383D01*
X162784786Y-96152038D01*
X163100347Y-96308048D01*
X164412395Y-94996000D01*
X164771605Y-94996000D01*
X166083653Y-96308048D01*
X166399214Y-96152038D01*
X166590020Y-95777255D01*
X166704044Y-95372449D01*
X166736902Y-94953176D01*
X166687334Y-94535549D01*
X166557243Y-94135617D01*
X166399214Y-93839962D01*
X166083653Y-93683952D01*
X164771605Y-94996000D01*
X164412395Y-94996000D01*
X163100347Y-93683952D01*
X162784786Y-93839962D01*
X162593980Y-94214745D01*
X162479956Y-94619551D01*
X162447098Y-95038824D01*
X128004032Y-95038824D01*
X127978458Y-93504347D01*
X163279952Y-93504347D01*
X164592000Y-94816395D01*
X165904048Y-93504347D01*
X165748038Y-93188786D01*
X165373255Y-92997980D01*
X164968449Y-92883956D01*
X164549176Y-92851098D01*
X164131549Y-92900666D01*
X163731617Y-93030757D01*
X163435962Y-93188786D01*
X163279952Y-93504347D01*
X127978458Y-93504347D01*
X127905646Y-89135745D01*
X127902794Y-89111012D01*
X127895171Y-89087312D01*
X127883070Y-89065554D01*
X127867715Y-89047313D01*
X126851051Y-88047452D01*
X126831675Y-88031819D01*
X126809621Y-88020266D01*
X126785738Y-88013238D01*
X126762000Y-88011000D01*
X112304606Y-88011000D01*
X112201606Y-87908000D01*
X162453928Y-87908000D01*
X162453928Y-90908000D01*
X162466188Y-91032482D01*
X162502498Y-91152180D01*
X162561463Y-91262494D01*
X162640815Y-91359185D01*
X162737506Y-91438537D01*
X162847820Y-91497502D01*
X162967518Y-91533812D01*
X163092000Y-91546072D01*
X166092000Y-91546072D01*
X166216482Y-91533812D01*
X166336180Y-91497502D01*
X166446494Y-91438537D01*
X166543185Y-91359185D01*
X166622537Y-91262494D01*
X166681502Y-91152180D01*
X166717812Y-91032482D01*
X166730072Y-90908000D01*
X166730072Y-87908000D01*
X166717812Y-87783518D01*
X166681502Y-87663820D01*
X166622537Y-87553506D01*
X166543185Y-87456815D01*
X166446494Y-87377463D01*
X166336180Y-87318498D01*
X166216482Y-87282188D01*
X166092000Y-87269928D01*
X163092000Y-87269928D01*
X162967518Y-87282188D01*
X162847820Y-87318498D01*
X162737506Y-87377463D01*
X162640815Y-87456815D01*
X162561463Y-87553506D01*
X162502498Y-87663820D01*
X162466188Y-87783518D01*
X162453928Y-87908000D01*
X112201606Y-87908000D01*
X111912000Y-87618394D01*
X111912000Y-83609721D01*
X113181000Y-83609721D01*
X113181000Y-84030279D01*
X113263047Y-84442756D01*
X113423988Y-84831302D01*
X113657637Y-85180983D01*
X113955017Y-85478363D01*
X114304698Y-85712012D01*
X114693244Y-85872953D01*
X115105721Y-85955000D01*
X115526279Y-85955000D01*
X115938756Y-85872953D01*
X116067433Y-85819653D01*
X163279952Y-85819653D01*
X163435962Y-86135214D01*
X163810745Y-86326020D01*
X164215551Y-86440044D01*
X164634824Y-86472902D01*
X165052451Y-86423334D01*
X165452383Y-86293243D01*
X165748038Y-86135214D01*
X165904048Y-85819653D01*
X164592000Y-84507605D01*
X163279952Y-85819653D01*
X116067433Y-85819653D01*
X116327302Y-85712012D01*
X116676983Y-85478363D01*
X116974363Y-85180983D01*
X117208012Y-84831302D01*
X117368953Y-84442756D01*
X117383261Y-84370824D01*
X162447098Y-84370824D01*
X162496666Y-84788451D01*
X162626757Y-85188383D01*
X162784786Y-85484038D01*
X163100347Y-85640048D01*
X164412395Y-84328000D01*
X164771605Y-84328000D01*
X166083653Y-85640048D01*
X166399214Y-85484038D01*
X166590020Y-85109255D01*
X166704044Y-84704449D01*
X166736902Y-84285176D01*
X166687334Y-83867549D01*
X166557243Y-83467617D01*
X166399214Y-83171962D01*
X166083653Y-83015952D01*
X164771605Y-84328000D01*
X164412395Y-84328000D01*
X163100347Y-83015952D01*
X162784786Y-83171962D01*
X162593980Y-83546745D01*
X162479956Y-83951551D01*
X162447098Y-84370824D01*
X117383261Y-84370824D01*
X117451000Y-84030279D01*
X117451000Y-83609721D01*
X117368953Y-83197244D01*
X117219465Y-82836347D01*
X163279952Y-82836347D01*
X164592000Y-84148395D01*
X165904048Y-82836347D01*
X165748038Y-82520786D01*
X165373255Y-82329980D01*
X164968449Y-82215956D01*
X164549176Y-82183098D01*
X164131549Y-82232666D01*
X163731617Y-82362757D01*
X163435962Y-82520786D01*
X163279952Y-82836347D01*
X117219465Y-82836347D01*
X117208012Y-82808698D01*
X116974363Y-82459017D01*
X116676983Y-82161637D01*
X116327302Y-81927988D01*
X115938756Y-81767047D01*
X115526279Y-81685000D01*
X115105721Y-81685000D01*
X114693244Y-81767047D01*
X114304698Y-81927988D01*
X113955017Y-82161637D01*
X113657637Y-82459017D01*
X113423988Y-82808698D01*
X113263047Y-83197244D01*
X113181000Y-83609721D01*
X111912000Y-83609721D01*
X111912000Y-80240000D01*
X113177928Y-80240000D01*
X113190188Y-80364482D01*
X113226498Y-80484180D01*
X113285463Y-80594494D01*
X113364815Y-80691185D01*
X113461506Y-80770537D01*
X113571820Y-80829502D01*
X113691518Y-80865812D01*
X113816000Y-80878072D01*
X115030250Y-80875000D01*
X115189000Y-80716250D01*
X115189000Y-78867000D01*
X115443000Y-78867000D01*
X115443000Y-80716250D01*
X115601750Y-80875000D01*
X116816000Y-80878072D01*
X116940482Y-80865812D01*
X117060180Y-80829502D01*
X117170494Y-80770537D01*
X117267185Y-80691185D01*
X117346537Y-80594494D01*
X117405502Y-80484180D01*
X117441812Y-80364482D01*
X117454072Y-80240000D01*
X117451000Y-79025750D01*
X117292250Y-78867000D01*
X115443000Y-78867000D01*
X115189000Y-78867000D01*
X113339750Y-78867000D01*
X113181000Y-79025750D01*
X113177928Y-80240000D01*
X111912000Y-80240000D01*
X111912000Y-77240000D01*
X113177928Y-77240000D01*
X113181000Y-78454250D01*
X113339750Y-78613000D01*
X115189000Y-78613000D01*
X115189000Y-76763750D01*
X115443000Y-76763750D01*
X115443000Y-78613000D01*
X117292250Y-78613000D01*
X117451000Y-78454250D01*
X117454072Y-77240000D01*
X117441812Y-77115518D01*
X117405502Y-76995820D01*
X117346537Y-76885506D01*
X117267185Y-76788815D01*
X117170494Y-76709463D01*
X117060180Y-76650498D01*
X116940482Y-76614188D01*
X116816000Y-76601928D01*
X115601750Y-76605000D01*
X115443000Y-76763750D01*
X115189000Y-76763750D01*
X115030250Y-76605000D01*
X113816000Y-76601928D01*
X113691518Y-76614188D01*
X113571820Y-76650498D01*
X113461506Y-76709463D01*
X113364815Y-76788815D01*
X113285463Y-76885506D01*
X113226498Y-76995820D01*
X113190188Y-77115518D01*
X113177928Y-77240000D01*
X111912000Y-77240000D01*
X111912000Y-72655606D01*
X112304606Y-72263000D01*
X116348000Y-72263000D01*
X116372776Y-72260560D01*
X116396601Y-72253333D01*
X116418557Y-72241597D01*
X116437803Y-72225803D01*
X117437803Y-71225803D01*
X117453597Y-71206557D01*
X117465333Y-71184601D01*
X117472560Y-71160776D01*
X117475000Y-71136000D01*
X117475000Y-70105721D01*
X136141000Y-70105721D01*
X136141000Y-70526279D01*
X136223047Y-70938756D01*
X136383988Y-71327302D01*
X136617637Y-71676983D01*
X136915017Y-71974363D01*
X137264698Y-72208012D01*
X137653244Y-72368953D01*
X138065721Y-72451000D01*
X138486279Y-72451000D01*
X138898756Y-72368953D01*
X139287302Y-72208012D01*
X139636983Y-71974363D01*
X139803693Y-71807653D01*
X144963952Y-71807653D01*
X145119962Y-72123214D01*
X145494745Y-72314020D01*
X145899551Y-72428044D01*
X146318824Y-72460902D01*
X146736451Y-72411334D01*
X147136383Y-72281243D01*
X147432038Y-72123214D01*
X147588048Y-71807653D01*
X146276000Y-70495605D01*
X144963952Y-71807653D01*
X139803693Y-71807653D01*
X139934363Y-71676983D01*
X140168012Y-71327302D01*
X140328953Y-70938756D01*
X140411000Y-70526279D01*
X140411000Y-70358824D01*
X144131098Y-70358824D01*
X144180666Y-70776451D01*
X144310757Y-71176383D01*
X144468786Y-71472038D01*
X144784347Y-71628048D01*
X146096395Y-70316000D01*
X146455605Y-70316000D01*
X147767653Y-71628048D01*
X148083214Y-71472038D01*
X148274020Y-71097255D01*
X148388044Y-70692449D01*
X148420902Y-70273176D01*
X148371334Y-69855549D01*
X148241243Y-69455617D01*
X148083214Y-69159962D01*
X147767653Y-69003952D01*
X146455605Y-70316000D01*
X146096395Y-70316000D01*
X144784347Y-69003952D01*
X144468786Y-69159962D01*
X144277980Y-69534745D01*
X144163956Y-69939551D01*
X144131098Y-70358824D01*
X140411000Y-70358824D01*
X140411000Y-70105721D01*
X140328953Y-69693244D01*
X140168012Y-69304698D01*
X139934363Y-68955017D01*
X139803693Y-68824347D01*
X144963952Y-68824347D01*
X146276000Y-70136395D01*
X147588048Y-68824347D01*
X147432038Y-68508786D01*
X147057255Y-68317980D01*
X146652449Y-68203956D01*
X146233176Y-68171098D01*
X145815549Y-68220666D01*
X145415617Y-68350757D01*
X145119962Y-68508786D01*
X144963952Y-68824347D01*
X139803693Y-68824347D01*
X139636983Y-68657637D01*
X139287302Y-68423988D01*
X138898756Y-68263047D01*
X138486279Y-68181000D01*
X138065721Y-68181000D01*
X137653244Y-68263047D01*
X137264698Y-68423988D01*
X136915017Y-68657637D01*
X136617637Y-68955017D01*
X136383988Y-69304698D01*
X136223047Y-69693244D01*
X136141000Y-70105721D01*
X117475000Y-70105721D01*
X117475000Y-67092606D01*
X117867606Y-66700000D01*
X162040394Y-66700000D01*
X162433000Y-67092606D01*
M02*
