G04 #@! TF.GenerationSoftware,KiCad,Pcbnew,5.1.5-52549c5~84~ubuntu18.04.1*
G04 #@! TF.CreationDate,2020-05-16T16:19:51-04:00*
G04 #@! TF.ProjectId,PWR_SUPPLY,5057525f-5355-4505-904c-592e6b696361,rev?*
G04 #@! TF.SameCoordinates,Original*
G04 #@! TF.FileFunction,Soldermask,Top*
G04 #@! TF.FilePolarity,Negative*
%FSLAX46Y46*%
G04 Gerber Fmt 4.6, Leading zero omitted, Abs format (unit mm)*
G04 Created by KiCad (PCBNEW 5.1.5-52549c5~84~ubuntu18.04.1) date 2020-05-16 16:19:51*
%MOMM*%
%LPD*%
G04 APERTURE LIST*
%ADD10C,0.100000*%
G04 APERTURE END LIST*
D10*
G36*
X165960829Y-114718837D02*
G01*
X166089579Y-114744447D01*
X166277301Y-114822204D01*
X166377216Y-114863590D01*
X166390042Y-114868903D01*
X166660451Y-115049585D01*
X166890415Y-115279549D01*
X167071097Y-115549958D01*
X167175924Y-115803032D01*
X167195553Y-115850422D01*
X167259000Y-116169389D01*
X167259000Y-116494611D01*
X167233804Y-116621277D01*
X167195553Y-116813579D01*
X167071097Y-117114042D01*
X166890415Y-117384451D01*
X166660451Y-117614415D01*
X166390042Y-117795097D01*
X166390041Y-117795098D01*
X166390040Y-117795098D01*
X166302037Y-117831550D01*
X166089579Y-117919553D01*
X165993034Y-117938757D01*
X165770611Y-117983000D01*
X165445389Y-117983000D01*
X165222966Y-117938757D01*
X165126421Y-117919553D01*
X164913963Y-117831550D01*
X164825960Y-117795098D01*
X164825959Y-117795098D01*
X164825958Y-117795097D01*
X164555549Y-117614415D01*
X164325585Y-117384451D01*
X164144903Y-117114042D01*
X164020447Y-116813579D01*
X163982196Y-116621277D01*
X163957000Y-116494611D01*
X163957000Y-116169389D01*
X164020447Y-115850422D01*
X164040077Y-115803032D01*
X164144903Y-115549958D01*
X164325585Y-115279549D01*
X164555549Y-115049585D01*
X164825958Y-114868903D01*
X164838785Y-114863590D01*
X164938699Y-114822204D01*
X165126421Y-114744447D01*
X165255171Y-114718837D01*
X165445389Y-114681000D01*
X165770611Y-114681000D01*
X165960829Y-114718837D01*
G37*
G36*
X114652829Y-114718837D02*
G01*
X114781579Y-114744447D01*
X114969301Y-114822204D01*
X115069216Y-114863590D01*
X115082042Y-114868903D01*
X115352451Y-115049585D01*
X115582415Y-115279549D01*
X115763097Y-115549958D01*
X115867924Y-115803032D01*
X115887553Y-115850422D01*
X115951000Y-116169389D01*
X115951000Y-116494611D01*
X115925804Y-116621277D01*
X115887553Y-116813579D01*
X115763097Y-117114042D01*
X115582415Y-117384451D01*
X115352451Y-117614415D01*
X115082042Y-117795097D01*
X115082041Y-117795098D01*
X115082040Y-117795098D01*
X114994037Y-117831550D01*
X114781579Y-117919553D01*
X114685034Y-117938757D01*
X114462611Y-117983000D01*
X114137389Y-117983000D01*
X113914966Y-117938757D01*
X113818421Y-117919553D01*
X113605963Y-117831550D01*
X113517960Y-117795098D01*
X113517959Y-117795098D01*
X113517958Y-117795097D01*
X113247549Y-117614415D01*
X113017585Y-117384451D01*
X112836903Y-117114042D01*
X112712447Y-116813579D01*
X112674196Y-116621277D01*
X112649000Y-116494611D01*
X112649000Y-116169389D01*
X112712447Y-115850422D01*
X112732077Y-115803032D01*
X112836903Y-115549958D01*
X113017585Y-115279549D01*
X113247549Y-115049585D01*
X113517958Y-114868903D01*
X113530785Y-114863590D01*
X113630699Y-114822204D01*
X113818421Y-114744447D01*
X113947171Y-114718837D01*
X114137389Y-114681000D01*
X114462611Y-114681000D01*
X114652829Y-114718837D01*
G37*
G36*
X153889997Y-115261051D02*
G01*
X153923652Y-115271261D01*
X153954665Y-115287838D01*
X153981851Y-115310149D01*
X154004162Y-115337335D01*
X154020739Y-115368348D01*
X154030949Y-115402003D01*
X154035000Y-115443138D01*
X154035000Y-117772862D01*
X154030949Y-117813997D01*
X154020739Y-117847652D01*
X154004162Y-117878665D01*
X153981851Y-117905851D01*
X153954665Y-117928162D01*
X153923652Y-117944739D01*
X153889997Y-117954949D01*
X153848862Y-117959000D01*
X152519138Y-117959000D01*
X152478003Y-117954949D01*
X152444348Y-117944739D01*
X152413335Y-117928162D01*
X152386149Y-117905851D01*
X152363838Y-117878665D01*
X152347261Y-117847652D01*
X152337051Y-117813997D01*
X152333000Y-117772862D01*
X152333000Y-115443138D01*
X152337051Y-115402003D01*
X152347261Y-115368348D01*
X152363838Y-115337335D01*
X152386149Y-115310149D01*
X152413335Y-115287838D01*
X152444348Y-115271261D01*
X152478003Y-115261051D01*
X152519138Y-115257000D01*
X153848862Y-115257000D01*
X153889997Y-115261051D01*
G37*
G36*
X127027000Y-116867000D02*
G01*
X123925000Y-116867000D01*
X123925000Y-113765000D01*
X127027000Y-113765000D01*
X127027000Y-116867000D01*
G37*
G36*
X146514200Y-113781995D02*
G01*
X146728410Y-113824604D01*
X147010674Y-113941521D01*
X147264705Y-114111259D01*
X147480741Y-114327295D01*
X147650479Y-114581326D01*
X147767396Y-114863590D01*
X147768453Y-114868903D01*
X147827000Y-115163239D01*
X147827000Y-115468761D01*
X147816224Y-115522937D01*
X147767396Y-115768410D01*
X147650479Y-116050674D01*
X147480741Y-116304705D01*
X147264705Y-116520741D01*
X147010674Y-116690479D01*
X146728410Y-116807396D01*
X146578585Y-116837198D01*
X146428761Y-116867000D01*
X146123239Y-116867000D01*
X145973415Y-116837198D01*
X145823590Y-116807396D01*
X145541326Y-116690479D01*
X145287295Y-116520741D01*
X145071259Y-116304705D01*
X144901521Y-116050674D01*
X144784604Y-115768410D01*
X144735776Y-115522937D01*
X144725000Y-115468761D01*
X144725000Y-115163239D01*
X144783547Y-114868903D01*
X144784604Y-114863590D01*
X144901521Y-114581326D01*
X145071259Y-114327295D01*
X145287295Y-114111259D01*
X145541326Y-113941521D01*
X145823590Y-113824604D01*
X146037800Y-113781995D01*
X146123239Y-113765000D01*
X146428761Y-113765000D01*
X146514200Y-113781995D01*
G37*
G36*
X157556468Y-115641065D02*
G01*
X157595138Y-115652796D01*
X157630777Y-115671846D01*
X157662017Y-115697483D01*
X157687654Y-115728723D01*
X157706704Y-115764362D01*
X157718435Y-115803032D01*
X157723000Y-115849388D01*
X157723000Y-116500612D01*
X157718435Y-116546968D01*
X157706704Y-116585638D01*
X157687654Y-116621277D01*
X157662017Y-116652517D01*
X157630777Y-116678154D01*
X157595138Y-116697204D01*
X157556468Y-116708935D01*
X157510112Y-116713500D01*
X156433888Y-116713500D01*
X156387532Y-116708935D01*
X156348862Y-116697204D01*
X156313223Y-116678154D01*
X156281983Y-116652517D01*
X156256346Y-116621277D01*
X156237296Y-116585638D01*
X156225565Y-116546968D01*
X156221000Y-116500612D01*
X156221000Y-115849388D01*
X156225565Y-115803032D01*
X156237296Y-115764362D01*
X156256346Y-115728723D01*
X156281983Y-115697483D01*
X156313223Y-115671846D01*
X156348862Y-115652796D01*
X156387532Y-115641065D01*
X156433888Y-115636500D01*
X157510112Y-115636500D01*
X157556468Y-115641065D01*
G37*
G36*
X157556468Y-113766065D02*
G01*
X157595138Y-113777796D01*
X157630777Y-113796846D01*
X157662017Y-113822483D01*
X157687654Y-113853723D01*
X157706704Y-113889362D01*
X157718435Y-113928032D01*
X157723000Y-113974388D01*
X157723000Y-114625612D01*
X157718435Y-114671968D01*
X157706704Y-114710638D01*
X157687654Y-114746277D01*
X157662017Y-114777517D01*
X157630777Y-114803154D01*
X157595138Y-114822204D01*
X157556468Y-114833935D01*
X157510112Y-114838500D01*
X156433888Y-114838500D01*
X156387532Y-114833935D01*
X156348862Y-114822204D01*
X156313223Y-114803154D01*
X156281983Y-114777517D01*
X156256346Y-114746277D01*
X156237296Y-114710638D01*
X156225565Y-114671968D01*
X156221000Y-114625612D01*
X156221000Y-113974388D01*
X156225565Y-113928032D01*
X156237296Y-113889362D01*
X156256346Y-113853723D01*
X156281983Y-113822483D01*
X156313223Y-113796846D01*
X156348862Y-113777796D01*
X156387532Y-113766065D01*
X156433888Y-113761500D01*
X157510112Y-113761500D01*
X157556468Y-113766065D01*
G37*
G36*
X153889997Y-111661051D02*
G01*
X153923652Y-111671261D01*
X153954665Y-111687838D01*
X153981851Y-111710149D01*
X154004162Y-111737335D01*
X154020739Y-111768348D01*
X154030949Y-111802003D01*
X154035000Y-111843138D01*
X154035000Y-114172862D01*
X154030949Y-114213997D01*
X154020739Y-114247652D01*
X154004162Y-114278665D01*
X153981851Y-114305851D01*
X153954665Y-114328162D01*
X153923652Y-114344739D01*
X153889997Y-114354949D01*
X153848862Y-114359000D01*
X152519138Y-114359000D01*
X152478003Y-114354949D01*
X152444348Y-114344739D01*
X152413335Y-114328162D01*
X152386149Y-114305851D01*
X152363838Y-114278665D01*
X152347261Y-114247652D01*
X152337051Y-114213997D01*
X152333000Y-114172862D01*
X152333000Y-111843138D01*
X152337051Y-111802003D01*
X152347261Y-111768348D01*
X152363838Y-111737335D01*
X152386149Y-111710149D01*
X152413335Y-111687838D01*
X152444348Y-111671261D01*
X152478003Y-111661051D01*
X152519138Y-111657000D01*
X153848862Y-111657000D01*
X153889997Y-111661051D01*
G37*
G36*
X162831000Y-109885000D02*
G01*
X156329000Y-109885000D01*
X156329000Y-103983000D01*
X162831000Y-103983000D01*
X162831000Y-109885000D01*
G37*
G36*
X154431000Y-109865000D02*
G01*
X152129000Y-109865000D01*
X152129000Y-108563000D01*
X154431000Y-108563000D01*
X154431000Y-109865000D01*
G37*
G36*
X154431000Y-107585000D02*
G01*
X152129000Y-107585000D01*
X152129000Y-106283000D01*
X154431000Y-106283000D01*
X154431000Y-107585000D01*
G37*
G36*
X115618585Y-102618802D02*
G01*
X115768410Y-102648604D01*
X116050674Y-102765521D01*
X116304705Y-102935259D01*
X116520741Y-103151295D01*
X116690479Y-103405326D01*
X116807396Y-103687590D01*
X116867000Y-103987240D01*
X116867000Y-104292760D01*
X116807396Y-104592410D01*
X116690479Y-104874674D01*
X116520741Y-105128705D01*
X116304705Y-105344741D01*
X116050674Y-105514479D01*
X115768410Y-105631396D01*
X115618585Y-105661198D01*
X115468761Y-105691000D01*
X115163239Y-105691000D01*
X115013415Y-105661198D01*
X114863590Y-105631396D01*
X114581326Y-105514479D01*
X114327295Y-105344741D01*
X114111259Y-105128705D01*
X113941521Y-104874674D01*
X113824604Y-104592410D01*
X113765000Y-104292760D01*
X113765000Y-103987240D01*
X113824604Y-103687590D01*
X113941521Y-103405326D01*
X114111259Y-103151295D01*
X114327295Y-102935259D01*
X114581326Y-102765521D01*
X114863590Y-102648604D01*
X115013415Y-102618802D01*
X115163239Y-102589000D01*
X115468761Y-102589000D01*
X115618585Y-102618802D01*
G37*
G36*
X154431000Y-105305000D02*
G01*
X152129000Y-105305000D01*
X152129000Y-104003000D01*
X154431000Y-104003000D01*
X154431000Y-105305000D01*
G37*
G36*
X166143000Y-101627000D02*
G01*
X163041000Y-101627000D01*
X163041000Y-98525000D01*
X166143000Y-98525000D01*
X166143000Y-101627000D01*
G37*
G36*
X116867000Y-100611000D02*
G01*
X113765000Y-100611000D01*
X113765000Y-97509000D01*
X116867000Y-97509000D01*
X116867000Y-100611000D01*
G37*
G36*
X157115000Y-100577000D02*
G01*
X155813000Y-100577000D01*
X155813000Y-99575000D01*
X157115000Y-99575000D01*
X157115000Y-100577000D01*
G37*
G36*
X153746468Y-99385065D02*
G01*
X153785138Y-99396796D01*
X153820777Y-99415846D01*
X153852017Y-99441483D01*
X153877654Y-99472723D01*
X153896704Y-99508362D01*
X153908435Y-99547032D01*
X153913000Y-99593388D01*
X153913000Y-100244612D01*
X153908435Y-100290968D01*
X153896704Y-100329638D01*
X153877654Y-100365277D01*
X153852017Y-100396517D01*
X153820777Y-100422154D01*
X153785138Y-100441204D01*
X153746468Y-100452935D01*
X153700112Y-100457500D01*
X152623888Y-100457500D01*
X152577532Y-100452935D01*
X152538862Y-100441204D01*
X152503223Y-100422154D01*
X152471983Y-100396517D01*
X152446346Y-100365277D01*
X152427296Y-100329638D01*
X152415565Y-100290968D01*
X152411000Y-100244612D01*
X152411000Y-99593388D01*
X152415565Y-99547032D01*
X152427296Y-99508362D01*
X152446346Y-99472723D01*
X152471983Y-99441483D01*
X152503223Y-99415846D01*
X152538862Y-99396796D01*
X152577532Y-99385065D01*
X152623888Y-99380500D01*
X153700112Y-99380500D01*
X153746468Y-99385065D01*
G37*
G36*
X153746468Y-97510065D02*
G01*
X153785138Y-97521796D01*
X153820777Y-97540846D01*
X153852017Y-97566483D01*
X153877654Y-97597723D01*
X153896704Y-97633362D01*
X153908435Y-97672032D01*
X153913000Y-97718388D01*
X153913000Y-98369612D01*
X153908435Y-98415968D01*
X153896704Y-98454638D01*
X153877654Y-98490277D01*
X153852017Y-98521517D01*
X153820777Y-98547154D01*
X153785138Y-98566204D01*
X153746468Y-98577935D01*
X153700112Y-98582500D01*
X152623888Y-98582500D01*
X152577532Y-98577935D01*
X152538862Y-98566204D01*
X152503223Y-98547154D01*
X152471983Y-98521517D01*
X152446346Y-98490277D01*
X152427296Y-98454638D01*
X152415565Y-98415968D01*
X152411000Y-98369612D01*
X152411000Y-97718388D01*
X152415565Y-97672032D01*
X152427296Y-97633362D01*
X152446346Y-97597723D01*
X152471983Y-97566483D01*
X152503223Y-97540846D01*
X152538862Y-97521796D01*
X152577532Y-97510065D01*
X152623888Y-97505500D01*
X153700112Y-97505500D01*
X153746468Y-97510065D01*
G37*
G36*
X157115000Y-97277000D02*
G01*
X155813000Y-97277000D01*
X155813000Y-96275000D01*
X157115000Y-96275000D01*
X157115000Y-97277000D01*
G37*
G36*
X164894585Y-93474802D02*
G01*
X165044410Y-93504604D01*
X165326674Y-93621521D01*
X165580705Y-93791259D01*
X165796741Y-94007295D01*
X165966479Y-94261326D01*
X166083396Y-94543590D01*
X166143000Y-94843240D01*
X166143000Y-95148760D01*
X166083396Y-95448410D01*
X165966479Y-95730674D01*
X165796741Y-95984705D01*
X165580705Y-96200741D01*
X165326674Y-96370479D01*
X165044410Y-96487396D01*
X164894585Y-96517198D01*
X164744761Y-96547000D01*
X164439239Y-96547000D01*
X164289415Y-96517198D01*
X164139590Y-96487396D01*
X163857326Y-96370479D01*
X163603295Y-96200741D01*
X163387259Y-95984705D01*
X163217521Y-95730674D01*
X163100604Y-95448410D01*
X163041000Y-95148760D01*
X163041000Y-94843240D01*
X163100604Y-94543590D01*
X163217521Y-94261326D01*
X163387259Y-94007295D01*
X163603295Y-93791259D01*
X163857326Y-93621521D01*
X164139590Y-93504604D01*
X164289415Y-93474802D01*
X164439239Y-93445000D01*
X164744761Y-93445000D01*
X164894585Y-93474802D01*
G37*
G36*
X119332016Y-91604291D02*
G01*
X119434024Y-91624581D01*
X119626204Y-91704185D01*
X119799161Y-91819751D01*
X119946249Y-91966839D01*
X120061815Y-92139796D01*
X120141419Y-92331976D01*
X120182000Y-92535993D01*
X120182000Y-92744007D01*
X120141419Y-92948024D01*
X120061815Y-93140204D01*
X119946249Y-93313161D01*
X119799161Y-93460249D01*
X119626204Y-93575815D01*
X119434024Y-93655419D01*
X119332015Y-93675710D01*
X119230008Y-93696000D01*
X119021992Y-93696000D01*
X118919985Y-93675710D01*
X118817976Y-93655419D01*
X118625796Y-93575815D01*
X118452839Y-93460249D01*
X118305751Y-93313161D01*
X118190185Y-93140204D01*
X118110581Y-92948024D01*
X118070000Y-92744007D01*
X118070000Y-92535993D01*
X118110581Y-92331976D01*
X118190185Y-92139796D01*
X118305751Y-91966839D01*
X118452839Y-91819751D01*
X118625796Y-91704185D01*
X118817976Y-91624581D01*
X118919984Y-91604291D01*
X119021992Y-91584000D01*
X119230008Y-91584000D01*
X119332016Y-91604291D01*
G37*
G36*
X114232015Y-90404290D02*
G01*
X114334024Y-90424581D01*
X114526204Y-90504185D01*
X114699161Y-90619751D01*
X114846249Y-90766839D01*
X114961815Y-90939796D01*
X115041419Y-91131976D01*
X115082000Y-91335993D01*
X115082000Y-91544007D01*
X115041419Y-91748024D01*
X114961815Y-91940204D01*
X114846249Y-92113161D01*
X114699161Y-92260249D01*
X114526204Y-92375815D01*
X114334024Y-92455419D01*
X114232015Y-92475710D01*
X114130008Y-92496000D01*
X113921992Y-92496000D01*
X113819984Y-92475709D01*
X113717976Y-92455419D01*
X113525796Y-92375815D01*
X113352839Y-92260249D01*
X113205751Y-92113161D01*
X113090185Y-91940204D01*
X113010581Y-91748024D01*
X112970000Y-91544007D01*
X112970000Y-91335993D01*
X113010581Y-91131976D01*
X113090185Y-90939796D01*
X113205751Y-90766839D01*
X113352839Y-90619751D01*
X113525796Y-90504185D01*
X113717976Y-90424581D01*
X113819984Y-90404291D01*
X113921992Y-90384000D01*
X114130008Y-90384000D01*
X114232015Y-90404290D01*
G37*
G36*
X166143000Y-90959000D02*
G01*
X163041000Y-90959000D01*
X163041000Y-87857000D01*
X166143000Y-87857000D01*
X166143000Y-90959000D01*
G37*
G36*
X157115000Y-89145000D02*
G01*
X155813000Y-89145000D01*
X155813000Y-88143000D01*
X157115000Y-88143000D01*
X157115000Y-89145000D01*
G37*
G36*
X153746468Y-86685065D02*
G01*
X153785138Y-86696796D01*
X153820777Y-86715846D01*
X153852017Y-86741483D01*
X153877654Y-86772723D01*
X153896704Y-86808362D01*
X153908435Y-86847032D01*
X153913000Y-86893388D01*
X153913000Y-87544612D01*
X153908435Y-87590968D01*
X153896704Y-87629638D01*
X153877654Y-87665277D01*
X153852017Y-87696517D01*
X153820777Y-87722154D01*
X153785138Y-87741204D01*
X153746468Y-87752935D01*
X153700112Y-87757500D01*
X152623888Y-87757500D01*
X152577532Y-87752935D01*
X152538862Y-87741204D01*
X152503223Y-87722154D01*
X152471983Y-87696517D01*
X152446346Y-87665277D01*
X152427296Y-87629638D01*
X152415565Y-87590968D01*
X152411000Y-87544612D01*
X152411000Y-86893388D01*
X152415565Y-86847032D01*
X152427296Y-86808362D01*
X152446346Y-86772723D01*
X152471983Y-86741483D01*
X152503223Y-86715846D01*
X152538862Y-86696796D01*
X152577532Y-86685065D01*
X152623888Y-86680500D01*
X153700112Y-86680500D01*
X153746468Y-86685065D01*
G37*
G36*
X153746468Y-84810065D02*
G01*
X153785138Y-84821796D01*
X153820777Y-84840846D01*
X153852017Y-84866483D01*
X153877654Y-84897723D01*
X153896704Y-84933362D01*
X153908435Y-84972032D01*
X153913000Y-85018388D01*
X153913000Y-85669612D01*
X153908435Y-85715968D01*
X153896704Y-85754638D01*
X153877654Y-85790277D01*
X153852017Y-85821517D01*
X153820777Y-85847154D01*
X153785138Y-85866204D01*
X153746468Y-85877935D01*
X153700112Y-85882500D01*
X152623888Y-85882500D01*
X152577532Y-85877935D01*
X152538862Y-85866204D01*
X152503223Y-85847154D01*
X152471983Y-85821517D01*
X152446346Y-85790277D01*
X152427296Y-85754638D01*
X152415565Y-85715968D01*
X152411000Y-85669612D01*
X152411000Y-85018388D01*
X152415565Y-84972032D01*
X152427296Y-84933362D01*
X152446346Y-84897723D01*
X152471983Y-84866483D01*
X152503223Y-84840846D01*
X152538862Y-84821796D01*
X152577532Y-84810065D01*
X152623888Y-84805500D01*
X153700112Y-84805500D01*
X153746468Y-84810065D01*
G37*
G36*
X164894585Y-82806802D02*
G01*
X165044410Y-82836604D01*
X165326674Y-82953521D01*
X165580705Y-83123259D01*
X165796741Y-83339295D01*
X165966479Y-83593326D01*
X166083396Y-83875590D01*
X166143000Y-84175240D01*
X166143000Y-84480760D01*
X166083396Y-84780410D01*
X165966479Y-85062674D01*
X165796741Y-85316705D01*
X165580705Y-85532741D01*
X165326674Y-85702479D01*
X165044410Y-85819396D01*
X164955290Y-85837123D01*
X164744761Y-85879000D01*
X164439239Y-85879000D01*
X164228710Y-85837123D01*
X164139590Y-85819396D01*
X163857326Y-85702479D01*
X163603295Y-85532741D01*
X163387259Y-85316705D01*
X163217521Y-85062674D01*
X163100604Y-84780410D01*
X163041000Y-84480760D01*
X163041000Y-84175240D01*
X163100604Y-83875590D01*
X163217521Y-83593326D01*
X163387259Y-83339295D01*
X163603295Y-83123259D01*
X163857326Y-82953521D01*
X164139590Y-82836604D01*
X164289415Y-82806802D01*
X164439239Y-82777000D01*
X164744761Y-82777000D01*
X164894585Y-82806802D01*
G37*
G36*
X157115000Y-85845000D02*
G01*
X155813000Y-85845000D01*
X155813000Y-84843000D01*
X157115000Y-84843000D01*
X157115000Y-85845000D01*
G37*
G36*
X115618585Y-82298802D02*
G01*
X115768410Y-82328604D01*
X116050674Y-82445521D01*
X116304705Y-82615259D01*
X116520741Y-82831295D01*
X116690479Y-83085326D01*
X116807396Y-83367590D01*
X116867000Y-83667240D01*
X116867000Y-83972760D01*
X116807396Y-84272410D01*
X116690479Y-84554674D01*
X116520741Y-84808705D01*
X116304705Y-85024741D01*
X116050674Y-85194479D01*
X115768410Y-85311396D01*
X115618585Y-85341198D01*
X115468761Y-85371000D01*
X115163239Y-85371000D01*
X115013415Y-85341198D01*
X114863590Y-85311396D01*
X114581326Y-85194479D01*
X114327295Y-85024741D01*
X114111259Y-84808705D01*
X113941521Y-84554674D01*
X113824604Y-84272410D01*
X113765000Y-83972760D01*
X113765000Y-83667240D01*
X113824604Y-83367590D01*
X113941521Y-83085326D01*
X114111259Y-82831295D01*
X114327295Y-82615259D01*
X114581326Y-82445521D01*
X114863590Y-82328604D01*
X115013415Y-82298802D01*
X115163239Y-82269000D01*
X115468761Y-82269000D01*
X115618585Y-82298802D01*
G37*
G36*
X162509000Y-80421000D02*
G01*
X156007000Y-80421000D01*
X156007000Y-74519000D01*
X162509000Y-74519000D01*
X162509000Y-80421000D01*
G37*
G36*
X154109000Y-80401000D02*
G01*
X151807000Y-80401000D01*
X151807000Y-79099000D01*
X154109000Y-79099000D01*
X154109000Y-80401000D01*
G37*
G36*
X116867000Y-80291000D02*
G01*
X113765000Y-80291000D01*
X113765000Y-77189000D01*
X116867000Y-77189000D01*
X116867000Y-80291000D01*
G37*
G36*
X154109000Y-78121000D02*
G01*
X151807000Y-78121000D01*
X151807000Y-76819000D01*
X154109000Y-76819000D01*
X154109000Y-78121000D01*
G37*
G36*
X154109000Y-75841000D02*
G01*
X151807000Y-75841000D01*
X151807000Y-74539000D01*
X154109000Y-74539000D01*
X154109000Y-75841000D01*
G37*
G36*
X153867997Y-70789051D02*
G01*
X153901652Y-70799261D01*
X153932665Y-70815838D01*
X153959851Y-70838149D01*
X153982162Y-70865335D01*
X153998739Y-70896348D01*
X154008949Y-70930003D01*
X154013000Y-70971138D01*
X154013000Y-73300862D01*
X154008949Y-73341997D01*
X153998739Y-73375652D01*
X153982162Y-73406665D01*
X153959851Y-73433851D01*
X153932665Y-73456162D01*
X153901652Y-73472739D01*
X153867997Y-73482949D01*
X153826862Y-73487000D01*
X152497138Y-73487000D01*
X152456003Y-73482949D01*
X152422348Y-73472739D01*
X152391335Y-73456162D01*
X152364149Y-73433851D01*
X152341838Y-73406665D01*
X152325261Y-73375652D01*
X152315051Y-73341997D01*
X152311000Y-73300862D01*
X152311000Y-70971138D01*
X152315051Y-70930003D01*
X152325261Y-70896348D01*
X152341838Y-70865335D01*
X152364149Y-70838149D01*
X152391335Y-70815838D01*
X152422348Y-70799261D01*
X152456003Y-70789051D01*
X152497138Y-70785000D01*
X153826862Y-70785000D01*
X153867997Y-70789051D01*
G37*
G36*
X138531122Y-68785361D02*
G01*
X138728410Y-68824604D01*
X139010674Y-68941521D01*
X139264705Y-69111259D01*
X139480741Y-69327295D01*
X139650479Y-69581326D01*
X139767396Y-69863590D01*
X139797198Y-70013415D01*
X139827000Y-70163239D01*
X139827000Y-70468761D01*
X139801333Y-70597796D01*
X139767396Y-70768410D01*
X139650479Y-71050674D01*
X139480741Y-71304705D01*
X139264705Y-71520741D01*
X139010674Y-71690479D01*
X138728410Y-71807396D01*
X138578585Y-71837198D01*
X138428761Y-71867000D01*
X138123239Y-71867000D01*
X137973415Y-71837198D01*
X137823590Y-71807396D01*
X137541326Y-71690479D01*
X137287295Y-71520741D01*
X137071259Y-71304705D01*
X136901521Y-71050674D01*
X136784604Y-70768410D01*
X136750667Y-70597796D01*
X136725000Y-70468761D01*
X136725000Y-70163239D01*
X136754802Y-70013415D01*
X136784604Y-69863590D01*
X136901521Y-69581326D01*
X137071259Y-69327295D01*
X137287295Y-69111259D01*
X137541326Y-68941521D01*
X137823590Y-68824604D01*
X138020878Y-68785361D01*
X138123239Y-68765000D01*
X138428761Y-68765000D01*
X138531122Y-68785361D01*
G37*
G36*
X146531122Y-68785361D02*
G01*
X146728410Y-68824604D01*
X147010674Y-68941521D01*
X147264705Y-69111259D01*
X147480741Y-69327295D01*
X147650479Y-69581326D01*
X147767396Y-69863590D01*
X147797198Y-70013415D01*
X147827000Y-70163239D01*
X147827000Y-70468761D01*
X147801333Y-70597796D01*
X147767396Y-70768410D01*
X147650479Y-71050674D01*
X147480741Y-71304705D01*
X147264705Y-71520741D01*
X147010674Y-71690479D01*
X146728410Y-71807396D01*
X146578585Y-71837198D01*
X146428761Y-71867000D01*
X146123239Y-71867000D01*
X145973415Y-71837198D01*
X145823590Y-71807396D01*
X145541326Y-71690479D01*
X145287295Y-71520741D01*
X145071259Y-71304705D01*
X144901521Y-71050674D01*
X144784604Y-70768410D01*
X144750667Y-70597796D01*
X144725000Y-70468761D01*
X144725000Y-70163239D01*
X144754802Y-70013415D01*
X144784604Y-69863590D01*
X144901521Y-69581326D01*
X145071259Y-69327295D01*
X145287295Y-69111259D01*
X145541326Y-68941521D01*
X145823590Y-68824604D01*
X146020878Y-68785361D01*
X146123239Y-68765000D01*
X146428761Y-68765000D01*
X146531122Y-68785361D01*
G37*
G36*
X158064468Y-70586065D02*
G01*
X158103138Y-70597796D01*
X158138777Y-70616846D01*
X158170017Y-70642483D01*
X158195654Y-70673723D01*
X158214704Y-70709362D01*
X158226435Y-70748032D01*
X158231000Y-70794388D01*
X158231000Y-71445612D01*
X158226435Y-71491968D01*
X158214704Y-71530638D01*
X158195654Y-71566277D01*
X158170017Y-71597517D01*
X158138777Y-71623154D01*
X158103138Y-71642204D01*
X158064468Y-71653935D01*
X158018112Y-71658500D01*
X156941888Y-71658500D01*
X156895532Y-71653935D01*
X156856862Y-71642204D01*
X156821223Y-71623154D01*
X156789983Y-71597517D01*
X156764346Y-71566277D01*
X156745296Y-71530638D01*
X156733565Y-71491968D01*
X156729000Y-71445612D01*
X156729000Y-70794388D01*
X156733565Y-70748032D01*
X156745296Y-70709362D01*
X156764346Y-70673723D01*
X156789983Y-70642483D01*
X156821223Y-70616846D01*
X156856862Y-70597796D01*
X156895532Y-70586065D01*
X156941888Y-70581500D01*
X158018112Y-70581500D01*
X158064468Y-70586065D01*
G37*
G36*
X165983256Y-67479298D02*
G01*
X166089579Y-67500447D01*
X166390042Y-67624903D01*
X166660451Y-67805585D01*
X166890415Y-68035549D01*
X166890416Y-68035551D01*
X167071098Y-68305960D01*
X167195553Y-68606422D01*
X167239263Y-68826163D01*
X167259000Y-68925391D01*
X167259000Y-69250609D01*
X167195553Y-69569579D01*
X167071097Y-69870042D01*
X166890415Y-70140451D01*
X166660451Y-70370415D01*
X166390042Y-70551097D01*
X166089579Y-70675553D01*
X165983256Y-70696702D01*
X165770611Y-70739000D01*
X165445389Y-70739000D01*
X165232744Y-70696702D01*
X165126421Y-70675553D01*
X164825958Y-70551097D01*
X164555549Y-70370415D01*
X164325585Y-70140451D01*
X164144903Y-69870042D01*
X164020447Y-69569579D01*
X163957000Y-69250609D01*
X163957000Y-68925391D01*
X163976738Y-68826163D01*
X164020447Y-68606422D01*
X164144902Y-68305960D01*
X164325584Y-68035551D01*
X164325585Y-68035549D01*
X164555549Y-67805585D01*
X164825958Y-67624903D01*
X165126421Y-67500447D01*
X165232744Y-67479298D01*
X165445389Y-67437000D01*
X165770611Y-67437000D01*
X165983256Y-67479298D01*
G37*
G36*
X114675256Y-67479298D02*
G01*
X114781579Y-67500447D01*
X115082042Y-67624903D01*
X115352451Y-67805585D01*
X115582415Y-68035549D01*
X115582416Y-68035551D01*
X115763098Y-68305960D01*
X115887553Y-68606422D01*
X115931263Y-68826163D01*
X115951000Y-68925391D01*
X115951000Y-69250609D01*
X115887553Y-69569579D01*
X115763097Y-69870042D01*
X115582415Y-70140451D01*
X115352451Y-70370415D01*
X115082042Y-70551097D01*
X114781579Y-70675553D01*
X114675256Y-70696702D01*
X114462611Y-70739000D01*
X114137389Y-70739000D01*
X113924744Y-70696702D01*
X113818421Y-70675553D01*
X113517958Y-70551097D01*
X113247549Y-70370415D01*
X113017585Y-70140451D01*
X112836903Y-69870042D01*
X112712447Y-69569579D01*
X112649000Y-69250609D01*
X112649000Y-68925391D01*
X112668738Y-68826163D01*
X112712447Y-68606422D01*
X112836902Y-68305960D01*
X113017584Y-68035551D01*
X113017585Y-68035549D01*
X113247549Y-67805585D01*
X113517958Y-67624903D01*
X113818421Y-67500447D01*
X113924744Y-67479298D01*
X114137389Y-67437000D01*
X114462611Y-67437000D01*
X114675256Y-67479298D01*
G37*
G36*
X153867997Y-67189051D02*
G01*
X153901652Y-67199261D01*
X153932665Y-67215838D01*
X153959851Y-67238149D01*
X153982162Y-67265335D01*
X153998739Y-67296348D01*
X154008949Y-67330003D01*
X154013000Y-67371138D01*
X154013000Y-69700862D01*
X154008949Y-69741997D01*
X153998739Y-69775652D01*
X153982162Y-69806665D01*
X153959851Y-69833851D01*
X153932665Y-69856162D01*
X153901652Y-69872739D01*
X153867997Y-69882949D01*
X153826862Y-69887000D01*
X152497138Y-69887000D01*
X152456003Y-69882949D01*
X152422348Y-69872739D01*
X152391335Y-69856162D01*
X152364149Y-69833851D01*
X152341838Y-69806665D01*
X152325261Y-69775652D01*
X152315051Y-69741997D01*
X152311000Y-69700862D01*
X152311000Y-67371138D01*
X152315051Y-67330003D01*
X152325261Y-67296348D01*
X152341838Y-67265335D01*
X152364149Y-67238149D01*
X152391335Y-67215838D01*
X152422348Y-67199261D01*
X152456003Y-67189051D01*
X152497138Y-67185000D01*
X153826862Y-67185000D01*
X153867997Y-67189051D01*
G37*
G36*
X158064468Y-68711065D02*
G01*
X158103138Y-68722796D01*
X158138777Y-68741846D01*
X158170017Y-68767483D01*
X158195654Y-68798723D01*
X158214704Y-68834362D01*
X158226435Y-68873032D01*
X158231000Y-68919388D01*
X158231000Y-69570612D01*
X158226435Y-69616968D01*
X158214704Y-69655638D01*
X158195654Y-69691277D01*
X158170017Y-69722517D01*
X158138777Y-69748154D01*
X158103138Y-69767204D01*
X158064468Y-69778935D01*
X158018112Y-69783500D01*
X156941888Y-69783500D01*
X156895532Y-69778935D01*
X156856862Y-69767204D01*
X156821223Y-69748154D01*
X156789983Y-69722517D01*
X156764346Y-69691277D01*
X156745296Y-69655638D01*
X156733565Y-69616968D01*
X156729000Y-69570612D01*
X156729000Y-68919388D01*
X156733565Y-68873032D01*
X156745296Y-68834362D01*
X156764346Y-68798723D01*
X156789983Y-68767483D01*
X156821223Y-68741846D01*
X156856862Y-68722796D01*
X156895532Y-68711065D01*
X156941888Y-68706500D01*
X158018112Y-68706500D01*
X158064468Y-68711065D01*
G37*
M02*
