G04 #@! TF.GenerationSoftware,KiCad,Pcbnew,5.1.5-52549c5~84~ubuntu18.04.1*
G04 #@! TF.CreationDate,2020-05-16T16:19:51-04:00*
G04 #@! TF.ProjectId,PWR_SUPPLY,5057525f-5355-4505-904c-592e6b696361,rev?*
G04 #@! TF.SameCoordinates,Original*
G04 #@! TF.FileFunction,Soldermask,Bot*
G04 #@! TF.FilePolarity,Negative*
%FSLAX46Y46*%
G04 Gerber Fmt 4.6, Leading zero omitted, Abs format (unit mm)*
G04 Created by KiCad (PCBNEW 5.1.5-52549c5~84~ubuntu18.04.1) date 2020-05-16 16:19:51*
%MOMM*%
%LPD*%
G04 APERTURE LIST*
%ADD10C,0.100000*%
G04 APERTURE END LIST*
D10*
G36*
X165983256Y-114723298D02*
G01*
X166089579Y-114744447D01*
X166302037Y-114832450D01*
X166377216Y-114863590D01*
X166390042Y-114868903D01*
X166660451Y-115049585D01*
X166890415Y-115279549D01*
X167071097Y-115549958D01*
X167071098Y-115549960D01*
X167195553Y-115850422D01*
X167259000Y-116169389D01*
X167259000Y-116494611D01*
X167253802Y-116520741D01*
X167195553Y-116813579D01*
X167071097Y-117114042D01*
X166890415Y-117384451D01*
X166660451Y-117614415D01*
X166390042Y-117795097D01*
X166089579Y-117919553D01*
X165983256Y-117940702D01*
X165770611Y-117983000D01*
X165445389Y-117983000D01*
X165232744Y-117940702D01*
X165126421Y-117919553D01*
X164825958Y-117795097D01*
X164555549Y-117614415D01*
X164325585Y-117384451D01*
X164144903Y-117114042D01*
X164020447Y-116813579D01*
X163962198Y-116520741D01*
X163957000Y-116494611D01*
X163957000Y-116169389D01*
X164020447Y-115850422D01*
X164144902Y-115549960D01*
X164144903Y-115549958D01*
X164325585Y-115279549D01*
X164555549Y-115049585D01*
X164825958Y-114868903D01*
X164838785Y-114863590D01*
X164913963Y-114832450D01*
X165126421Y-114744447D01*
X165232744Y-114723298D01*
X165445389Y-114681000D01*
X165770611Y-114681000D01*
X165983256Y-114723298D01*
G37*
G36*
X114675256Y-114723298D02*
G01*
X114781579Y-114744447D01*
X114994037Y-114832450D01*
X115069216Y-114863590D01*
X115082042Y-114868903D01*
X115352451Y-115049585D01*
X115582415Y-115279549D01*
X115763097Y-115549958D01*
X115763098Y-115549960D01*
X115887553Y-115850422D01*
X115951000Y-116169389D01*
X115951000Y-116494611D01*
X115945802Y-116520741D01*
X115887553Y-116813579D01*
X115763097Y-117114042D01*
X115582415Y-117384451D01*
X115352451Y-117614415D01*
X115082042Y-117795097D01*
X114781579Y-117919553D01*
X114675256Y-117940702D01*
X114462611Y-117983000D01*
X114137389Y-117983000D01*
X113924744Y-117940702D01*
X113818421Y-117919553D01*
X113517958Y-117795097D01*
X113247549Y-117614415D01*
X113017585Y-117384451D01*
X112836903Y-117114042D01*
X112712447Y-116813579D01*
X112654198Y-116520741D01*
X112649000Y-116494611D01*
X112649000Y-116169389D01*
X112712447Y-115850422D01*
X112836902Y-115549960D01*
X112836903Y-115549958D01*
X113017585Y-115279549D01*
X113247549Y-115049585D01*
X113517958Y-114868903D01*
X113530785Y-114863590D01*
X113605963Y-114832450D01*
X113818421Y-114744447D01*
X113924744Y-114723298D01*
X114137389Y-114681000D01*
X114462611Y-114681000D01*
X114675256Y-114723298D01*
G37*
G36*
X127027000Y-116867000D02*
G01*
X123925000Y-116867000D01*
X123925000Y-113765000D01*
X127027000Y-113765000D01*
X127027000Y-116867000D01*
G37*
G36*
X146578585Y-113794802D02*
G01*
X146728410Y-113824604D01*
X147010674Y-113941521D01*
X147264705Y-114111259D01*
X147480741Y-114327295D01*
X147650479Y-114581326D01*
X147767396Y-114863590D01*
X147827000Y-115163240D01*
X147827000Y-115468760D01*
X147767396Y-115768410D01*
X147650479Y-116050674D01*
X147480741Y-116304705D01*
X147264705Y-116520741D01*
X147010674Y-116690479D01*
X146728410Y-116807396D01*
X146578585Y-116837198D01*
X146428761Y-116867000D01*
X146123239Y-116867000D01*
X145973415Y-116837198D01*
X145823590Y-116807396D01*
X145541326Y-116690479D01*
X145287295Y-116520741D01*
X145071259Y-116304705D01*
X144901521Y-116050674D01*
X144784604Y-115768410D01*
X144725000Y-115468760D01*
X144725000Y-115163240D01*
X144784604Y-114863590D01*
X144901521Y-114581326D01*
X145071259Y-114327295D01*
X145287295Y-114111259D01*
X145541326Y-113941521D01*
X145823590Y-113824604D01*
X145973415Y-113794802D01*
X146123239Y-113765000D01*
X146428761Y-113765000D01*
X146578585Y-113794802D01*
G37*
G36*
X115618585Y-102618802D02*
G01*
X115768410Y-102648604D01*
X116050674Y-102765521D01*
X116304705Y-102935259D01*
X116520741Y-103151295D01*
X116690479Y-103405326D01*
X116807396Y-103687590D01*
X116867000Y-103987240D01*
X116867000Y-104292760D01*
X116807396Y-104592410D01*
X116690479Y-104874674D01*
X116520741Y-105128705D01*
X116304705Y-105344741D01*
X116050674Y-105514479D01*
X115768410Y-105631396D01*
X115618585Y-105661198D01*
X115468761Y-105691000D01*
X115163239Y-105691000D01*
X115013415Y-105661198D01*
X114863590Y-105631396D01*
X114581326Y-105514479D01*
X114327295Y-105344741D01*
X114111259Y-105128705D01*
X113941521Y-104874674D01*
X113824604Y-104592410D01*
X113765000Y-104292760D01*
X113765000Y-103987240D01*
X113824604Y-103687590D01*
X113941521Y-103405326D01*
X114111259Y-103151295D01*
X114327295Y-102935259D01*
X114581326Y-102765521D01*
X114863590Y-102648604D01*
X115013415Y-102618802D01*
X115163239Y-102589000D01*
X115468761Y-102589000D01*
X115618585Y-102618802D01*
G37*
G36*
X166143000Y-101627000D02*
G01*
X163041000Y-101627000D01*
X163041000Y-98525000D01*
X166143000Y-98525000D01*
X166143000Y-101627000D01*
G37*
G36*
X116867000Y-100611000D02*
G01*
X113765000Y-100611000D01*
X113765000Y-97509000D01*
X116867000Y-97509000D01*
X116867000Y-100611000D01*
G37*
G36*
X164894585Y-93474802D02*
G01*
X165044410Y-93504604D01*
X165326674Y-93621521D01*
X165580705Y-93791259D01*
X165796741Y-94007295D01*
X165966479Y-94261326D01*
X166083396Y-94543590D01*
X166143000Y-94843240D01*
X166143000Y-95148760D01*
X166083396Y-95448410D01*
X165966479Y-95730674D01*
X165796741Y-95984705D01*
X165580705Y-96200741D01*
X165326674Y-96370479D01*
X165044410Y-96487396D01*
X164894585Y-96517198D01*
X164744761Y-96547000D01*
X164439239Y-96547000D01*
X164289415Y-96517198D01*
X164139590Y-96487396D01*
X163857326Y-96370479D01*
X163603295Y-96200741D01*
X163387259Y-95984705D01*
X163217521Y-95730674D01*
X163100604Y-95448410D01*
X163041000Y-95148760D01*
X163041000Y-94843240D01*
X163100604Y-94543590D01*
X163217521Y-94261326D01*
X163387259Y-94007295D01*
X163603295Y-93791259D01*
X163857326Y-93621521D01*
X164139590Y-93504604D01*
X164289415Y-93474802D01*
X164439239Y-93445000D01*
X164744761Y-93445000D01*
X164894585Y-93474802D01*
G37*
G36*
X119332016Y-91604291D02*
G01*
X119434024Y-91624581D01*
X119626204Y-91704185D01*
X119799161Y-91819751D01*
X119946249Y-91966839D01*
X120061815Y-92139796D01*
X120141419Y-92331976D01*
X120182000Y-92535993D01*
X120182000Y-92744007D01*
X120141419Y-92948024D01*
X120061815Y-93140204D01*
X119946249Y-93313161D01*
X119799161Y-93460249D01*
X119626204Y-93575815D01*
X119434024Y-93655419D01*
X119332015Y-93675710D01*
X119230008Y-93696000D01*
X119021992Y-93696000D01*
X118919985Y-93675710D01*
X118817976Y-93655419D01*
X118625796Y-93575815D01*
X118452839Y-93460249D01*
X118305751Y-93313161D01*
X118190185Y-93140204D01*
X118110581Y-92948024D01*
X118070000Y-92744007D01*
X118070000Y-92535993D01*
X118110581Y-92331976D01*
X118190185Y-92139796D01*
X118305751Y-91966839D01*
X118452839Y-91819751D01*
X118625796Y-91704185D01*
X118817976Y-91624581D01*
X118919984Y-91604291D01*
X119021992Y-91584000D01*
X119230008Y-91584000D01*
X119332016Y-91604291D01*
G37*
G36*
X114232015Y-90404290D02*
G01*
X114334024Y-90424581D01*
X114526204Y-90504185D01*
X114699161Y-90619751D01*
X114846249Y-90766839D01*
X114961815Y-90939796D01*
X115041419Y-91131976D01*
X115082000Y-91335993D01*
X115082000Y-91544007D01*
X115041419Y-91748024D01*
X114961815Y-91940204D01*
X114846249Y-92113161D01*
X114699161Y-92260249D01*
X114526204Y-92375815D01*
X114334024Y-92455419D01*
X114232015Y-92475710D01*
X114130008Y-92496000D01*
X113921992Y-92496000D01*
X113819984Y-92475709D01*
X113717976Y-92455419D01*
X113525796Y-92375815D01*
X113352839Y-92260249D01*
X113205751Y-92113161D01*
X113090185Y-91940204D01*
X113010581Y-91748024D01*
X112970000Y-91544007D01*
X112970000Y-91335993D01*
X113010581Y-91131976D01*
X113090185Y-90939796D01*
X113205751Y-90766839D01*
X113352839Y-90619751D01*
X113525796Y-90504185D01*
X113717976Y-90424581D01*
X113819984Y-90404291D01*
X113921992Y-90384000D01*
X114130008Y-90384000D01*
X114232015Y-90404290D01*
G37*
G36*
X166143000Y-90959000D02*
G01*
X163041000Y-90959000D01*
X163041000Y-87857000D01*
X166143000Y-87857000D01*
X166143000Y-90959000D01*
G37*
G36*
X164894585Y-82806802D02*
G01*
X165044410Y-82836604D01*
X165326674Y-82953521D01*
X165580705Y-83123259D01*
X165796741Y-83339295D01*
X165966479Y-83593326D01*
X166083396Y-83875590D01*
X166143000Y-84175240D01*
X166143000Y-84480760D01*
X166083396Y-84780410D01*
X165966479Y-85062674D01*
X165796741Y-85316705D01*
X165580705Y-85532741D01*
X165326674Y-85702479D01*
X165044410Y-85819396D01*
X164894585Y-85849198D01*
X164744761Y-85879000D01*
X164439239Y-85879000D01*
X164289415Y-85849198D01*
X164139590Y-85819396D01*
X163857326Y-85702479D01*
X163603295Y-85532741D01*
X163387259Y-85316705D01*
X163217521Y-85062674D01*
X163100604Y-84780410D01*
X163041000Y-84480760D01*
X163041000Y-84175240D01*
X163100604Y-83875590D01*
X163217521Y-83593326D01*
X163387259Y-83339295D01*
X163603295Y-83123259D01*
X163857326Y-82953521D01*
X164139590Y-82836604D01*
X164289415Y-82806802D01*
X164439239Y-82777000D01*
X164744761Y-82777000D01*
X164894585Y-82806802D01*
G37*
G36*
X115618585Y-82298802D02*
G01*
X115768410Y-82328604D01*
X116050674Y-82445521D01*
X116304705Y-82615259D01*
X116520741Y-82831295D01*
X116690479Y-83085326D01*
X116807396Y-83367590D01*
X116867000Y-83667240D01*
X116867000Y-83972760D01*
X116807396Y-84272410D01*
X116690479Y-84554674D01*
X116520741Y-84808705D01*
X116304705Y-85024741D01*
X116050674Y-85194479D01*
X115768410Y-85311396D01*
X115618585Y-85341198D01*
X115468761Y-85371000D01*
X115163239Y-85371000D01*
X115013415Y-85341198D01*
X114863590Y-85311396D01*
X114581326Y-85194479D01*
X114327295Y-85024741D01*
X114111259Y-84808705D01*
X113941521Y-84554674D01*
X113824604Y-84272410D01*
X113765000Y-83972760D01*
X113765000Y-83667240D01*
X113824604Y-83367590D01*
X113941521Y-83085326D01*
X114111259Y-82831295D01*
X114327295Y-82615259D01*
X114581326Y-82445521D01*
X114863590Y-82328604D01*
X115013415Y-82298802D01*
X115163239Y-82269000D01*
X115468761Y-82269000D01*
X115618585Y-82298802D01*
G37*
G36*
X116867000Y-80291000D02*
G01*
X113765000Y-80291000D01*
X113765000Y-77189000D01*
X116867000Y-77189000D01*
X116867000Y-80291000D01*
G37*
G36*
X138578585Y-68794802D02*
G01*
X138728410Y-68824604D01*
X139010674Y-68941521D01*
X139264705Y-69111259D01*
X139480741Y-69327295D01*
X139650479Y-69581326D01*
X139767396Y-69863590D01*
X139827000Y-70163240D01*
X139827000Y-70468760D01*
X139767396Y-70768410D01*
X139650479Y-71050674D01*
X139480741Y-71304705D01*
X139264705Y-71520741D01*
X139010674Y-71690479D01*
X138728410Y-71807396D01*
X138578585Y-71837198D01*
X138428761Y-71867000D01*
X138123239Y-71867000D01*
X137973415Y-71837198D01*
X137823590Y-71807396D01*
X137541326Y-71690479D01*
X137287295Y-71520741D01*
X137071259Y-71304705D01*
X136901521Y-71050674D01*
X136784604Y-70768410D01*
X136725000Y-70468760D01*
X136725000Y-70163240D01*
X136784604Y-69863590D01*
X136901521Y-69581326D01*
X137071259Y-69327295D01*
X137287295Y-69111259D01*
X137541326Y-68941521D01*
X137823590Y-68824604D01*
X137973415Y-68794802D01*
X138123239Y-68765000D01*
X138428761Y-68765000D01*
X138578585Y-68794802D01*
G37*
G36*
X146578585Y-68794802D02*
G01*
X146728410Y-68824604D01*
X147010674Y-68941521D01*
X147264705Y-69111259D01*
X147480741Y-69327295D01*
X147650479Y-69581326D01*
X147767396Y-69863590D01*
X147827000Y-70163240D01*
X147827000Y-70468760D01*
X147767396Y-70768410D01*
X147650479Y-71050674D01*
X147480741Y-71304705D01*
X147264705Y-71520741D01*
X147010674Y-71690479D01*
X146728410Y-71807396D01*
X146578585Y-71837198D01*
X146428761Y-71867000D01*
X146123239Y-71867000D01*
X145973415Y-71837198D01*
X145823590Y-71807396D01*
X145541326Y-71690479D01*
X145287295Y-71520741D01*
X145071259Y-71304705D01*
X144901521Y-71050674D01*
X144784604Y-70768410D01*
X144725000Y-70468760D01*
X144725000Y-70163240D01*
X144784604Y-69863590D01*
X144901521Y-69581326D01*
X145071259Y-69327295D01*
X145287295Y-69111259D01*
X145541326Y-68941521D01*
X145823590Y-68824604D01*
X145973415Y-68794802D01*
X146123239Y-68765000D01*
X146428761Y-68765000D01*
X146578585Y-68794802D01*
G37*
G36*
X114675256Y-67479298D02*
G01*
X114781579Y-67500447D01*
X115082042Y-67624903D01*
X115352451Y-67805585D01*
X115582415Y-68035549D01*
X115763097Y-68305958D01*
X115887553Y-68606421D01*
X115951000Y-68925391D01*
X115951000Y-69250609D01*
X115887553Y-69569579D01*
X115763097Y-69870042D01*
X115582415Y-70140451D01*
X115352451Y-70370415D01*
X115082042Y-70551097D01*
X114781579Y-70675553D01*
X114675256Y-70696702D01*
X114462611Y-70739000D01*
X114137389Y-70739000D01*
X113924744Y-70696702D01*
X113818421Y-70675553D01*
X113517958Y-70551097D01*
X113247549Y-70370415D01*
X113017585Y-70140451D01*
X112836903Y-69870042D01*
X112712447Y-69569579D01*
X112649000Y-69250609D01*
X112649000Y-68925391D01*
X112712447Y-68606421D01*
X112836903Y-68305958D01*
X113017585Y-68035549D01*
X113247549Y-67805585D01*
X113517958Y-67624903D01*
X113818421Y-67500447D01*
X113924744Y-67479298D01*
X114137389Y-67437000D01*
X114462611Y-67437000D01*
X114675256Y-67479298D01*
G37*
G36*
X165983256Y-67479298D02*
G01*
X166089579Y-67500447D01*
X166390042Y-67624903D01*
X166660451Y-67805585D01*
X166890415Y-68035549D01*
X167071097Y-68305958D01*
X167195553Y-68606421D01*
X167259000Y-68925391D01*
X167259000Y-69250609D01*
X167195553Y-69569579D01*
X167071097Y-69870042D01*
X166890415Y-70140451D01*
X166660451Y-70370415D01*
X166390042Y-70551097D01*
X166089579Y-70675553D01*
X165983256Y-70696702D01*
X165770611Y-70739000D01*
X165445389Y-70739000D01*
X165232744Y-70696702D01*
X165126421Y-70675553D01*
X164825958Y-70551097D01*
X164555549Y-70370415D01*
X164325585Y-70140451D01*
X164144903Y-69870042D01*
X164020447Y-69569579D01*
X163957000Y-69250609D01*
X163957000Y-68925391D01*
X164020447Y-68606421D01*
X164144903Y-68305958D01*
X164325585Y-68035549D01*
X164555549Y-67805585D01*
X164825958Y-67624903D01*
X165126421Y-67500447D01*
X165232744Y-67479298D01*
X165445389Y-67437000D01*
X165770611Y-67437000D01*
X165983256Y-67479298D01*
G37*
M02*
