M48
; DRILL file {KiCad 5.1.5-52549c5~84~ubuntu18.04.1} date Sat 16 May 2020 04:20:12 PM EDT
; FORMAT={-:-/ absolute / inch / decimal}
; #@! TF.CreationDate,2020-05-16T16:20:12-04:00
; #@! TF.GenerationSoftware,Kicad,Pcbnew,5.1.5-52549c5~84~ubuntu18.04.1
; #@! TF.FileFunction,Plated,1,2,PTH
FMAT,2
INCH
T1C0.0157
T2C0.0398
T3C0.0591
T4C0.0598
%
G90
G05
T1
X4.74Y-2.75
X4.74Y-3.02
X4.74Y-3.19
X4.74Y-3.38
X5.04Y-2.75
X5.04Y-3.02
X5.04Y-3.38
X5.2Y-3.85
X5.44Y-3.85
X5.65Y-3.85
X5.74Y-3.05
X5.74Y-3.25
X5.74Y-3.45
X5.92Y-2.65
X5.92Y-2.85
X5.95Y-4.4
X5.98Y-3.57
X5.98Y-3.7
X6.04Y-4.03
X6.16Y-3.25
X6.25Y-3.57
X6.25Y-3.7
X6.28Y-4.42
X6.5Y-2.95
X6.55Y-4.26
T2
X4.4892Y-3.6
X4.69Y-3.6472
T3
X4.94Y-4.54
X5.4439Y-2.7683
X5.7589Y-2.7683
X5.7589Y-4.54
T4
X4.54Y-3.9
X4.54Y-4.1
X6.48Y-3.32
X6.48Y-3.52
X4.54Y-3.1
X4.54Y-3.3
X6.48Y-3.74
X6.48Y-3.94
T0
M30
